<?xml version="1.0" encoding="utf-8"?>
<svg viewBox="0 0 500 500" xmlns="http://www.w3.org/2000/svg">
  <defs>
    <radialGradient gradientUnits="userSpaceOnUse" cx="197.081" cy="213.884" r="213.441" id="gradient-0" gradientTransform="matrix(1, 0, 0, 1, 0.000162, 0.491818)">
      <stop offset="0" style="stop-color: rgb(168, 223, 255);"/>
      <stop offset="1" style="stop-color: rgb(0, 102, 162);"/>
    </radialGradient>
    <radialGradient gradientUnits="userSpaceOnUse" cx="541.052" cy="178.154" r="211.408" id="gradient-2" gradientTransform="matrix(1.004886, 0, 0, 1.004886, -351.487213, 53.458076)">
      <stop offset="0" style="stop-color: rgba(162, 231, 87, 1)"/>
      <stop offset="1" style="stop-color: rgb(0, 157, 73);"/>
    </radialGradient>
  </defs>
  <ellipse style="fill: url(#gradient-0);" cx="251.392" cy="256.738" rx="213.441" ry="213.441"/>
  <g transform="matrix(1, 0, 0, 1, 0, -0.001004)">
    <path d="M 38.951 256.667 C 38.951 188.44 70.808 127.652 120.459 88.369 C 128.57 88.355 139.393 89.018 144.996 88.799 C 147.391 88.707 163.117 85.142 166.717 84.118 C 190.672 77.304 237.263 68.306 230.027 92.64 C 223.641 101.979 208.415 110.307 203.012 114.283 C 201.051 115.727 181.785 123.107 178.834 124.172 C 171.388 126.859 159.294 146.645 158.589 147.54 C 157.532 148.883 127.177 184.374 125.902 187.129 C 120.254 199.345 106.452 205.488 103.482 206.159 C 97.5 207.51 85.683 210.735 81.259 214.993 C 79.188 216.986 74.326 220.673 71.706 224.652 C 69.756 227.612 65.71 235.796 65.494 236.378 C 59.934 251.365 62.572 250.328 64.815 259.551 C 68.893 276.32 80.884 287.57 83.364 289.954 C 83.99 290.555 88.007 293.694 88.73 294.055 C 91.876 295.629 123.473 297.818 126.9 298.207 C 150.278 300.861 210.601 310.418 218.839 318.13 C 226.928 325.706 227.978 327.695 229.935 337.405 C 232.514 350.198 229.977 362.474 228.755 366.038 C 225.261 376.232 212.969 395.074 212.714 404.602 C 212.309 419.737 212.395 455.832 212.14 467.18 C 192.095 463.27 173.048 456.569 155.421 447.497 C 153.073 436.408 147.918 410.889 147.344 408.981 C 144.238 398.665 93.588 371.306 93.173 371.108 C 81.348 365.456 77.916 362.688 71.9 355.732 C 68.251 351.517 63.641 344.206 66.337 331.653 C 67.39 326.755 78.985 311.046 76.468 305.96 C 69.629 292.127 69.46 296.948 55.13 281.254 C 48.807 274.331 43.099 269.237 39.035 262.752 C 38.979 260.731 38.951 258.702 38.951 256.667 Z M 463.768 256.611 C 448.015 272.36 434.786 306.306 426.826 326.327 C 422.539 337.11 426.148 363.52 425.304 379.352 C 408.312 403.675 386.407 424.312 361.025 439.82 C 353.609 434.791 349.204 411.181 345.885 401.25 C 340.686 385.691 346.168 361.339 340.541 344.77 C 337.997 337.275 342.78 320.142 337.182 314.545 C 331.307 308.668 338.022 290.196 332.146 284.32 C 325.149 277.323 313.952 274.524 306.956 267.528 C 302.759 263.329 267.789 261.942 261.619 255.772 C 253.502 247.657 248.632 244.383 240.515 236.265 C 237.437 233.188 237.885 214.689 237.185 210.658 C 235.213 199.31 243.182 163.382 248.184 158.378 C 258.539 148.023 283.169 151.942 293.524 141.588 C 311.435 123.674 331.024 107.443 348.937 89.531 C 360.62 82.768 369.358 83.423 378.895 85.711 C 430.474 124.856 463.794 186.81 463.833 256.546 C 463.811 256.568 463.79 256.589 463.768 256.611 Z" style="fill: url(#gradient-2);"/>
    <path style="fill: rgb(0, 0, 0); stroke-width: 3px;" d="M 236.583 498.839 L 231.79 498.514 L 223.64 497.597 L 215.491 496.68 L 199.917 494.297 L 184.344 491.913 L 182.66 491.044 L 180.977 490.175 L 177.142 489.487 L 173.307 488.8 L 162.282 485.159 L 151.257 481.518 L 143.472 478.192 L 135.687 474.866 L 125.736 469.404 L 115.784 463.942 L 111.828 461.353 L 107.873 458.764 L 105.117 456.875 L 102.362 454.985 L 98.527 452.086 L 94.692 449.186 L 85.173 441.032 L 75.655 432.878 L 66.155 422.332 L 56.655 411.786 L 50.133 403.158 L 43.611 394.529 L 36.443 383.504 L 29.275 372.479 L 24.367 362.695 L 19.458 352.912 L 15.729 343.042 L 12 333.171 L 9.525 324.542 L 7.051 315.914 L 4.624 303.262 L 2.197 290.61 L 1.099 274.105 L 0 257.6 L 1.088 239.78 L 2.176 221.959 L 5.105 205.661 L 8.033 189.362 L 10.935 178.482 L 13.837 167.602 L 16.081 161.704 L 18.325 155.807 L 21.68 148.616 L 25.034 141.426 L 30.829 131.06 L 36.624 120.694 L 42.74 111.406 L 48.856 102.118 L 56.867 92.052 L 64.877 81.985 L 75.47 71.402 L 86.063 60.819 L 95.171 53.588 L 104.279 46.357 L 110.511 42.206 L 116.743 38.054 L 119.139 36.447 L 121.536 34.841 L 130.644 29.941 L 139.752 25.041 L 148.949 21.217 L 158.145 17.393 L 173.887 12.167 L 189.628 6.941 L 204.956 3.717 L 220.285 0.494 L 247.129 0.494 L 273.973 0.494 L 276.678 1.248 L 279.383 2.002 L 278.997 3.165 L 278.612 4.328 L 263.829 5.013 L 249.047 5.697 L 242.335 6.644 L 235.624 7.592 L 221.723 9.96 L 207.821 12.328 L 196.317 15.241 L 184.812 18.153 L 176.663 20.999 L 168.514 23.846 L 161.803 26.588 L 155.092 29.33 L 151.135 31.409 L 147.179 33.488 L 146.531 35.176 L 145.883 36.864 L 146.475 46.961 L 147.067 57.058 L 148.922 74.315 L 150.778 91.572 L 152.195 99.621 L 153.613 107.67 L 154.149 108.207 L 154.685 108.743 L 157.765 107.503 L 160.844 106.263 L 174.519 101.532 L 188.194 96.801 L 200.884 93.405 L 213.574 90.009 L 227.475 87.252 L 241.377 84.496 L 246.41 83.836 L 251.443 83.176 L 251.443 82.223 L 251.443 81.27 L 244.972 75.04 L 238.501 68.809 L 227.475 59.567 L 216.45 50.326 L 211.019 46.022 L 205.588 41.719 L 205.04 39.801 L 204.492 37.884 L 204.494 34.528 L 204.496 31.173 L 205.22 30.034 L 205.944 28.896 L 208.321 27.993 L 210.698 27.09 L 214.593 27.036 L 218.488 26.984 L 225.139 25.396 L 231.79 23.809 L 251.923 23.033 L 272.057 22.257 L 285.479 23.06 L 298.901 23.863 L 312.38 26.25 L 325.86 28.636 L 334.91 31.191 L 343.961 33.747 L 348.755 35.448 L 353.548 37.149 L 360.739 39.845 L 367.929 42.54 L 380.392 48.886 L 392.856 55.232 L 401.484 60.865 L 410.113 66.498 L 418.262 72.735 L 426.411 78.971 L 436.334 88.627 L 446.256 98.283 L 452.23 105.953 L 458.205 113.623 L 461.545 118.896 L 464.885 124.169 L 468.321 129.921 L 471.756 135.674 L 476.012 143.823 L 480.268 151.972 L 483.719 160.6 L 487.17 169.229 L 489.573 176.419 L 491.976 183.61 L 494.408 194.635 L 496.841 205.661 L 497.802 212.52 L 498.762 219.379 L 499.381 234.091 L 500 248.803 L 498.876 264.143 L 497.752 279.482 L 496.326 286.193 L 494.899 292.904 L 493.495 300.095 L 492.09 307.285 L 490.106 313.996 L 488.121 320.707 L 484.713 330.774 L 481.305 340.841 L 478.125 348.51 L 474.946 356.18 L 469.311 367.206 L 463.676 378.231 L 461.426 382.066 L 459.176 385.901 L 453.9 394.05 L 448.623 402.199 L 441.352 411.784 L 434.081 421.368 L 423.535 432.287 L 412.989 443.205 L 403.402 451.055 L 393.815 458.905 L 388.062 462.559 L 382.31 466.213 L 379.855 467.896 L 377.399 469.579 L 371.408 472.603 L 365.416 475.628 L 355.594 479.823 L 345.772 484.018 L 332.882 488.298 L 319.993 492.577 L 308.009 495.053 L 296.025 497.529 L 285.479 498.519 L 274.933 499.508 L 258.155 499.336 L 241.377 499.164 L 236.584 498.839 L 236.583 498.839 Z M 282.602 481.201 L 289.313 480.294 L 298.181 479.221 L 307.049 478.148 L 307.049 476.962 L 307.049 475.777 L 300.506 467.75 L 293.963 459.722 L 283.968 445.669 L 273.973 431.616 L 270.337 426.279 L 266.702 420.942 L 262.722 422.535 L 258.742 424.127 L 249.101 429.316 L 239.459 434.504 L 236.104 436.668 L 232.748 438.832 L 226.996 442.583 L 221.244 446.334 L 215.731 450.507 L 210.218 454.68 L 210.219 455.284 L 210.22 455.888 L 218.128 462.247 L 226.037 468.607 L 230.831 471.785 L 235.624 474.963 L 236.104 475.501 L 236.583 476.039 L 240.897 478.906 L 245.212 481.773 L 248.088 482.362 L 250.964 482.95 L 263.427 482.529 L 275.891 482.108 L 282.602 481.201 Z M 224.599 480.335 L 224.599 478.418 L 223.803 478.418 L 223.008 478.418 L 212.072 471.227 L 201.136 464.037 L 200.042 464.037 L 198.947 464.037 L 194.995 469.159 L 191.044 474.28 L 191.044 475.783 L 191.044 477.285 L 197.515 478.356 L 203.987 479.427 L 213.094 480.746 L 222.202 482.064 L 223.401 482.159 L 224.599 482.253 L 224.599 480.335 Z M 338.013 468.781 L 344.919 465.825 L 351.151 462.926 L 357.382 460.027 L 361.549 457.957 L 365.716 455.888 L 366.583 453.668 L 367.449 451.448 L 367.449 431.039 L 367.449 410.629 L 366.818 404.596 L 366.188 398.562 L 354.115 399.167 L 342.043 399.773 L 333.414 401.183 L 324.786 402.592 L 314.24 404.931 L 303.694 407.269 L 297.462 409.315 L 291.23 411.361 L 287.156 412.851 L 283.081 414.342 L 283.081 415.568 L 283.081 416.794 L 288.029 424.356 L 292.978 431.919 L 300.326 441.507 L 307.675 451.094 L 311.293 455.888 L 314.912 460.681 L 320.277 466.755 L 325.641 472.83 L 328.374 472.283 L 331.107 471.737 L 338.013 468.781 Z M 180.977 463.552 L 186.729 456.472 L 186.921 455.221 L 187.113 453.97 L 179.326 447.738 L 171.538 441.507 L 152.228 422.332 L 132.918 403.158 L 126.408 395.009 L 119.899 386.859 L 119.036 386.538 L 118.173 386.218 L 110.956 392.291 L 103.738 398.364 L 100.653 399.49 L 97.568 400.615 L 91.56 400.688 L 85.552 400.761 L 87.943 396.041 L 90.335 391.322 L 99.082 382.625 L 107.829 373.927 L 101.841 364.59 L 95.853 355.254 L 89.352 342.774 L 82.851 330.294 L 77.653 317.831 L 72.455 305.368 L 70.861 301.053 L 69.267 296.739 L 68.358 295.31 L 67.449 293.881 L 64.293 295.702 L 61.137 297.524 L 55.344 302.024 L 49.551 306.525 L 47.497 307.624 L 45.444 308.723 L 43.062 308.723 L 40.681 308.723 L 39.129 308.128 L 37.577 307.532 L 36.089 304.656 L 34.602 301.779 L 35.193 298.627 L 35.785 295.475 L 39.377 292.229 L 42.97 288.984 L 52.293 282.484 L 61.616 275.983 L 61.616 275.246 L 61.616 274.509 L 59.833 269.326 L 58.05 264.142 L 54.64 251.679 L 51.23 239.216 L 48.785 228.637 L 46.34 218.059 L 44.657 207.306 L 42.975 196.552 L 41.783 196.552 L 40.591 196.552 L 37.441 199.239 L 34.292 201.926 L 29.27 205.544 L 24.248 209.163 L 21.165 208.85 L 18.083 208.536 L 17.415 210.933 L 16.747 213.33 L 16.662 234.901 L 16.576 256.473 L 17.982 269.416 L 19.388 282.358 L 21.792 294.822 L 24.196 307.285 L 26.69 316.393 L 29.183 325.501 L 32.511 335.055 L 35.838 344.609 L 36.582 345.601 L 37.326 346.593 L 38.637 349.948 L 39.949 353.304 L 46.498 365.288 L 53.048 377.272 L 57.301 383.326 L 61.553 389.38 L 68.025 397.707 L 74.496 406.034 L 85.553 417.103 L 96.609 428.171 L 103.32 433.473 L 110.031 438.775 L 117.717 444.023 L 125.403 449.272 L 135.933 454.995 L 146.463 460.718 L 152.215 463.329 L 157.968 465.94 L 165.637 468.678 L 173.307 471.417 L 174.266 471.025 L 175.225 470.632 L 180.977 463.552 Z M 387.046 443.358 L 393.577 438.977 L 401.845 432.767 L 410.112 426.556 L 418.834 417.944 L 427.555 409.333 L 428.856 406.902 L 430.157 404.471 L 428.812 403.64 L 427.467 402.809 L 421.666 401.813 L 415.865 400.817 L 405.319 399.831 L 394.773 398.845 L 387.401 398.844 L 380.03 398.843 L 379.535 402.918 L 379.04 406.993 L 378.481 427.365 L 377.923 447.738 L 379.219 447.738 L 380.514 447.738 L 387.046 443.358 Z M 210.218 437.638 L 219.326 430.822 L 229.052 424.461 L 238.779 418.1 L 247.987 413.18 L 257.196 408.26 L 257.196 407.334 L 257.196 406.408 L 253.51 400.948 L 249.823 395.488 L 239.279 378.71 L 228.735 361.933 L 222.954 351.866 L 217.172 341.799 L 213.683 334.849 L 210.194 327.898 L 209.708 327.898 L 209.221 327.898 L 195.099 334.861 L 180.977 341.825 L 170.803 347.893 L 160.628 353.961 L 152.108 360.37 L 143.587 366.779 L 138.314 370.948 L 133.041 375.118 L 133.041 376.328 L 133.041 377.537 L 143.195 389.389 L 153.349 401.24 L 165.725 414.106 L 178.101 426.971 L 188.532 436.375 L 198.963 445.78 L 200.037 445.116 L 201.11 444.453 L 210.218 437.638 Z M 278.934 399.315 L 282.395 397.869 L 294.003 394.576 L 305.611 391.283 L 319.513 388.828 L 333.414 386.373 L 349.473 385.225 L 365.532 384.077 L 365.524 381.633 L 365.517 379.19 L 363.601 361.957 L 361.685 344.724 L 358.768 329.84 L 355.85 314.955 L 353.427 305.378 L 351.003 295.801 L 349.88 295.065 L 348.756 294.33 L 338.21 294.856 L 327.664 295.382 L 316.16 296.361 L 304.655 297.34 L 289.795 300.228 L 274.934 303.116 L 265.765 305.83 L 256.596 308.543 L 248.508 311.447 L 240.42 314.35 L 234.189 317.055 L 227.957 319.76 L 226.681 320.578 L 225.405 321.396 L 225.939 323.523 L 226.472 325.649 L 231.426 334.683 L 236.379 343.717 L 240.706 350.907 L 245.034 358.098 L 249.823 365.767 L 254.613 373.437 L 263.55 387.099 L 272.486 400.761 L 273.981 400.761 L 275.475 400.761 L 278.936 399.315 L 278.934 399.315 Z M 440.042 393.331 L 443.785 388.777 L 446.018 384.942 L 448.25 381.107 L 449.013 370.082 L 449.777 359.056 L 449.825 338.444 L 449.873 317.831 L 449.316 315.755 L 448.759 313.678 L 439.981 310.791 L 431.204 307.904 L 421.754 305.38 L 412.304 302.855 L 400.183 300.519 L 388.061 298.183 L 377.784 297.032 L 367.507 295.882 L 367.042 296.347 L 366.578 296.812 L 368.91 306.842 L 371.242 316.872 L 374.14 336.047 L 377.038 355.221 L 378.235 370.065 L 379.433 384.908 L 387.103 386.042 L 394.772 387.176 L 406.757 390.04 L 418.741 392.904 L 425.778 394.842 L 432.815 396.779 L 433.368 397.332 L 433.92 397.885 L 435.109 397.885 L 436.298 397.885 L 440.042 393.331 Z M 457.932 364.09 L 459.344 360.974 L 461.868 354.742 L 464.393 348.51 L 465.864 343.717 L 467.336 338.923 L 468.64 336.047 L 469.944 333.171 L 474.839 313.996 L 479.734 294.822 L 481.113 285.714 L 482.492 276.606 L 483.1 263.184 L 483.707 249.762 L 482.579 236.34 L 481.451 222.917 L 478.623 209.016 L 475.795 195.114 L 473.337 186.965 L 470.88 178.816 L 468.385 172.105 L 465.89 165.394 L 462.175 157.724 L 458.46 150.054 L 454.344 143.454 L 450.228 136.854 L 445.03 130.254 L 439.833 123.654 L 431.079 119.358 L 422.326 115.061 L 421.721 115.061 L 421.117 115.061 L 417.053 113.181 L 412.988 111.301 L 404.36 108.33 L 395.731 105.359 L 394.054 104.825 L 392.376 104.291 L 392.376 105.466 L 392.376 106.641 L 398.422 114.926 L 404.467 123.21 L 409.79 131.359 L 415.113 139.508 L 420.47 149.575 L 425.827 159.642 L 431.019 171.699 L 436.21 183.756 L 438.338 190.15 L 440.466 196.545 L 446.86 200.056 L 453.255 203.567 L 459.007 207.234 L 464.76 210.901 L 466.437 212.088 L 468.115 213.274 L 468.115 214.398 L 468.115 215.522 L 466.691 216.068 L 465.268 216.615 L 457.823 214.631 L 450.379 212.648 L 448.073 212.13 L 445.768 211.612 L 446.411 213.909 L 447.055 216.206 L 449.844 230.108 L 452.634 244.009 L 454.247 257.432 L 455.861 270.854 L 456.475 287.615 L 457.09 304.377 L 461.171 306.626 L 465.252 308.874 L 466.19 310.627 L 467.129 312.38 L 465.442 314.463 L 463.755 316.547 L 460.422 317.226 L 457.09 317.906 L 456.468 335.125 L 455.846 352.345 L 455.204 359.775 L 454.561 367.206 L 455.541 367.206 L 456.52 367.206 L 457.932 364.09 Z M 128.563 357.763 L 134 353.114 L 143.587 346.411 L 153.174 339.709 L 159.885 335.378 L 166.596 331.047 L 176.183 325.26 L 185.771 319.472 L 193.769 315.446 L 201.766 311.42 L 201.284 309.832 L 200.802 308.244 L 194.852 293.863 L 188.902 279.482 L 186.735 273.251 L 184.568 267.019 L 179.09 251.679 L 173.612 236.34 L 172.555 233.141 L 171.497 229.943 L 168.972 230.448 L 166.448 230.952 L 149.744 240.157 L 133.041 249.362 L 123.933 254.991 L 114.825 260.62 L 99.725 271.361 L 84.625 282.103 L 84.625 283.299 L 84.625 284.494 L 88.044 293.493 L 91.462 302.492 L 93.224 307.285 L 94.986 312.079 L 100.704 324.542 L 106.422 337.006 L 111.697 346.114 L 116.973 355.221 L 119.254 358.776 L 121.536 362.331 L 122.331 362.371 L 123.126 362.412 L 128.563 357.763 Z M 223.698 301.432 L 229.872 298.935 L 236.104 296.578 L 242.335 294.221 L 255.038 290.505 L 267.74 286.789 L 279.965 284.354 L 292.189 281.919 L 301.297 280.829 L 310.405 279.74 L 328.141 279.132 L 345.878 278.524 L 345.626 276.127 L 345.375 273.73 L 342.889 265.581 L 340.404 257.432 L 334.754 239.833 L 329.104 222.234 L 325.678 212.988 L 322.253 203.743 L 319.806 197.511 L 317.359 191.28 L 316.361 190.646 L 315.362 190.013 L 310.487 190.402 L 305.611 190.791 L 293.924 191.805 L 282.237 192.819 L 267.608 195.651 L 252.979 198.483 L 242.384 201.384 L 231.789 204.285 L 224.599 206.783 L 217.409 209.281 L 209.259 212.474 L 201.11 215.668 L 194.879 218.351 L 188.647 221.035 L 186.879 222.065 L 185.11 223.095 L 187.05 229.238 L 188.989 235.381 L 193.706 248.803 L 198.423 262.225 L 204.232 276.606 L 210.042 290.987 L 213.016 297.458 L 215.99 303.93 L 216.757 303.93 L 217.524 303.93 L 223.698 301.432 Z M 448.558 290.559 L 447.901 281.023 L 446.505 270.186 L 445.109 259.349 L 444.062 252.159 L 443.014 244.968 L 440.271 233.463 L 437.527 221.959 L 435.248 215.248 L 432.969 208.537 L 429.636 206.939 L 426.303 205.341 L 415.155 201.961 L 404.006 198.582 L 389.802 195.708 L 375.598 192.835 L 366.49 191.849 L 357.382 190.863 L 345.638 190.209 L 333.894 189.554 L 333.894 190.198 L 333.894 190.841 L 337.149 199.21 L 340.405 207.578 L 345.21 221.959 L 350.015 236.34 L 352.428 244.489 L 354.84 252.638 L 357.866 264.622 L 360.891 276.606 L 361.324 278.175 L 361.757 279.745 L 368.198 280.415 L 374.639 281.085 L 389.5 283.897 L 404.36 286.71 L 417.303 290.045 L 430.246 293.38 L 438.874 296.634 L 447.503 299.887 L 448.359 299.991 L 449.215 300.095 L 448.558 290.559 Z M 93.91 254.645 L 105.238 247.065 L 108.593 244.939 L 111.949 242.812 L 121.536 237.04 L 131.123 231.268 L 146.463 222.994 L 161.803 214.72 L 163.96 214.161 L 166.117 213.602 L 166.117 211.416 L 166.117 209.23 L 163.652 200.734 L 161.186 192.238 L 159.233 184.568 L 157.28 176.899 L 154.975 166.832 L 152.671 156.765 L 151.288 151.493 L 149.905 146.22 L 148.788 137.591 L 147.671 128.962 L 146.62 128.298 L 145.569 127.634 L 144.578 128.452 L 143.587 129.271 L 139.289 130.988 L 134.991 132.705 L 121.073 140.271 L 107.155 147.837 L 101.403 151.327 L 95.651 154.817 L 87.981 160.013 L 80.311 165.209 L 71.683 171.785 L 63.054 178.361 L 59.938 181.055 L 56.822 183.749 L 56.822 185.385 L 56.822 187.02 L 59.244 199.216 L 61.666 211.413 L 64.146 221.959 L 66.627 232.505 L 69.458 242.571 L 72.289 252.638 L 73.624 256.473 L 74.958 260.308 L 75.965 263.028 L 76.972 265.748 L 79.776 263.986 L 82.581 262.225 L 93.91 254.645 Z M 182.943 206.281 L 183.853 205.464 L 193.92 201.631 L 203.987 197.798 L 212.615 194.869 L 221.244 191.94 L 227.475 189.967 L 233.707 187.994 L 241.856 185.96 L 250.005 183.926 L 261.51 181.612 L 273.015 179.298 L 281.747 177.927 L 290.479 176.555 L 299.806 175.87 L 309.133 175.186 L 309.583 174.011 L 310.034 172.837 L 305.772 163.363 L 301.51 153.889 L 297.702 146.699 L 293.895 139.508 L 290.911 134.477 L 287.927 129.445 L 282.261 121.055 L 276.596 112.664 L 270.668 105.18 L 264.741 97.696 L 263.372 97.171 L 262.004 96.646 L 249.094 98.123 L 236.183 99.6 L 226.316 101.703 L 216.45 103.805 L 204.18 107.117 L 191.91 110.429 L 181.171 114.126 L 170.431 117.824 L 164.441 120.083 L 158.452 122.343 L 157.593 123.256 L 156.735 124.169 L 158.915 134.715 L 161.096 145.261 L 163.665 154.848 L 166.234 164.435 L 168.01 170.188 L 169.785 175.94 L 174.778 191.519 L 179.771 207.099 L 180.902 207.099 L 182.032 207.099 L 182.943 206.281 Z M 25.664 197.416 L 28.54 193.321 L 34.629 185.684 L 40.718 178.047 L 40.025 161.414 L 39.332 144.781 L 38.12 144.781 L 36.908 144.781 L 35.448 147.897 L 33.988 151.013 L 30.001 160.6 L 26.014 170.188 L 25.149 172.105 L 24.284 174.022 L 22.236 182.172 L 20.187 190.321 L 18.924 197.481 L 17.661 204.642 L 18.221 205.548 L 18.781 206.455 L 20.784 203.983 L 22.788 201.511 L 25.664 197.416 Z M 426.887 191.04 L 426.884 190.321 L 424.048 183.361 L 421.212 176.401 L 416.395 166.366 L 411.579 156.331 L 403.992 143.605 L 396.405 130.88 L 389.357 121.189 L 382.309 111.498 L 376.942 105.607 L 371.574 99.715 L 361.602 98.341 L 351.63 96.967 L 337.001 95.468 L 322.372 93.969 L 303.206 93.969 L 284.04 93.969 L 284.04 95.174 L 284.04 96.379 L 289.112 103.563 L 294.184 110.747 L 301.072 121.658 L 307.96 132.569 L 315.123 147.064 L 322.287 161.559 L 325.106 167.908 L 327.926 174.258 L 337.381 174.913 L 346.836 175.569 L 358.716 176.98 L 370.595 178.391 L 371.18 178.752 L 371.764 179.113 L 382.907 181.108 L 394.05 183.103 L 406.395 186.402 L 418.741 189.701 L 421.138 190.669 L 423.534 191.638 L 425.212 191.698 L 426.89 191.759 L 426.887 191.04 Z M 62.355 160.84 L 68.64 155.807 L 76.393 150.374 L 84.146 144.942 L 98.696 136.196 L 113.246 127.45 L 127.937 120.145 L 142.628 112.84 L 143.643 112.068 L 144.659 111.295 L 142.959 97.599 L 141.26 83.902 L 139.799 68.083 L 138.337 52.264 L 138.325 45.85 L 138.313 39.435 L 137.298 38.808 L 136.283 38.18 L 132.265 40.808 L 128.247 43.435 L 122.578 47.274 L 116.908 51.113 L 115 52.648 L 113.093 54.182 L 103.315 62.524 L 93.538 70.866 L 84.142 80.74 L 74.746 90.613 L 68.361 98.283 L 61.977 105.953 L 56.864 112.576 L 51.751 119.198 L 51.867 130.792 L 51.983 142.385 L 53.019 151.013 L 54.055 159.642 L 54.523 162.758 L 54.991 165.873 L 55.531 165.873 L 56.071 165.873 L 62.355 160.84 Z M 425.931 104.471 L 425.931 103.468 L 417.063 94.617 L 408.195 85.767 L 399.087 78.988 L 389.979 72.209 L 387.103 70.575 L 384.227 68.942 L 378.954 65.75 L 373.681 62.559 L 366.97 59.194 L 360.259 55.828 L 354.986 53.385 L 349.713 50.942 L 343.002 48.394 L 336.291 45.846 L 328.621 43.398 L 320.951 40.949 L 313.281 39.086 L 305.611 37.223 L 301.023 35.845 L 296.435 34.467 L 285.683 33.073 L 274.932 31.679 L 261.031 30.229 L 247.129 28.78 L 240.319 28.778 L 233.509 28.776 L 227.616 29.392 L 221.723 30.008 L 221.723 31.275 L 221.723 32.543 L 223.88 33.679 L 226.037 34.815 L 226.517 35.393 L 226.996 35.971 L 232.748 40.274 L 238.501 44.577 L 248.636 54.822 L 258.771 65.067 L 265.284 72.668 L 271.797 80.269 L 293.977 80.833 L 316.157 81.398 L 327.183 82.445 L 338.208 83.492 L 346.357 84.888 L 354.506 86.284 L 356.663 86.883 L 358.821 87.482 L 358.821 86.288 L 358.821 85.093 L 355.407 81.315 L 351.994 77.537 L 352.292 75.447 L 352.591 73.356 L 355.065 73.515 L 357.539 73.673 L 361.805 76.391 L 366.071 79.109 L 372.068 83.831 L 378.065 88.554 L 390.254 92.736 L 402.443 96.918 L 406.375 98.231 L 410.308 99.544 L 414.525 101.381 L 418.741 103.217 L 421.138 104.28 L 423.534 105.344 L 424.733 105.409 L 425.931 105.474 L 425.931 104.471 Z" id="path573"/>
  </g>
</svg>