<?xml version="1.0" encoding="utf-8"?>
<svg width="288px" height="288px" viewBox="-16 0 288 288" version="1.1" preserveAspectRatio="xMidYMid" xmlns="http://www.w3.org/2000/svg">
  <g>
    <path d="M 255.778 83.022 C 255.776 78.192 254.743 73.924 252.654 70.261 C 250.602 66.659 247.529 63.64 243.407 61.253 C 209.382 41.634 175.324 22.075 141.31 2.436 C 132.14 -2.858 123.249 -2.665 114.147 2.705 C 100.604 10.692 32.799 49.539 12.594 61.242 C 4.273 66.059 0.224 73.431 0.222 83.013 C 0.209 122.468 0.222 161.922 0.209 201.378 C 0.209 206.102 1.2 210.287 3.197 213.895 C 5.25 217.606 8.366 220.708 12.583 223.149 C 32.789 234.852 100.603 273.696 114.143 281.685 C 123.249 287.058 132.14 287.25 141.313 281.954 C 175.328 262.314 209.388 242.756 243.418 223.137 C 247.635 220.697 250.751 217.593 252.804 213.885 C 254.798 210.277 255.791 206.092 255.791 201.367 C 255.791 201.367 255.791 122.478 255.778 83.022" fill-rule="nonzero" style="fill: rgb(127, 139, 153);"/>
    <path d="M 243.418 223.136 C 209.388 242.755 175.328 262.313 141.313 281.953 C 132.14 287.249 123.249 287.057 114.143 281.684 C 100.603 273.695 32.789 234.851 12.583 223.148 C 8.366 220.707 5.25 217.605 3.197 213.894 L 128.391 141.81 L 252.654 70.26 C 254.743 73.923 255.776 78.191 255.778 83.021 C 255.791 122.477 255.791 201.366 255.791 201.366 C 255.789 206.091 254.798 210.276 252.804 213.884 C 250.751 217.592 247.635 220.696 243.418 223.136 Z" fill-rule="nonzero" style="fill: rgb(169, 185, 203);"/>
    <path d="M 128.666 47.195 C 163.809 47.195 194.493 66.281 210.927 94.651 L 210.767 94.378 L 169.418 118.186 C 161.272 104.393 146.337 95.084 129.205 94.893 L 128.666 94.89 C 102.54 94.89 81.36 116.069 81.36 142.195 C 81.36 150.738 83.637 158.747 87.599 165.664 C 95.753 179.899 111.081 189.501 128.666 189.501 C 146.358 189.501 161.775 179.777 169.887 165.39 L 169.69 165.735 L 210.977 189.653 C 194.722 217.783 164.459 236.81 129.724 237.189 L 128.666 237.195 C 93.411 237.195 62.64 217.991 46.247 189.472 C 38.244 175.549 33.665 159.407 33.665 142.195 C 33.665 89.728 76.197 47.195 128.666 47.195 Z" fill="#FFFFFF" fill-rule="nonzero"/>
  </g>
</svg>