<?xml version="1.0" encoding="utf-8"?>
<svg viewBox="0 0 500 500" xmlns="http://www.w3.org/2000/svg">
  <path d="M 250 459.348 C 134.38 459.348 40.652 365.62 40.652 250 C 40.652 134.38 134.38 40.652 250 40.652 C 308.327 40.652 361.082 64.505 399.044 102.988 L 291.531 210.501 C 281.09 199.527 266.344 192.686 250 192.686 C 218.346 192.686 192.686 218.346 192.686 250 C 192.686 281.654 218.346 307.314 250 307.314 C 267.525 307.314 283.213 299.448 293.726 287.055 L 306.987 300.316 C 325.046 318.375 343.015 330.137 360.893 335.603 C 378.772 341.069 396.137 341.03 412.989 335.481 C 425.452 331.38 437.439 324.661 448.955 315.323 C 421.514 398.954 342.81 459.348 250 459.348 Z" style="fill: rgb(169, 185, 203);"/>
  <path d="M 409.017 149.395 L 432.14 172.518 C 442.348 182.726 449.568 192.529 453.802 201.928 C 457.191 210.814 459.408 219.999 458.376 229.696 C 457.849 234.246 456.677 238.74 454.862 243.177 C 450.388 254.11 442.801 264.927 432.101 275.627 C 421.257 286.471 410.405 294.093 399.542 298.497 C 388.679 302.898 377.472 303.389 365.917 299.966 C 354.364 296.545 342.127 288.374 329.206 275.453 L 307.211 253.457 C 307.258 252.679 307.289 251.895 307.303 251.109 L 409.017 149.395 Z" style="fill: rgb(0, 165, 235);"/>
</svg>