<?xml version="1.0" encoding="utf-8"?>
<svg width="361px" height="361px" viewBox="-52.5 0 361 361" version="1.1" preserveAspectRatio="xMidYMid" xmlns="http://www.w3.org/2000/svg">
  <g style="" transform="matrix(1.244591, 0, 0, 1.244591, -31.307644, -88.074402)">
    <path d="M127.843868,360.087912 L23.6617143,331.166242 L0.445186813,70.7657143 L255.554813,70.7657143 L232.31367,331.125451 L127.843868,360.087912 L127.843868,360.087912 Z" fill="#264DE4"/>
    <path d="M212.416703,314.546637 L232.277802,92.0573187 L128,92.0573187 L128,337.950242 L212.416703,314.546637 L212.416703,314.546637 Z" fill="#2965F1"/>
    <path d="M53.6685714,188.636132 L56.530989,220.572835 L128,220.572835 L128,188.636132 L53.6685714,188.636132 L53.6685714,188.636132 Z" fill="#EBEBEB"/>
    <path d="M47.917011,123.994725 L50.8202198,155.932132 L128,155.932132 L128,123.994725 L47.917011,123.994725 L47.917011,123.994725 Z" fill="#EBEBEB"/>
    <path d="M128,271.580132 L127.860044,271.617407 L92.2915165,262.013187 L90.0177582,236.54189 L57.957978,236.54189 L62.4323516,286.687648 L127.853011,304.848879 L128,304.808088 L128,271.580132 L128,271.580132 Z" fill="#EBEBEB"/>
    <path d="M202.126769,188.636132 L207.892396,123.994725 L127.889582,123.994725 L127.889582,155.932132 L172.892132,155.932132 L169.98611,188.636132 L127.889582,188.636132 L127.889582,220.572835 L167.216527,220.572835 L163.509451,261.992791 L127.889582,271.606857 L127.889582,304.833407 L193.362286,286.687648 L193.842637,281.291956 L201.347516,197.212132 L202.126769,188.636132 L202.126769,188.636132 Z" fill="#FFFFFF"/>
  </g>
</svg>