<?xml version="1.0" encoding="utf-8"?>
<svg viewBox="0 0 500 500" xmlns="http://www.w3.org/2000/svg">
  <path style="fill: rgb(0, 153, 43); stroke-width: 0.264583;" d="M 62.163 497.399 C 34.927 488.46 14.234 468.141 4.873 441.148 C 0.454 428.415 0.182 422.194 0.178 333.515 L 0.171 249.802 L 250.081 249.802 L 499.998 249.802 L 499.991 333.027 C 499.983 421.185 499.707 427.447 495.297 440.169 C 490.618 453.655 482.526 466.339 472.529 475.852 C 462.46 485.437 451.152 492.145 437.028 496.919 L 430.194 499.228 L 249.597 499.436 L 68.996 499.644 L 62.163 497.399 Z" id="path252"/>
  <path style="fill: rgb(0, 0, 0); stroke-width: 0.264583;" d="M 0.33699999999999997 162.676 C 0.6659999999999999 76.204 0.6849999999999999 75.486 2.847 67.251 C 11.173 35.537 35.634 11.064 67.447 2.632 L 75.746 0.42900000000000005 L 249.813 0.138 C 422.431 -0.15300000000000002 423.951 -0.138 432.364 1.85 C 450.116 6.037 467.23 16.805 479.725 31.644 C 486.63 39.853 494.125 54.74 497.152 66.276 C 499.314 74.511 499.333 75.21 499.666 162.189 L 499.998 249.802 L 249.998 249.802 L 0.001 249.802 L 0.33699999999999997 162.676 Z" id="path250"/>
  <path style="stroke-width: 0.264583; fill: rgb(255, 255, 255);" d="M 409.123 86.776 L 356.165 86.776 L 356.705 84.088 C 357 82.614 357.703 80.199 358.266 78.722 L 359.29 76.034 L 409.123 76.034 Z M 320.441 86.776 L 267.573 86.776 L 267.573 76.034 L 317.409 76.034 L 318.237 78.234 C 318.691 79.44 319.375 81.859 319.753 83.605 Z M 160.839 86.122 C 160.48 85.767 160.189 83.329 160.189 80.713 L 160.189 75.951 L 198.014 76.238 C 235.734 76.522 235.859 76.533 240.205 78.85 C 245.598 81.726 249.998 84.931 249.998 85.982 C 249.998 86.927 161.784 87.067 160.839 86.122 Z M 153.355 86.776 L 90.876 86.776 L 90.876 76.034 L 153.355 76.034 Z M 409.123 105.326 L 349.668 105.326 L 351.077 100.684 C 351.849 98.137 352.487 95.718 352.495 95.317 C 352.499 94.917 365.243 94.584 380.815 94.584 L 409.123 94.584 Z M 326.39 105.326 L 267.573 105.326 L 267.573 94.584 L 323.264 94.584 L 324.288 97.271 C 324.851 98.745 325.551 101.161 325.849 102.638 Z M 209.973 105.326 L 160.189 105.326 L 160.189 94.584 L 256.933 94.584 L 258.351 97.971 C 259.129 99.834 259.76 102.249 259.76 103.338 C 259.76 105.311 259.375 105.326 209.973 105.326 Z M 153.355 105.326 L 90.876 105.326 L 90.876 94.584 L 153.355 94.584 Z M 391.552 123.872 L 343.586 123.872 L 344.255 121.676 C 344.622 120.466 345.514 118.051 346.225 116.305 L 347.525 113.134 L 391.552 113.134 Z M 332.86 123.872 L 285.144 123.872 L 285.144 113.096 L 307.261 113.361 L 329.379 113.622 L 331.122 118.747 Z M 259.518 123.872 L 231.353 123.872 L 231.943 113.622 L 246.339 113.353 L 260.739 113.081 L 260.739 115.425 C 260.739 116.713 260.463 119.144 260.127 120.822 Z M 206.174 123.872 L 178.739 123.872 L 178.739 113.081 L 192.16 113.35 L 205.585 113.622 L 205.879 118.747 Z M 134.809 123.872 L 107.374 123.872 L 107.665 118.747 L 107.959 113.622 L 121.38 113.35 L 134.809 113.081 Z M 311.502 142.418 L 285.144 142.418 L 285.144 131.65 L 310.255 131.907 L 335.366 132.172 L 336.889 136.303 L 338.416 140.437 L 339.849 136.303 L 341.277 132.172 L 366.415 131.907 L 391.552 131.65 L 391.552 142.418 L 378.373 142.418 C 365.375 142.418 365.194 142.391 365.13 140.226 L 365.073 138.026 L 364.185 140.226 L 363.304 142.418 L 313.615 142.418 L 312.64 139.734 L 311.657 137.051 L 311.578 139.734 Z M 247.896 142.418 L 178.739 142.418 L 178.739 131.684 L 216.81 131.684 C 247.692 131.684 254.881 131.926 254.881 132.969 C 254.881 133.68 253.309 136.095 251.389 138.34 Z M 134.809 142.418 L 107.374 142.418 L 107.665 137.297 L 107.959 132.172 L 121.38 131.896 L 134.809 131.627 Z M 391.552 161.947 L 365.194 161.947 L 365.194 151.205 L 391.552 151.205 Z M 357.2 161.947 L 320.187 161.947 L 318.891 158.772 C 318.177 157.026 317.292 154.611 316.922 153.405 L 316.249 151.205 L 338.28 151.205 C 350.397 151.205 360.311 151.568 360.311 152.01 C 360.311 152.449 359.612 154.864 358.757 157.377 Z M 311.502 161.947 L 285.144 161.947 L 285.144 151.205 L 311.502 151.205 Z M 217.297 161.947 L 178.739 161.947 L 178.739 151.205 L 247.896 151.205 L 251.869 155.843 C 254.057 158.394 255.849 160.809 255.852 161.21 C 255.856 161.614 238.504 161.947 217.297 161.947 Z M 134.809 161.947 L 121.792 161.947 C 114.63 161.947 108.485 161.652 108.126 161.293 C 107.767 160.934 107.472 158.519 107.472 155.922 L 107.472 151.205 L 134.809 151.205 Z M 391.552 180.493 L 365.194 180.493 L 365.194 169.751 L 391.552 169.751 Z M 351.342 180.493 L 325.479 180.493 L 324.281 176.487 C 323.619 174.283 322.844 171.868 322.557 171.12 C 322.123 169.986 324.768 169.751 338.246 169.751 C 347.158 169.751 354.456 170.114 354.456 170.557 C 354.456 170.995 353.757 173.414 352.899 175.927 Z M 311.502 180.493 L 285.144 180.493 L 285.144 169.751 L 311.502 169.751 Z M 261.665 180.493 L 232.431 180.493 L 232.431 169.751 L 246.078 169.751 C 261.344 169.751 259.749 168.95 261.14 177.322 Z M 206.072 180.493 L 178.739 180.493 L 178.739 169.751 L 206.072 169.751 Z M 134.809 180.493 L 107.472 180.493 L 107.472 169.751 L 134.809 169.751 Z M 409.123 199.043 L 365.194 199.043 L 365.194 188.301 L 409.123 188.301 Z M 345.363 199.043 L 331.348 199.043 L 329.855 193.672 L 328.359 188.301 L 338.582 188.301 C 346.931 188.301 348.712 188.551 348.284 189.666 C 347.997 190.414 347.222 192.833 346.561 195.033 Z M 311.502 199.043 L 267.573 199.043 L 267.573 188.301 L 311.502 188.301 Z M 256.933 199.043 L 160.189 199.043 L 160.189 188.301 L 209.973 188.301 C 259.375 188.301 259.76 188.32 259.76 190.286 C 259.76 191.378 259.129 193.793 258.351 195.653 Z M 153.355 199.043 L 90.876 199.043 L 90.876 188.301 L 153.355 188.301 Z M 409.123 217.589 L 365.194 217.589 L 365.194 206.851 L 409.123 206.851 Z M 338.658 217.589 C 337.724 217.589 336.061 213.688 335.226 209.535 C 334.705 206.946 334.833 206.851 338.82 206.851 C 341.954 206.851 342.823 207.18 342.43 208.212 C 342.139 208.964 341.364 211.379 340.706 213.583 C 340.045 215.786 339.123 217.589 338.658 217.589 Z M 311.502 217.589 L 267.573 217.589 L 267.573 206.851 L 311.502 206.851 Z M 196.737 217.589 L 160.087 217.589 L 160.381 212.464 L 160.676 207.339 L 205.339 207.086 C 233.375 206.927 249.998 207.18 249.998 207.766 C 249.998 209.338 243.565 213.719 238.334 215.707 C 233.765 217.445 230.556 217.589 196.737 217.589 Z M 153.457 217.589 L 90.876 217.589 L 90.876 206.821 L 121.872 207.082 L 152.864 207.339 L 153.163 212.464 Z" id="path250"/>
  <path d="M 137.217 413.206 L 137.217 306.565 L 165.416 306.565 Q 184.092 306.565 195.189 318.431 Q 206.285 330.296 206.504 350.95 L 206.504 368.235 Q 206.504 389.256 195.408 401.231 Q 184.312 413.206 164.83 413.206 Z M 158.751 324.51 L 158.751 395.335 L 165.196 395.335 Q 175.962 395.335 180.357 389.659 Q 184.752 383.982 184.971 370.066 L 184.971 351.536 Q 184.971 336.595 180.796 330.699 Q 176.622 324.803 166.587 324.51 Z M 221.946 413.206 L 221.946 306.565 L 254.905 306.565 Q 271.604 306.565 280.283 313.999 Q 288.962 321.434 288.962 335.789 Q 288.962 343.919 285.373 349.778 Q 281.785 355.638 275.559 358.348 Q 282.737 360.398 286.619 366.587 Q 290.5 372.776 290.5 381.858 Q 290.5 397.386 281.968 405.296 Q 273.435 413.206 257.248 413.206 Z M 243.479 366.844 L 243.479 395.335 L 257.248 395.335 Q 263.035 395.335 266.038 391.746 Q 269.04 388.157 269.04 381.565 Q 269.04 367.21 258.64 366.844 Z M 243.479 351.17 L 254.685 351.17 Q 267.356 351.17 267.356 338.06 Q 267.356 330.809 264.426 327.659 Q 261.497 324.51 254.905 324.51 L 243.479 324.51 Z M 367.335 413.206 L 304.493 413.206 L 304.493 398.558 L 333.351 361.863 Q 338.844 354.246 341.444 348.497 Q 344.044 342.747 344.044 337.474 Q 344.044 330.369 341.59 326.341 Q 339.137 322.312 334.522 322.312 Q 329.469 322.312 326.502 327 Q 323.536 331.687 323.536 340.184 L 302.735 340.184 Q 302.735 330.369 306.8 322.239 Q 310.865 314.109 318.226 309.605 Q 325.587 305.101 334.889 305.101 Q 349.171 305.101 357.044 312.974 Q 364.918 320.848 364.918 335.35 Q 364.918 344.358 360.56 353.624 Q 356.202 362.889 344.776 376.438 L 331.08 395.994 L 367.335 395.994 Z" style="fill: rgb(255, 255, 255); white-space: pre;"/>
</svg>