<?xml version="1.0" encoding="utf-8"?>
<svg viewBox="0 0 500 500" xmlns="http://www.w3.org/2000/svg">
  <path style="stroke-width: 0.264583; fill: rgb(153, 46, 0);" d="M 62.079 497.399 C 34.843 488.46 14.15 468.141 4.789 441.148 C 0.37 428.415 0.098 422.194 0.094 333.515 L 0.087 249.802 L 249.997 249.802 L 499.914 249.802 L 499.907 333.027 C 499.899 421.185 499.623 427.447 495.213 440.169 C 490.534 453.655 482.442 466.339 472.445 475.852 C 462.376 485.437 451.068 492.145 436.944 496.919 L 430.11 499.228 L 249.513 499.436 L 68.912 499.644 L 62.079 497.399 Z" id="path252"/>
  <path style="fill: rgb(0, 0, 0); stroke-width: 0.264583;" d="M 0.33699999999999997 162.676 C 0.6659999999999999 76.204 0.6849999999999999 75.486 2.847 67.251 C 11.173 35.537 35.634 11.064 67.447 2.632 L 75.746 0.42900000000000005 L 249.813 0.138 C 422.431 -0.15300000000000002 423.951 -0.138 432.364 1.85 C 450.116 6.037 467.23 16.805 479.725 31.644 C 486.63 39.853 494.125 54.74 497.152 66.276 C 499.314 74.511 499.333 75.21 499.666 162.189 L 499.998 249.802 L 249.998 249.802 L 0.001 249.802 L 0.33699999999999997 162.676 Z" id="path250"/>
  <path style="stroke-width: 0.264583; fill: rgb(255, 255, 255);" d="M 409.123 86.776 L 356.165 86.776 L 356.705 84.088 C 357 82.614 357.703 80.199 358.266 78.722 L 359.29 76.034 L 409.123 76.034 Z M 320.441 86.776 L 267.573 86.776 L 267.573 76.034 L 317.409 76.034 L 318.237 78.234 C 318.691 79.44 319.375 81.859 319.753 83.605 Z M 160.839 86.122 C 160.48 85.767 160.189 83.329 160.189 80.713 L 160.189 75.951 L 198.014 76.238 C 235.734 76.522 235.859 76.533 240.205 78.85 C 245.598 81.726 249.998 84.931 249.998 85.982 C 249.998 86.927 161.784 87.067 160.839 86.122 Z M 153.355 86.776 L 90.876 86.776 L 90.876 76.034 L 153.355 76.034 Z M 409.123 105.326 L 349.668 105.326 L 351.077 100.684 C 351.849 98.137 352.487 95.718 352.495 95.317 C 352.499 94.917 365.243 94.584 380.815 94.584 L 409.123 94.584 Z M 326.39 105.326 L 267.573 105.326 L 267.573 94.584 L 323.264 94.584 L 324.288 97.271 C 324.851 98.745 325.551 101.161 325.849 102.638 Z M 209.973 105.326 L 160.189 105.326 L 160.189 94.584 L 256.933 94.584 L 258.351 97.971 C 259.129 99.834 259.76 102.249 259.76 103.338 C 259.76 105.311 259.375 105.326 209.973 105.326 Z M 153.355 105.326 L 90.876 105.326 L 90.876 94.584 L 153.355 94.584 Z M 391.552 123.872 L 343.586 123.872 L 344.255 121.676 C 344.622 120.466 345.514 118.051 346.225 116.305 L 347.525 113.134 L 391.552 113.134 Z M 332.86 123.872 L 285.144 123.872 L 285.144 113.096 L 307.261 113.361 L 329.379 113.622 L 331.122 118.747 Z M 259.518 123.872 L 231.353 123.872 L 231.943 113.622 L 246.339 113.353 L 260.739 113.081 L 260.739 115.425 C 260.739 116.713 260.463 119.144 260.127 120.822 Z M 206.174 123.872 L 178.739 123.872 L 178.739 113.081 L 192.16 113.35 L 205.585 113.622 L 205.879 118.747 Z M 134.809 123.872 L 107.374 123.872 L 107.665 118.747 L 107.959 113.622 L 121.38 113.35 L 134.809 113.081 Z M 311.502 142.418 L 285.144 142.418 L 285.144 131.65 L 310.255 131.907 L 335.366 132.172 L 336.889 136.303 L 338.416 140.437 L 339.849 136.303 L 341.277 132.172 L 366.415 131.907 L 391.552 131.65 L 391.552 142.418 L 378.373 142.418 C 365.375 142.418 365.194 142.391 365.13 140.226 L 365.073 138.026 L 364.185 140.226 L 363.304 142.418 L 313.615 142.418 L 312.64 139.734 L 311.657 137.051 L 311.578 139.734 Z M 247.896 142.418 L 178.739 142.418 L 178.739 131.684 L 216.81 131.684 C 247.692 131.684 254.881 131.926 254.881 132.969 C 254.881 133.68 253.309 136.095 251.389 138.34 Z M 134.809 142.418 L 107.374 142.418 L 107.665 137.297 L 107.959 132.172 L 121.38 131.896 L 134.809 131.627 Z M 391.552 161.947 L 365.194 161.947 L 365.194 151.205 L 391.552 151.205 Z M 357.2 161.947 L 320.187 161.947 L 318.891 158.772 C 318.177 157.026 317.292 154.611 316.922 153.405 L 316.249 151.205 L 338.28 151.205 C 350.397 151.205 360.311 151.568 360.311 152.01 C 360.311 152.449 359.612 154.864 358.757 157.377 Z M 311.502 161.947 L 285.144 161.947 L 285.144 151.205 L 311.502 151.205 Z M 217.297 161.947 L 178.739 161.947 L 178.739 151.205 L 247.896 151.205 L 251.869 155.843 C 254.057 158.394 255.849 160.809 255.852 161.21 C 255.856 161.614 238.504 161.947 217.297 161.947 Z M 134.809 161.947 L 121.792 161.947 C 114.63 161.947 108.485 161.652 108.126 161.293 C 107.767 160.934 107.472 158.519 107.472 155.922 L 107.472 151.205 L 134.809 151.205 Z M 391.552 180.493 L 365.194 180.493 L 365.194 169.751 L 391.552 169.751 Z M 351.342 180.493 L 325.479 180.493 L 324.281 176.487 C 323.619 174.283 322.844 171.868 322.557 171.12 C 322.123 169.986 324.768 169.751 338.246 169.751 C 347.158 169.751 354.456 170.114 354.456 170.557 C 354.456 170.995 353.757 173.414 352.899 175.927 Z M 311.502 180.493 L 285.144 180.493 L 285.144 169.751 L 311.502 169.751 Z M 261.665 180.493 L 232.431 180.493 L 232.431 169.751 L 246.078 169.751 C 261.344 169.751 259.749 168.95 261.14 177.322 Z M 206.072 180.493 L 178.739 180.493 L 178.739 169.751 L 206.072 169.751 Z M 134.809 180.493 L 107.472 180.493 L 107.472 169.751 L 134.809 169.751 Z M 409.123 199.043 L 365.194 199.043 L 365.194 188.301 L 409.123 188.301 Z M 345.363 199.043 L 331.348 199.043 L 329.855 193.672 L 328.359 188.301 L 338.582 188.301 C 346.931 188.301 348.712 188.551 348.284 189.666 C 347.997 190.414 347.222 192.833 346.561 195.033 Z M 311.502 199.043 L 267.573 199.043 L 267.573 188.301 L 311.502 188.301 Z M 256.933 199.043 L 160.189 199.043 L 160.189 188.301 L 209.973 188.301 C 259.375 188.301 259.76 188.32 259.76 190.286 C 259.76 191.378 259.129 193.793 258.351 195.653 Z M 153.355 199.043 L 90.876 199.043 L 90.876 188.301 L 153.355 188.301 Z M 409.123 217.589 L 365.194 217.589 L 365.194 206.851 L 409.123 206.851 Z M 338.658 217.589 C 337.724 217.589 336.061 213.688 335.226 209.535 C 334.705 206.946 334.833 206.851 338.82 206.851 C 341.954 206.851 342.823 207.18 342.43 208.212 C 342.139 208.964 341.364 211.379 340.706 213.583 C 340.045 215.786 339.123 217.589 338.658 217.589 Z M 311.502 217.589 L 267.573 217.589 L 267.573 206.851 L 311.502 206.851 Z M 196.737 217.589 L 160.087 217.589 L 160.381 212.464 L 160.676 207.339 L 205.339 207.086 C 233.375 206.927 249.998 207.18 249.998 207.766 C 249.998 209.338 243.565 213.719 238.334 215.707 C 233.765 217.445 230.556 217.589 196.737 217.589 Z M 153.457 217.589 L 90.876 217.589 L 90.876 206.821 L 121.872 207.082 L 152.864 207.339 L 153.163 212.464 Z" id="path250"/>
  <path d="M 143.418 413.043 L 143.418 306.402 L 171.617 306.402 Q 190.293 306.402 201.39 318.268 Q 212.486 330.133 212.705 350.787 L 212.705 368.072 Q 212.705 389.093 201.609 401.068 Q 190.513 413.043 171.031 413.043 Z M 164.952 324.347 L 164.952 395.172 L 171.397 395.172 Q 182.163 395.172 186.558 389.496 Q 190.952 383.819 191.172 369.903 L 191.172 351.373 Q 191.172 336.432 186.997 330.536 Q 182.823 324.64 172.788 324.347 Z M 249.674 395.172 L 287.467 395.172 L 287.467 413.043 L 228.141 413.043 L 228.141 306.402 L 249.674 306.402 Z M 306.451 422.198 L 291.29 422.198 L 323.297 306.402 L 338.458 306.402 Z M 372.068 413.043 L 350.535 413.043 L 350.535 306.402 L 372.068 306.402 Z" style="fill: rgb(255, 255, 255); white-space: pre;"/>
</svg>