<?xml version="1.0" encoding="utf-8"?>
<svg id="handshake" viewBox="0 0 64 64" preserveAspectRatio="xMidYMid meet" xmlns="http://www.w3.org/2000/svg">
  <path d="M 56.3 33.4 C 60.158 33.06 63.319 14.575 55.1 15.3 L 46.8 20.4 C 42.7 19.7 41.6 19.7 38.4 18.2 C 36.5 17.3 34.1 17.9 32.9 18.6 C 31.1 16.7 19.4 19.5 18.1 20.1 C 14.6 19 9.4 15 9.4 15 C -0.511 15.242 2.947 35.513 7.6 35.4 L 10 36 C 10.2 36.7 10.8 38.4 10.8 38.4 C 8.6 41.2 11.2 44.5 13.7 43.4 C 12.6 46.2 15.5 48.8 17.8 47 C 17.5 49.6 20.2 51.5 22.2 49.7 C 21.3 52.8 24.8 55.1 26.9 52.6 C 28.4 53.6 29.8 54.4 31 54.8 C 33.1 55.7 35.4 53.7 35 51.2 C 37.4 54 41 51.3 40.2 48.2 C 42.9 50.3 46.2 46.8 44.5 43.7 C 47.5 45.4 50.1 40.8 47.2 37.8 L 56.3 33.4" style="fill: rgb(255, 215, 112);"/>
  <g fill="#eba352">
    <path d="M13.9 36.3c1.5.7 2.5 3 .9 5l-.7.8c-.8 1-1.6 1.3-2.4 1.3c.6.3 1.3.3 2 0c.1-.3.3-.7.6-1l.7-.8c.4-.5.9-.9 1.3-1.1c.8-2.1-.6-4.1-2.4-4.2" style="fill: rgb(255, 196, 41);"/>
    <path d="M25.3 46.2c1.6.4 2.8 2.5 1.6 4.8l-.6.9c-.6 1.1-1.4 1.6-2.2 1.7c1.1.3 2.3-.1 3.1-1.6l.6-.9c1.5-2.8-.4-5.1-2.5-4.9" style="fill: rgb(255, 196, 41);"/>
    <path d="M18.3 45.4l1.6-2.5c-.1-1.4-1.3-2.6-2.5-2.7c1.5.7 2.5 3 .9 5l-.7.8c-.8 1-1.6 1.3-2.5 1.3c.8.4 1.7.3 2.6-.3c.1-.5.3-1.1.6-1.6" style="fill: rgb(255, 196, 41);"/>
    <path d="M22.6 40.9c1.6.5 2.7 2.7 1.3 4.9l-1.9 3c-.7 1.1-1.5 1.5-2.3 1.5c1 .3 2.3 0 3.2-1.4l1.9-3c1.6-2.6-.2-5.1-2.2-5" style="fill: rgb(255, 196, 41);"/>
    <path d="M35.9 43.4c.1 0 1.3-.2 1.7-.2c-1.5-1.5-3.9-.3-5.3-1.1c1 1.7 3.1 1.3 3.3 1.3l2.4 3.1c2 2.5.4 5.4-1.7 5.7c2.2.7 4.4-1.6 3.7-4.1c-.1-.1-4.1-4.7-4.1-4.7" style="fill: rgb(255, 196, 41);"/>
    <path d="M38.3 37.6s1.5-.3 2.8-.3c-1.5-1.2-3.8-.1-5.3-1.1c.6 1.3 1.9 1.3 2.3 1.4l4.6 5.3c2.1 2.4.6 5.3-1.5 5.8c2.4.7 4.7-2.4 3.2-5.1c-1-.4-6.1-6-6.1-6" style="fill: rgb(255, 196, 41);"/>
    <path d="M35.1 49.1c-1.5-1.2-3.6-.3-4.5-.9c.5 1.4 2.4 1.1 2.5 1.1c1.7 2.6-.1 5.3-2.2 5.5c2.1.9 4.4-1.1 4-3.6c-.1-.1-1.5-1.9-1.5-1.9c.2-.1 1.3-.2 1.7-.2" style="fill: rgb(255, 196, 41);"/>
    <path d="M 55.033 32.937 C 55.033 32.937 53.5 35.2 46.9 37.1 C 46 36 44.1 33.8 41.9 31.9 C 43.3 31.6 44 30.5 45.1 30.3 C 44.7 29.9 43.3 30.1 42.2 30.5 C 40.2 31.2 35.6 28 35.6 28 L 31.8 28.5 C 29.1 31.1 23.3 32.5 23 28.5 C 22.8 25.7 28.9 23.8 30.8 22 C 33.2 19.7 35.3 16.8 39.2 18.8 C 42.4 20.4 43.7 20.3 48.1 21.1 C 49.6 21.4 50.6 22.1 51.7 23.6 C 50.8 21.5 49.5 20.6 47.9 20.3 L 54.9 17 C 57.137 15.882 55.83 14.885 55 15.3 L 46.7 20 C 42.9 19.4 41.5 19.4 38.4 17.9 C 36.4 16.9 34.8 17.2 33.5 18 C 31.1 16.6 29.7 16.9 28.8 17.1 C 26 18 21.5 18.1 17.5 19.7 C 17.881 20.474 18.883 20.13 19.4 20.1 C 23.3 18.9 27.4 19 29.3 18.3 C 29.9 18.1 31.1 18.1 32.4 18.8 C 31.6 19.5 30.9 20.3 30.1 21.1 C 28.2 22.9 22.4 25.5 22.8 28.8 C 23 30.4 25.2 34.6 32.5 29.9 L 35.6 29.5 C 35.6 29.5 41.3 32.2 46.6 38.4 C 48.7 40.8 47.4 43.4 45.3 44 C 48 44.5 50.3 40.7 47.7 38.1 L 54 34.7 C 59.033 32.401 58.806 31.115 56.939 31.968" style="fill: rgb(255, 196, 41);"/>
  </g>
  <path d="M 11.1 38 C 10.6 36.8 10.3 35.2 10.3 35.2 L 7.8 33.5 C 6.336 33.275 5.138 35.021 7.6 35.4 L 9.8 36 C 10.1 37 10.4 37.8 10.8 38.4 L 11.1 38" fill="#eba352"/>
</svg>