<?xml version="1.0" encoding="utf-8"?>
<svg version="1.1" id="Layer_1" x="0px" y="0px" viewBox="0 0 280.098 280.098" style="enable-background:new 0 0 280.098 280.098;" xmlns="http://www.w3.org/2000/svg">
  <path style="fill: rgb(167, 218, 242);" d="M 0.031 0.07 L 69.784 26.323 L 140.097 0.07 L 210.06 26.323 L 280.067 0.07 L 280.067 253.845 L 209.885 280.098 L 139.834 253.845 L 69.906 280.098 L 0.039 253.845 L 0.039 0.07 L 0.031 0.07 Z"/>
  <polygon style="fill: rgb(109, 192, 233);" points="70.037 279.984 139.834 253.784 140.044 253.862 140.044 0.026 70.037 26.165"/>
  <polygon style="fill: rgb(109, 192, 233);" points="210.06 26.261 210.06 279.966 280.067 253.784 280.067 0.009"/>
  <path style="fill: rgb(255, 215, 112);" d="M 210.06 26.261 L 140.097 0.009 L 113.17 10.055 C 67.849 62.245 84.773 106.113 144.848 160.535 C 195.524 206.433 247.907 233.298 280.057 210.021 L 280.057 0 C 280.058 0 210.06 26.261 210.06 26.261 Z"/>
  <path style="fill: rgb(148, 209, 146);" d="M 280.067 0.009 L 210.06 26.261 L 140.097 0.009 L 140.001 0.044 C 77.634 52.908 108.192 83.151 162.683 133.311 C 206.691 173.836 241.922 197.367 280.067 175.035 C 279.673 157.568 280.067 0.105 280.067 0.009 Z"/>
  <path style="fill: rgb(255, 196, 41);" d="M 210.06 26.261 L 210.06 207.01 C 237.223 220.303 261.883 223.199 280.067 210.029 L 280.067 0.009 L 210.06 26.261 Z"/>
  <path style="fill: rgb(255, 196, 41);" d="M 140.044 0.026 L 125.308 5.53 L 113.171 10.063 C 69.11 60.792 84.004 103.688 140.045 156.027 C 140.044 156.028 140.044 0.026 140.044 0.026 Z"/>
  <path style="fill: rgb(73, 178, 118);" d="M 280.067 0.009 L 210.06 26.261 L 210.06 170.746 C 234.116 185.097 256.545 188.799 280.067 175.025 C 279.673 157.568 280.067 0.105 280.067 0.009 Z"/>
  <path style="fill: rgb(73, 178, 118);" d="M 140.044 0.026 L 140.018 0.035 L 140 0.044 C 86.97 44.988 101.137 73.586 140.044 111.967 C 140.044 111.967 140.044 0.026 140.044 0.026 Z"/>
</svg>