<?xml version="1.0" encoding="utf-8"?>
<svg width="512px" height="512px" viewBox="0 -188 512 512" version="1.1" preserveAspectRatio="xMidYMid" xmlns="http://www.w3.org/2000/svg">
  <defs>
    <linearGradient x1="-6.23403678%" y1="45.3743385%" x2="103.067956%" y2="58.9748052%" id="linearGradient-1">
      <stop stop-color="#8AC443" offset="0"/>
      <stop stop-color="#75B843" offset="1"/>
    </linearGradient>
    <linearGradient x1="-10.8014097%" y1="43.5382718%" x2="110.995972%" y2="56.9855979%" id="linearGradient-2">
      <stop stop-color="#75B843" offset="0"/>
      <stop stop-color="#4B9744" offset="1"/>
    </linearGradient>
    <linearGradient x1="108.510176%" y1="41.4577814%" x2="-3.27400939%" y2="65.7469648%" id="linearGradient-3">
      <stop stop-color="#C1DB74" offset="0"/>
      <stop stop-color="#ACD259" offset="1"/>
    </linearGradient>
    <linearGradient x1="129.072624%" y1="38.3860312%" x2="-25.4126581%" y2="61.9185176%" id="linearGradient-4">
      <stop stop-color="#ACD259" offset="0"/>
      <stop stop-color="#8AC443" offset="1"/>
    </linearGradient>
  </defs>
  <g style="" transform="matrix(3.629033, 0, 0, 3.629033, -1345.702026, -180.740875)">
    <path d="M377.4,54.3 C378.7,55.8 403.4,64 411.9,74 C420.5,84 424.2,92.9 423,101.5 C421.8,110.1 416.5,109.9 414.3,113.1 C412,116.2 408.8,120.1 402.8,119.7 C394.8,119.2 386.6,115.2 380.7,101.4 C374.8,87.6 375.2,74.6 375.7,67.4 C376.1,60.1 377.4,54.3 377.4,54.3 L377.4,54.3 Z" fill="url(#linearGradient-1)"/>
    <path d="M378.1,56.6 L415.1,111.8 L413.4,113.7 L378.1,56.6 Z" fill="url(#linearGradient-2)"/>
    <path d="M 372.166 134.358 C 366.997 122.303 377.9 140.1 384.1 124.4 C 384.2 125.4 383 127.2 384.7 127 C 396.9 121.5 417.7 109.7 421.4 106.6 C 425.4 103.2 430.8 103.3 436 102.1 C 445.5 99.9 455.6 97.7 463.8 92.9 C 468.9 96.4 479.5 98.2 485.1 96.9 C 491 95.6 500.2 85.8 505.1 82.3 C 507 80.9 509.9 78.3 511.9 79.8 C 510.5 80.8 512.1 83.6 510.4 83.1 C 509.5 81.4 507.7 83.4 506.4 83 C 501.5 87.1 496.3 90.9 491.3 94.8 C 488.9 96.2 493.6 97.7 490.8 98.2 C 477.8 100.8 457.9 94.3 449.7 103.3 C 436.7 107.8 424.4 108.9 411.6 115.8 C 404.2 119.8 395.2 127 387.5 130.8 C 386.2 131.4 384.3 131.7 382.8 132.6 C 380.9 133.7 380.5 135.2 378.9 135.5 C 375 136.3 374.234 139.18 372.166 134.358 Z" fill="#3D3D3C"/>
    <path d="M472.6,0 C470.9,2.8 431.7,23 420,41.9 C408.2,60.9 404.9,75.8 409.2,89.8 C413.5,103.8 421.6,103.2 426.2,107.8 C430.8,112.4 437.1,118 447.2,115.8 C460.4,112.8 473.1,104 479.4,79.4 C485.7,54.8 481.6,33.2 478.9,21.3 C476.2,9.4 472.6,0 472.6,0 L472.6,0 L472.6,0 Z" fill="url(#linearGradient-3)"/>
    <path d="M471.9,4.2 L424.4,106 L427.2,108.8 L471.9,4.2 Z" fill="url(#linearGradient-4)"/>
  </g>
</svg>