	<svg id="character" viewBox="0 0 256 256" aria-hidden="true" role="img" preserveAspectRatio="xMidYMid meet" xmlns="http://www.w3.org/2000/svg">
		<defs>
		  <filter id="drop-shadow-filter-0" color-interpolation-filters="sRGB" x="-500%" y="-500%" width="1000%" height="1000%">
			<feGaussianBlur in="SourceAlpha" stdDeviation="0"></feGaussianBlur>
			<feOffset dx="0" dy="1"></feOffset>
			<feComponentTransfer result="offsetblur">
			  <feFuncA id="spread-ctrl" type="linear" slope="1"></feFuncA>
			</feComponentTransfer>
			<feFlood flood-color="rgba(0,0,0,0.3)"></feFlood>
			<feComposite in2="offsetblur" operator="in"></feComposite>
			<feMerge>
			  <feMergeNode></feMergeNode>
			  <feMergeNode in="SourceGraphic"></feMergeNode>
			</feMerge>
		  </filter>
		</defs>
		<g transform="matrix(1, 0, 0, 1, -1.370504, -8.022144)">
		  <line style="fill: rgb(216, 216, 216); stroke-linecap: round; stroke-width: 4px; stroke: rgb(109, 192, 233);" x1="37.392" y1="69.859" x2="112.392" y2="69.859"></line>
		  <line style="fill: rgb(216, 216, 216); stroke-linecap: round; stroke-width: 4px; stroke: rgb(109, 192, 233);" x1="59.802" y1="79.76" x2="134.802" y2="79.76"></line>
		  <line style="fill: rgb(216, 216, 216); stroke-linecap: round; stroke-width: 4px; stroke: rgb(109, 192, 233);" x1="150.8" y1="53.722" x2="225.8" y2="53.722"></line>
		  <line style="fill: rgb(216, 216, 216); stroke-linecap: round; stroke-width: 4px; stroke: rgb(109, 192, 233);" x1="159.845" y1="128.274" x2="234.845" y2="128.274"></line>
		  <line style="fill: rgb(216, 216, 216); stroke-linecap: round; stroke-width: 4px; stroke: rgb(109, 192, 233);" x1="23.622" y1="150.749" x2="98.622" y2="150.749"></line>
		  <line style="fill: rgb(216, 216, 216); stroke-linecap: round; stroke-width: 4px; stroke: rgb(109, 192, 233);" x1="119.279" y1="115.118" x2="194.279" y2="115.118"></line>
		  <line style="fill: rgb(216, 216, 216); stroke-linecap: round; stroke-width: 4px; stroke: rgb(109, 192, 233);" x1="131.613" y1="165.276" x2="206.613" y2="165.276"></line>
		  <line style="fill: rgb(216, 216, 216); stroke-linecap: round; stroke-width: 4px; stroke: rgb(109, 192, 233);" x1="45.275" y1="98.337" x2="120.275" y2="98.337"></line>
		  <line style="fill: rgb(216, 216, 216); stroke-linecap: round; stroke-width: 4px; stroke: rgb(109, 192, 233);" x1="160.119" y1="71.202" x2="235.119" y2="71.202"></line>
		</g>
		<g style="" transform="matrix(1.107033, 0, 0, 1.107033, 27.213852, 16.409784)">
		  <path d="M 139.502 33.77 L 42.586 33.77 C 40.368 33.77 38.561 35.574 38.561 37.795 L 38.561 104.354 C 38.561 106.573 40.368 108.377 42.586 108.377 L 139.502 108.377 C 141.719 108.377 143.522 106.573 143.522 104.354 L 143.522 37.795 C 143.522 35.574 141.731 33.77 139.502 33.77 Z" fill="#b7d5e5"></path>
		  <path d="M 138.055 101.281 L 44.031 101.281 L 45.141 40.865 L 136.945 40.865 L 138.055 101.281 Z" fill="url(#IconifyId17ecdb2904d178eab9910)"></path>
		  <path d="M 156.941 148.23 L 25.756 148.23 C 25.261 148.23 24.794 148.195 24.368 148.127 C 21.04 147.617 19.504 143.295 21.48 140.338 L 21.93 139.656 L 160.153 139.656 L 160.618 140.349 C 162.768 143.562 160.755 148.162 157.101 148.218 C 157.056 148.23 156.998 148.23 156.941 148.23 Z" fill="#2f7889"></path>
		  <path d="M 140.471 109.617 L 40.795 109.617 C 39.325 109.617 37.856 110.504 37.037 111.914 L 20.859 141.363 C 20.174 142.382 20.843 143.814 22.002 143.814 L 160.075 143.814 C 161.228 143.814 161.898 142.382 161.22 141.363 L 144.216 111.742 C 143.407 110.492 141.94 109.617 140.471 109.617 Z" fill="#eee"></path>
		  <path fill="#b7d5e5" d="M 116.801 138.637 L 65.298 138.637 L 68.59 129.413 L 113.747 129.413 L 116.801 138.637 Z"></path>
		  <path fill="#b7d5e5" d="M 143.636 127.418 L 37.008 127.418 L 43.827 111.541 L 137.316 111.541 L 143.636 127.418 Z" style=""></path>
		</g>
		<g transform="matrix(1, 0, 0, 1, 64.434875, 86.9851)" style="">
		  <linearGradient id="IconifyId17ecdb2904d178eab18695" gradientUnits="userSpaceOnUse" x1="64.065" y1="45.986" x2="64.065" y2=".64" gradientTransform="matrix(1 0 0 -1 0 128)">
			<stop offset="0" style="stop-color: rgb(167, 218, 242);"></stop>
			<stop offset="0.998" style="stop-color: rgb(109, 192, 233);"></stop>
		  </linearGradient>
		  <path d="M 109.63 77.051 C 111.36 75.038 105.885 67.65 105.4 67.596 C 103.54 67.404 101.66 69.477 100.7 70.748 C 98.889 73.259 96.854 75.526 94.63 77.506 C 94.18 77.83 92.33 79.352 92.39 82.875 C 92.41 84.074 93.87 89.358 94.5 91.563 C 94.64 92.055 95.02 92.378 95.44 92.378 C 95.5 92.378 95.55 92.378 95.61 92.366 L 105.12 90.461 C 105.632 90.363 105.993 89.809 105.95 89.191 C 105.95 89.131 105.61 82.731 109.66 77.075 L 109.63 77.051 Z" fill="url(#IconifyId17ecdb2904d178eab18694)" style="" transform="matrix(-0.32157, 0.946886, -0.946886, -0.32157, 209.446001, 9.8965)"></path>
		  <path d="M 34.405 84.298 C 36.135 86.311 30.66 93.699 30.175 93.753 C 28.315 93.945 26.435 91.872 25.475 90.601 C 23.664 88.09 21.629 85.823 19.405 83.843 C 18.955 83.519 17.105 81.997 17.165 78.474 C 17.185 77.275 18.645 71.991 19.275 69.786 C 19.415 69.294 19.795 68.971 20.215 68.971 C 20.275 68.971 20.325 68.971 20.385 68.983 L 29.895 70.888 C 30.407 70.986 30.768 71.54 30.725 72.158 C 30.725 72.218 30.385 78.618 34.435 84.274 L 34.405 84.298 Z" fill="url(#gradient-1)" style="" transform="matrix(0.32157, 0.946886, -0.946886, 0.32157, 94.653479, 30.628455)"></path>
		  <path d="M 115.74 111.06 C 115.88 118.16 110.16 124 103.05 124 C 101.65 124 100.33 123.71 99.15 123.16 C 99.11 123.14 99.07 123.13 99.04 123.11 C 98.453 122.854 97.899 122.528 97.39 122.14 C 96.679 121.609 96.043 120.983 95.5 120.28 C 94.465 118.948 93.805 117.363 93.59 115.69 L 93.57 115.7 L 93.56 115.71 C 93.75 116.243 94.132 132.999 89.857 137.668 C 85.295 141.674 44.438 142.591 38.146 137.266 C 34.652 133.617 33.938 116.758 34.58 115.59 L 34.54 115.57 C 34.54 115.59 34.54 115.6 34.53 115.61 L 34.53 115.62 C 34.1 118.85 32.03 121.62 29.14 122.98 L 29.13 122.98 C 27.9 123.56 26.54 123.88 25.08 123.88 C 17.98 123.88 12.25 118.05 12.39 110.94 L 14.77 85.979 C 14.79 85.179 15.42 84.529 16.22 84.479 L 29.03 83.729 L 29.14 83.729 C 29.92 83.729 30.59 84.319 30.68 85.109 L 31.09 88.49 C 35.27 84.91 41.04 82.28 48.97 82.28 C 51.59 82.28 76.56 82.4 79.17 82.4 C 87.1 82.4 92.87 85.03 97.05 88.6 L 97.318 85.219 C 97.418 84.429 98.088 83.839 98.868 83.839 C 98.908 83.839 98.938 83.849 98.978 83.849 L 111.788 84.599 C 112.588 84.649 113.208 85.299 113.238 86.099 L 115.74 111.06 Z" fill="url(#IconifyId17ecdb2904d178eab18695)"></path>
		  <path d="M99.04 123.11a8.03 8.03 0 0 1-1.65-.97a9.795 9.795 0 0 1-1.89-1.86a9.44 9.44 0 0 1-1.91-4.59l-.02.01l-.38-10.68s.63 9.15 5.85 18.09z" style="fill: rgb(86, 153, 187);"></path>
		  <path d="M34.91 105.02l-.38 10.59v.01c-.43 3.23-2.5 6-5.39 7.36c5.14-8.9 5.77-17.96 5.77-17.96z" style="fill: rgb(86, 153, 187);"></path>
		  <path d="M 54.92 78.33 L 54.92 86.006 C 54.92 89.475 58.54 92.29 64 92.29 C 69.46 92.29 73.08 89.475 73.08 86.006 L 73.08 78.33 L 54.92 78.33 Z" style="fill: rgb(251, 221, 190);"></path>
		  <path d="M 101.42 71.42 C 101.42 71.42 100.91 73.56 99.23 74.89 C 97.66 76.12 95.63 76.61 94.2 76.82 C 94.2 76.82 92.098 84.613 77.488 86.393 C 73.499 86.894 68.521 86.012 66.85 85.233 C 65.247 86.519 60.794 88.653 56.061 89.445 C 41.451 91.235 37.53 83.75 37.53 83.75 C 36.1 83.89 34 83.9 32.19 83.08 C 30.24 82.19 29.23 80.23 29.23 80.23 C 29.23 80.23 32.47 79.54 33.32 77.4 C 34.21 75.19 32.5 73.27 29.72 70.97 C 25.305 67.324 19.882 58.29 22.631 48.104 C 22.503 47.914 22.386 47.716 22.28 47.51 C 19.65 42.38 22.02 37.88 24.08 35.66 C 23.23 33.96 21.99 30.33 23.65 25.61 C 25.05 21.64 28.4 20.09 31.05 19.66 C 27.4 11.76 34.79 7.86 34.79 7.86 C 34.79 7.86 35.21 11.68 37.85 12.78 C 42.07 14.54 47.33 10.72 48.15 10.14 C 52.07 7.33 59.38 2.11 71.87 4.45 C 76.48 5.31 81.52 8.39 82.76 12.59 C 87.26 12.34 92.78 16.23 95.41 19.32 C 97.31 21.55 100.94 28.98 99.73 37.35 C 99.706 37.521 99.679 37.69 99.651 37.855 C 99.882 38.228 100.099 38.582 100.09 38.61 C 105.24 47.85 102.14 57.93 98.73 62.54 C 96.58 65.45 95.4 67.72 96.78 69.65 C 98.12 71.52 101.42 71.42 101.42 71.42 Z" style="filter: url(#drop-shadow-filter-0); fill: rgb(74, 54, 49);"></path>
		  <linearGradient id="gradient-1" gradientUnits="userSpaceOnUse" x1="111.822" y1="55.186" x2="111.822" y2="84.222" gradientTransform="matrix(1, 0, 0, 1.198376, -82.524457, 5.169999)">
			<stop offset="0.5" stop-color="#f9ddbd"></stop>
			<stop offset="1" stop-color="#ffd29c"></stop>
		  </linearGradient>
		</g>
		<linearGradient id="IconifyId17ecdb2904d178eab18694" gradientUnits="userSpaceOnUse" x1="111.822" y1="55.186" x2="111.822" y2="84.222" gradientTransform="matrix(1, 0, 0, -1.198376, -7.299618, 156.178985)">
		  <stop offset="0.5" stop-color="#f9ddbd"></stop>
		  <stop offset="1" stop-color="#ffd29c"></stop>
		</linearGradient>
		<radialGradient id="IconifyId17ecdb2904d178eab9910" cx="48.408" cy="13.024" r="75.465" gradientTransform="matrix(1.155812, 0, 0, 1.253245, 16.982904, -6.659969)" gradientUnits="userSpaceOnUse">
		  <stop offset="0" stop-color="#2f7889"></stop>
		  <stop offset="1" stop-color="#424242"></stop>
		</radialGradient>
	  </svg>
