<?xml version="1.0" encoding="utf-8"?>
<svg id="earth" viewBox="0 0 512 512" xmlns="http://www.w3.org/2000/svg">
  <defs>
    <radialGradient gradientUnits="userSpaceOnUse" cx="191.865" cy="183.64" r="248" id="gradient-0" gradientTransform="matrix(1.825251, 0, 0, 1.99351, -158.336838, -182.448215)">
      <stop offset="0" style="stop-color: rgba(255, 255, 255, 0);"/>
      <stop offset="1" style="stop-color: rgb(0, 40, 69);"/>
    </radialGradient>
  </defs>
  <path d="M 256.002 8.002 C 392.968 8.002 504.001 119.034 504.002 256 L 8.002 256 C 8.003 119.034 119.036 8.002 256.002 8.002 Z" style="fill: rgb(137, 204, 134);"/>
  <path d="M 504.002 256.002 C 504.002 392.969 392.969 504.002 256.002 504.002 C 119.035 504.002 8.002 392.969 8.002 256.002 C 8.002 256.001 8.002 256.001 8.002 256 L 504.002 256 C 504.002 256.001 504.002 256.001 504.002 256.002 Z" style="fill: rgb(158, 214, 241);"/>
  <path style="fill: rgb(94, 186, 231);" d="M 272.269 226.49 C 417.681 269.675 474.725 246.294 502.897 232.446 C 503.627 240.199 504.002 248.058 504.002 256.002 C 504.002 305.222 489.663 351.092 464.936 389.664 C 430.35 411.66 369.14 429.758 272.269 403.23 C 157.158 371.707 79.902 386.803 53.977 399.875 C 25.031 359.302 8.002 309.641 8.002 256.002 C 8.002 253.777 8.031 251.56 8.089 249.349 C 100.167 196.579 230.9 214.204 272.269 226.49 Z"/>
  <path d="M 256 8 C 282.503 8 308.036 12.157 331.98 19.856 C 394.478 39.949 446.16 84.164 476.063 141.537 C 442.093 124.299 397.803 115.62 319.743 128.859 C 193.293 150.306 101.023 96.871 77.494 83.842 C 108.917 51.268 149.173 27.272 194.406 15.711 C 194.407 15.71 194.407 15.709 194.408 15.709 C 214.101 10.676 234.738 8 256 8 Z" style="fill: rgb(73, 178, 118);"/>
  <path d="M 256.002 8 C 392.968 8 504.001 119.032 504.002 255.998 C 504.002 255.999 504.002 255.999 504.002 256 C 504.002 392.967 392.969 504 256.002 504 C 119.035 504 8.002 392.967 8.002 256 C 8.002 255.999 8.002 255.999 8.002 255.998 C 8.003 119.032 119.036 8 256.002 8 Z" style="fill: url(#gradient-0); fill-opacity: 0.6;"/>
</svg>