<?xml version="1.0" encoding="utf-8"?>
<svg viewBox="0 0 500 500" xmlns="http://www.w3.org/2000/svg">
  <rect x="358.368" y="726.007" width="522.354" height="305.82" style="fill: rgb(216, 216, 216);" transform="matrix(0.9572, -0.289427, 0, 1.044714, -343.028503, -488.903839)"/>
  <g id="g412" transform="matrix(7.176971, 0, 0, 7.176971, -343.033997, -478.165466)" style="">
    <path style="fill: rgb(0, 0, 0); paint-order: stroke; stroke-width: 0.270933px;" d="M 75.391 112.558 C 71.666 112.191 69.362 111.664 68.462 110.971 C 67.728 110.407 68.171 110.152 69.224 110.533 C 70.088 110.845 70.614 110.916 74.359 111.226 L 76.043 111.365 L 75.075 110.294 C 73.895 108.988 73.584 108.25 73.37 106.253 L 73.205 104.711 L 72.105 105.51 C 71.5 105.949 70.315 107.179 69.472 108.242 C 68.629 109.306 67.518 110.708 67.002 111.358 C 66.29 112.255 66.044 112.428 65.976 112.078 C 65.801 111.167 68.643 106.934 70.781 104.923 L 72.147 103.638 L 70.947 104.433 C 69.459 105.42 66.504 108.533 65.803 109.853 C 65.227 110.937 64.731 111.182 65.015 110.243 C 66.326 105.908 70.514 102.512 76.542 100.894 C 78.49 100.371 81.691 99.427 83.656 98.796 C 93.643 95.588 95.978 95.368 100.588 97.196 C 102.623 98.004 103.34 98.17 104.367 98.071 C 105.223 97.989 105.604 98.044 105.539 98.242 C 105.338 98.853 102.895 98.715 100.983 97.984 C 98.504 97.036 94.883 96.825 92.023 97.461 C 89.888 97.936 89.363 98.403 90.964 98.403 C 91.491 98.403 93.52 98.76 95.473 99.196 C 97.425 99.633 99.732 99.99 100.6 99.99 C 101.467 99.99 102.177 100.096 102.177 100.225 C 102.177 100.764 100.171 100.777 96.983 100.259 C 95.137 99.959 92.604 99.641 91.353 99.553 L 89.08 99.391 L 89.08 103.196 C 89.08 107.4 88.595 108.916 86.757 110.463 C 85.666 111.38 86.48 111.297 88.629 110.271 C 91.048 109.117 93.787 106.337 95.174 103.629 C 96.7 100.65 97.162 100.92 95.968 104.093 C 93.032 111.892 88.32 113.831 75.391 112.558 Z M 86.05 103.376 C 86.953 102.473 87.192 100.377 86.426 100.083 C 85.496 99.726 81.137 101.428 81.216 102.117 C 81.463 104.263 84.399 105.027 86.05 103.376 Z M 58.245 101.358 C 56.676 100.087 57.737 99.223 65.118 95.765 C 68.15 94.344 72.264 92.26 74.259 91.134 C 88.241 83.242 95.159 82.689 103.698 88.782 C 105.799 90.281 105.607 90.741 103.389 89.522 C 94.297 84.524 87.6 85.737 77.041 94.295 C 72.866 97.679 71.746 98.44 69.04 99.734 C 64.936 101.696 59.646 102.491 58.245 101.358 Z" id="path194"/>
  </g>
</svg>