<?xml version="1.0" encoding="utf-8"?>
<svg viewBox="0 0 500 500" xmlns="http://www.w3.org/2000/svg">
  <defs>
    <linearGradient gradientUnits="userSpaceOnUse" x1="322.553" y1="186.418" x2="322.553" y2="501.105" id="gradient-0" gradientTransform="matrix(-0.001197, -0.999999, 1.296468, 0, -108.143301, 508.971422)">
      <stop offset="0" style="stop-color: rgb(50, 149, 220);"/>
      <stop offset="1" style="stop-color: rgba(50, 149, 220, 0);"/>
    </linearGradient>
  </defs>
  <path style="fill: rgb(6, 220, 113);" d="M 0 224.669 L 0 500 L 366.798 500 C 366.798 500 370.352 433.913 315.733 414.258 C 270.27 397.898 206.317 418.879 179.47 398.941 C 151.146 377.907 138.411 303.299 94.012 263.964 C 48.379 223.536 0 224.669 0 224.669 Z"/>
  <path style="fill: url(#gradient-0);" d="M 133.155 499.997 L 133.155 186.418 L 511.952 186.419 C 511.952 186.419 500.963 329.377 455.788 360.718 C 411.321 391.567 294.72 357.291 266.31 378.011 C 225.237 407.967 227.316 447.478 188.17 478.491 C 150.311 508.484 133.155 499.997 133.155 499.997 Z" transform="matrix(-1, 0, 0, -1, 633.155121, 686.41864)"/>
</svg>