<?xml version="1.0" encoding="utf-8"?>
<svg width="32px" height="32px" viewBox="0 0 32 32" xmlns="http://www.w3.org/2000/svg">
  <title>file_type_photoshop</title>
  <radialGradient id="a" cx="-183.69" cy="328.972" r=".76" gradientTransform="matrix(29.332811, 0, 0, 28.399494, 5399.138184, -9334.511469)" gradientUnits="userSpaceOnUse">
    <stop offset="0" stop-opacity=".98" style="stop-color: rgb(23, 56, 121);"/>
    <stop offset="1" style="stop-color: rgb(12, 8, 36);"/>
  </radialGradient>
  <path d="M 1.334 1.733 L 30.666 1.733 L 30.666 30.265 L 1.334 30.265 L 1.334 1.733 Z" fill="url(#a)" style=""/>
  <path d="M 1.334 1.733 L 30.666 1.733 L 30.666 30.265 L 1.334 30.265 L 1.334 1.733 Z M 0 31.599 L 31.999 31.599 L 31.999 0.4 L 0 0.4 L 0 31.599 Z" style="fill: rgb(49, 197, 240);"/>
  <path d="M 21.195 13.631 C 20.188 13.631 19.844 14.14 19.844 14.561 C 19.844 15.02 20.072 15.341 21.427 16.04 C 23.429 17.011 24.052 17.943 24.052 19.309 C 24.052 21.351 22.494 22.447 20.39 22.447 C 19.485 22.481 18.587 22.293 17.773 21.901 C 17.681 21.863 17.67 21.799 17.67 21.697 L 17.67 19.818 C 17.67 19.69 17.734 19.651 17.823 19.716 C 18.588 20.208 19.479 20.47 20.39 20.469 C 21.398 20.469 21.819 20.047 21.819 19.473 C 21.819 19.014 21.527 18.607 20.236 17.943 C 18.423 17.074 17.67 16.193 17.67 14.726 C 17.67 13.082 18.96 11.714 21.192 11.714 C 21.971 11.681 22.747 11.804 23.477 12.072 C 23.562 12.128 23.611 12.226 23.604 12.327 L 23.604 14.078 C 23.604 14.18 23.541 14.244 23.412 14.206 C 22.738 13.817 21.973 13.618 21.192 13.633 L 21.195 13.631 Z M 10.22 15.147 C 10.514 15.173 10.743 15.173 11.254 15.173 C 12.747 15.173 14.152 14.65 14.152 12.62 C 14.152 10.999 13.141 10.183 11.445 10.183 C 10.933 10.183 10.451 10.208 10.22 10.222 L 10.22 15.147 Z M 7.949 8.366 C 7.949 8.276 8.126 8.213 8.229 8.213 C 9.048 8.174 10.259 8.15 11.522 8.15 C 15.057 8.15 16.436 10.088 16.436 12.564 C 16.436 15.807 14.089 17.196 11.204 17.196 C 10.719 17.196 10.553 17.171 10.209 17.171 L 10.209 22.072 C 10.209 22.174 10.17 22.226 10.055 22.226 L 8.102 22.226 C 8.001 22.226 7.951 22.187 7.951 22.072 L 7.951 8.372 L 7.949 8.366 Z" style="fill: rgb(49, 197, 240);"/>
</svg>