<svg viewBox="0 0 500 500" xmlns="http://www.w3.org/2000/svg"><defs><radialGradient gradientUnits="userSpaceOnUse" cx="197.081" cy="213.884" r="213.441" id="a" gradientTransform="translate(0 .492)"><stop offset="0" style="stop-color:#a8dfff"/><stop offset="1" style="stop-color:#0066a2"/></radialGradient><radialGradient gradientUnits="userSpaceOnUse" cx="541.052" cy="178.154" r="211.408" id="b" gradientTransform="translate(-351.487 53.458) scale(1.00489)"><stop offset="0" style="stop-color:#a2e757"/><stop offset="1" style="stop-color:#009d49"/></radialGradient></defs><circle style="fill:url(#a)" cx="251.392" cy="256.738" r="213.441"/><path d="M38.951 256.667c0-68.227 31.857-129.015 81.508-168.298 8.111-.014 18.934.649 24.537.43 2.395-.092 18.121-3.657 21.721-4.681 23.955-6.814 70.546-15.812 63.31 8.522-6.386 9.339-21.612 17.667-27.015 21.643-1.961 1.444-21.227 8.824-24.178 9.889-7.446 2.687-19.54 22.473-20.245 23.368-1.057 1.343-31.412 36.834-32.687 39.589-5.648 12.216-19.45 18.359-22.42 19.03-5.982 1.351-17.799 4.576-22.223 8.834-2.071 1.993-6.933 5.68-9.553 9.659-1.95 2.96-5.996 11.144-6.212 11.726-5.56 14.987-2.922 13.95-.679 23.173 4.078 16.769 16.069 28.019 18.549 30.403.626.601 4.643 3.74 5.366 4.101 3.146 1.574 34.743 3.763 38.17 4.152 23.378 2.654 83.701 12.211 91.939 19.923 8.089 7.576 9.139 9.565 11.096 19.275 2.579 12.793.042 25.069-1.18 28.633-3.494 10.194-15.786 29.036-16.041 38.564-.405 15.135-.319 51.23-.574 62.578a212.975 212.975 0 0 1-56.719-19.683c-2.348-11.089-7.503-36.608-8.077-38.516-3.106-10.316-53.756-37.675-54.171-37.873-11.825-5.652-15.257-8.42-21.273-15.376-3.649-4.215-8.259-11.526-5.563-24.079 1.053-4.898 12.648-20.607 10.131-25.693-6.839-13.833-7.008-9.012-21.338-24.706-6.323-6.923-12.031-12.017-16.095-18.502-.056-2.021-.084-4.05-.084-6.085Zm424.817-.056c-15.753 15.749-28.982 49.695-36.942 69.716-4.287 10.783-.678 37.193-1.522 53.025a215.61 215.61 0 0 1-64.279 60.468c-7.416-5.029-11.821-28.639-15.14-38.57-5.199-15.559.283-39.911-5.344-56.48-2.544-7.495 2.239-24.628-3.359-30.225-5.875-5.877.84-24.349-5.036-30.225-6.997-6.997-18.194-9.796-25.19-16.792-4.197-4.199-39.167-5.586-45.337-11.756-8.117-8.115-12.987-11.389-21.104-19.507-3.078-3.077-2.63-21.576-3.33-25.607-1.972-11.348 5.997-47.276 10.999-52.28 10.355-10.355 34.985-6.436 45.34-16.79 17.911-17.914 37.5-34.145 55.413-52.057 11.683-6.763 20.421-6.108 29.958-3.82 51.579 39.145 84.899 101.099 84.938 170.835l-.065.065Z" style="fill:url(#b)" transform="translate(0 -.001)"/><path style="fill:#000;stroke-width:3px" d="m236.583 498.839-4.793-.325-8.15-.917-8.149-.917-15.574-2.383-15.573-2.384-1.684-.869-1.683-.869-3.835-.688-3.835-.687-11.025-3.641-11.025-3.641-7.785-3.326-7.785-3.326-9.951-5.462-9.952-5.462-3.956-2.589-3.955-2.589-2.756-1.889-2.755-1.89-3.835-2.899-3.835-2.9-9.519-8.154-9.518-8.154-9.5-10.546-9.5-10.546-6.522-8.628-6.522-8.629-7.168-11.025-7.168-11.025-4.908-9.784-4.909-9.783-3.729-9.87L12 333.171l-2.475-8.629-2.474-8.628-2.427-12.652-2.427-12.652-1.098-16.505L0 257.6l1.088-17.82 1.088-17.821 2.929-16.298 2.928-16.299 2.902-10.88 2.902-10.88 2.244-5.898 2.244-5.897 3.355-7.191 3.354-7.19 5.795-10.366 5.795-10.366 6.116-9.288 6.116-9.288 8.011-10.066 8.01-10.067L75.47 71.402l10.593-10.583 9.108-7.231 9.108-7.231 6.232-4.151 6.232-4.152 2.396-1.607 2.397-1.606 9.108-4.9 9.108-4.9 9.197-3.824 9.196-3.824 15.742-5.226 15.741-5.226 15.328-3.224L220.285.494h53.688l2.705.754 2.705.754-.386 1.163-.385 1.163-14.783.685-14.782.684-6.712.947-6.711.948-13.901 2.368-13.902 2.368-11.504 2.913-11.505 2.912-8.149 2.846-8.149 2.847-6.711 2.742-6.711 2.742-3.957 2.079-3.956 2.079-.648 1.688-.648 1.688.592 10.097.592 10.097 1.855 17.257 1.856 17.257 1.417 8.049 1.418 8.049.536.537.536.536 3.08-1.24 3.079-1.24 13.675-4.731 13.675-4.731 12.69-3.396 12.69-3.396 13.901-2.757 13.902-2.756 5.033-.66 5.033-.66V81.27l-6.471-6.23-6.471-6.231-11.026-9.242-11.025-9.241-5.431-4.304-5.431-4.303-.548-1.918-.548-1.917.002-3.356.002-3.355.724-1.139.724-1.138 2.377-.903 2.377-.903 3.895-.054 3.895-.052 6.651-1.588 6.651-1.587 20.133-.776 20.134-.776 13.422.803 13.422.803 13.479 2.387 13.48 2.386 9.05 2.555 9.051 2.556 4.794 1.701 4.793 1.701 7.191 2.696 7.19 2.695 12.463 6.346 12.464 6.346 8.628 5.633 8.629 5.633 8.149 6.237 8.149 6.236 9.923 9.656 9.922 9.656 5.974 7.67 5.975 7.67 3.34 5.273 3.34 5.273 3.436 5.752 3.435 5.753 4.256 8.149 4.256 8.149 3.451 8.628 3.451 8.629 2.403 7.19 2.403 7.191 2.432 11.025 2.433 11.026.961 6.859.96 6.859.619 14.712.619 14.712-1.124 15.34-1.124 15.339-1.426 6.711-1.427 6.711-1.404 7.191-1.405 7.19-1.984 6.711-1.985 6.711-3.408 10.067-3.408 10.067-3.18 7.669-3.179 7.67-5.635 11.026-5.635 11.025-2.25 3.835-2.25 3.835-5.276 8.149-5.277 8.149-7.271 9.585-7.271 9.584-10.546 10.919-10.546 10.918-9.587 7.85-9.587 7.85-5.753 3.654-5.752 3.654-2.455 1.683-2.456 1.683-5.991 3.024-5.992 3.025-9.822 4.195-9.822 4.195-12.89 4.28-12.889 4.279-11.984 2.476-11.984 2.476-10.546.99-10.546.989-16.778-.172-16.778-.172-4.793-.325h-.001Zm46.019-17.638 6.711-.907 8.868-1.073 8.868-1.073v-2.371l-6.543-8.027-6.543-8.028-9.995-14.053-9.995-14.053-3.636-5.337-3.635-5.337-3.98 1.593-3.98 1.592-9.641 5.189-9.642 5.188-3.355 2.164-3.356 2.164-5.752 3.751-5.752 3.751-5.513 4.173-5.513 4.173.001.604.001.604 7.908 6.359 7.909 6.36 4.794 3.178 4.793 3.178.48.538.479.538 4.314 2.867 4.315 2.867 2.876.589 2.876.588 12.463-.421 12.464-.421 6.711-.907Zm-58.003-.866v-1.917h-1.591l-10.936-7.191-10.936-7.19h-2.189l-3.952 5.122-3.951 5.121v3.005l6.471 1.071 6.472 1.071 9.107 1.319 9.108 1.318 1.199.095 1.198.094v-1.918Zm113.414-11.554 6.906-2.956 6.232-2.899 6.231-2.899 4.167-2.07 4.167-2.069.867-2.22.866-2.22v-40.819l-.631-6.033-.63-6.034-12.073.605-12.072.606-8.629 1.41-8.628 1.409-10.546 2.339-10.546 2.338-6.232 2.046-6.232 2.046-4.074 1.49-4.075 1.491v2.452l4.948 7.562 4.949 7.563 7.348 9.588 7.349 9.587 3.618 4.794 3.619 4.793 5.365 6.074 5.364 6.075 2.733-.547 2.733-.546 6.906-2.956Zm-157.036-5.229 5.752-7.08.192-1.251.192-1.251-7.787-6.232-7.788-6.231-19.31-19.175-19.31-19.174-6.51-8.149-6.509-8.15-.863-.321-.863-.32-7.217 6.073-7.218 6.073-3.085 1.126-3.085 1.125-6.008.073-6.008.073 2.391-4.72 2.392-4.719 8.747-8.697 8.747-8.698-5.988-9.337-5.988-9.336-6.501-12.48-6.501-12.48-5.198-12.463-5.198-12.463-1.594-4.315-1.594-4.314-.909-1.429-.909-1.429-3.156 1.821-3.156 1.822-5.793 4.5-5.793 4.501-2.054 1.099-2.053 1.099h-4.763l-1.552-.595-1.552-.596-1.488-2.876-1.487-2.877.591-3.152.592-3.152 3.592-3.246 3.593-3.245 9.323-6.5 9.323-6.501v-1.474l-1.783-5.183-1.783-5.184-3.41-12.463-3.41-12.463-2.445-10.579-2.445-10.578-1.683-10.753-1.682-10.754h-2.384l-3.15 2.687-3.149 2.687-5.022 3.618-5.022 3.619-3.083-.313-3.082-.314-.668 2.397-.668 2.397-.085 21.571-.086 21.572 1.406 12.943 1.406 12.942 2.404 12.464 2.404 12.463 2.494 9.108 2.493 9.108 3.328 9.554 3.327 9.554.744.992.744.992 1.311 3.355 1.312 3.356 6.549 11.984 6.55 11.984 4.253 6.054 4.252 6.054 6.472 8.327 6.471 8.327 11.057 11.069 11.056 11.068 6.711 5.302 6.711 5.302 7.686 5.248 7.686 5.249 10.53 5.723 10.53 5.723 5.752 2.611 5.753 2.611 7.669 2.738 7.67 2.739.959-.392.959-.393 5.752-7.08Zm206.069-20.194 6.531-4.381 8.268-6.21 8.267-6.211 8.722-8.612 8.721-8.611 1.301-2.431 1.301-2.431-1.345-.831-1.345-.831-5.801-.996-5.801-.996-10.546-.986-10.546-.986-7.372-.001-7.371-.001-.495 4.075-.495 4.075-.559 20.372-.558 20.373h2.591l6.532-4.38Zm-176.828-5.72 9.108-6.816 9.726-6.361 9.727-6.361 9.208-4.92 9.209-4.92v-1.852l-3.686-5.46-3.687-5.46-10.544-16.778-10.544-16.777-5.781-10.067-5.782-10.067-3.489-6.95-3.489-6.951h-.973l-14.122 6.963-14.122 6.964-10.174 6.068-10.175 6.068-8.52 6.409-8.521 6.409-5.273 4.169-5.273 4.17v2.419l10.154 11.852 10.154 11.851 12.376 12.866 12.376 12.865 10.431 9.404 10.431 9.405 1.074-.664 1.073-.663 9.108-6.815Zm68.716-38.323 3.461-1.446 11.608-3.293 11.608-3.293 13.902-2.455 13.901-2.455 16.059-1.148 16.059-1.148-.008-2.444-.007-2.443-1.916-17.233-1.916-17.233-2.917-14.884-2.918-14.885-2.423-9.577-2.424-9.577-1.123-.736-1.124-.735-10.546.526-10.546.526-11.504.979-11.505.979-14.86 2.888-14.861 2.888-9.169 2.714-9.169 2.713-8.088 2.904-8.088 2.903-6.231 2.705-6.232 2.705-1.276.818-1.276.818.534 2.127.533 2.126 4.954 9.034 4.953 9.034 4.327 7.19 4.328 7.191 4.789 7.669 4.79 7.67 8.937 13.662 8.936 13.662h2.989l3.461-1.446h-.002Zm161.108-5.984 3.743-4.554 2.233-3.835 2.232-3.835.763-11.025.764-11.026.048-20.612.048-20.613-.557-2.076-.557-2.077-8.778-2.887-8.777-2.887-9.45-2.524-9.45-2.525-12.121-2.336-12.122-2.336-10.277-1.151-10.277-1.15-.465.465-.464.465 2.332 10.03 2.332 10.03 2.898 19.175 2.898 19.174 1.197 14.844 1.198 14.843 7.67 1.134 7.669 1.134 11.985 2.864 11.984 2.864 7.037 1.938 7.037 1.937.553.553.552.553h2.378l3.744-4.554Zm17.89-29.241 1.412-3.116 2.524-6.232 2.525-6.232 1.471-4.793 1.472-4.794 1.304-2.876 1.304-2.876 4.895-19.175 4.895-19.174 1.379-9.108 1.379-9.108.608-13.422.607-13.422-1.128-13.422-1.128-13.423-2.828-13.901-2.828-13.902-2.458-8.149-2.457-8.149-2.495-6.711-2.495-6.711-3.715-7.67-3.715-7.67-4.116-6.6-4.116-6.6-5.198-6.6-5.197-6.6-8.754-4.296-8.753-4.297h-1.209l-4.064-1.88-4.065-1.88-8.628-2.971-8.629-2.971-1.677-.534-1.678-.534v2.35l6.046 8.285 6.045 8.284 5.323 8.149 5.323 8.149 5.357 10.067 5.357 10.067 5.192 12.057 5.191 12.057 2.128 6.394 2.128 6.395 6.394 3.511 6.395 3.511 5.752 3.667 5.753 3.667 1.677 1.187 1.678 1.186v2.248l-1.424.546-1.423.547-7.445-1.984-7.444-1.983-2.306-.518-2.305-.518.643 2.297.644 2.297 2.789 13.902 2.79 13.901 1.613 13.423 1.614 13.422.614 16.761.615 16.762 4.081 2.249 4.081 2.248.938 1.753.939 1.753-1.687 2.083-1.687 2.084-3.333.679-3.332.68-.622 17.219-.622 17.22-.642 7.43-.643 7.431h1.959l1.412-3.116Zm-329.369-6.327 5.437-4.649 9.587-6.703 9.587-6.702 6.711-4.331 6.711-4.331 9.587-5.787 9.588-5.788 7.998-4.026 7.997-4.026-.482-1.588-.482-1.588-5.95-14.381-5.95-14.381-2.167-6.231-2.167-6.232-5.478-15.34-5.478-15.339-1.057-3.199-1.058-3.198-2.525.505-2.524.504-16.704 9.205-16.703 9.205-9.108 5.629-9.108 5.629-15.1 10.741-15.1 10.742v2.391l3.419 8.999 3.418 8.999 1.762 4.793 1.762 4.794 5.718 12.463 5.718 12.464 5.275 9.108 5.276 9.107 2.281 3.555 2.282 3.555.795.04.795.041 5.437-4.649Zm95.135-56.331 6.174-2.497 6.232-2.357 6.231-2.357 12.703-3.716 12.702-3.716 12.225-2.435 12.224-2.435 9.108-1.09 9.108-1.089 17.736-.608 17.737-.608-.252-2.397-.251-2.397-2.486-8.149-2.485-8.149-5.65-17.599-5.65-17.599-3.426-9.246-3.425-9.245-2.447-6.232-2.447-6.231-.998-.634-.999-.633-4.875.389-4.876.389-11.687 1.014-11.687 1.014-14.629 2.832-14.629 2.832-10.595 2.901-10.595 2.901-7.19 2.498-7.19 2.498-8.15 3.193-8.149 3.194-6.231 2.683-6.232 2.684-1.768 1.03-1.769 1.03 1.94 6.143 1.939 6.143 4.717 13.422 4.717 13.422 5.809 14.381 5.81 14.381 2.974 6.471 2.974 6.472h1.534l6.174-2.498Zm224.86-10.873-.657-9.536-1.396-10.837-1.396-10.837-1.047-7.19-1.048-7.191-2.743-11.505-2.744-11.504-2.279-6.711-2.279-6.711-3.333-1.598-3.333-1.598-11.148-3.38-11.149-3.379-14.204-2.874-14.204-2.873-9.108-.986-9.108-.986-11.744-.654-11.744-.655v1.287l3.255 8.369 3.256 8.368 4.805 14.381 4.805 14.381 2.413 8.149 2.412 8.149 3.026 11.984 3.025 11.984.433 1.569.433 1.57 6.441.67 6.441.67 14.861 2.812 14.86 2.813 12.943 3.335 12.943 3.335 8.628 3.254 8.629 3.253.856.104.856.104-.657-9.536ZM93.91 254.645l11.328-7.58 3.355-2.126 3.356-2.127 9.587-5.772 9.587-5.772 15.34-8.274 15.34-8.274 2.157-.559 2.157-.559v-4.372l-2.465-8.496-2.466-8.496-1.953-7.67-1.953-7.669-2.305-10.067-2.304-10.067-1.383-5.272-1.383-5.273-1.117-8.629-1.117-8.629-1.051-.664-1.051-.664-.991.818-.991.819-4.298 1.717-4.298 1.717-13.918 7.566-13.918 7.566-5.752 3.49-5.752 3.49-7.67 5.196-7.67 5.196-8.628 6.576-8.629 6.576-3.116 2.694-3.116 2.694v3.271l2.422 12.196 2.422 12.197 2.48 10.546 2.481 10.546 2.831 10.066 2.831 10.067 1.335 3.835 1.334 3.835 1.007 2.72 1.007 2.72 2.804-1.762 2.805-1.761 11.329-7.58Zm89.033-48.364.91-.817 10.067-3.833 10.067-3.833 8.628-2.929 8.629-2.929 6.231-1.973 6.232-1.973 8.149-2.034 8.149-2.034 11.505-2.314 11.505-2.314 8.732-1.371 8.732-1.372 9.327-.685 9.327-.684.45-1.175.451-1.174-4.262-9.474-4.262-9.474-3.808-7.19-3.807-7.191-2.984-5.031-2.984-5.032-5.666-8.39-5.665-8.391-5.928-7.484-5.927-7.484-1.369-.525-1.368-.525-12.91 1.477-12.911 1.477-9.867 2.103-9.866 2.102-12.27 3.312-12.27 3.312-10.739 3.697-10.74 3.698-5.99 2.259-5.989 2.26-.859.913-.858.913 2.18 10.546 2.181 10.546 2.569 9.587 2.569 9.587 1.776 5.753 1.775 5.752 4.993 15.579 4.993 15.58h2.261l.911-.818Zm-157.279-8.865 2.876-4.095 6.089-7.637 6.089-7.637-.693-16.633-.693-16.633h-2.424l-1.46 3.116-1.46 3.116-3.987 9.587-3.987 9.588-.865 1.917-.865 1.917-2.048 8.15-2.049 8.149-1.263 7.16-1.263 7.161.56.906.56.907 2.003-2.472 2.004-2.472 2.876-4.095Zm401.223-6.376-.003-.719-2.836-6.96-2.836-6.96-4.817-10.035-4.816-10.035-7.587-12.726-7.587-12.725-7.048-9.691-7.048-9.691-5.367-5.891-5.368-5.892-9.972-1.374-9.972-1.374-14.629-1.499-14.629-1.499H284.04v2.41l5.072 7.184 5.072 7.184 6.888 10.911 6.888 10.911 7.163 14.495 7.164 14.495 2.819 6.349 2.82 6.35 9.455.655 9.455.656 11.88 1.411 11.879 1.411.585.361.584.361 11.143 1.995 11.143 1.995 12.345 3.299 12.346 3.299 2.397.968 2.396.969 1.678.06 1.678.061-.003-.719Zm-364.532-30.2 6.285-5.033 7.753-5.433 7.753-5.432 14.55-8.746 14.55-8.746 14.691-7.305 14.691-7.305 1.015-.772 1.016-.773-1.7-13.696-1.699-13.697-1.461-15.819-1.462-15.819-.012-6.414-.012-6.415-1.015-.627-1.015-.628-4.018 2.628-4.018 2.627-5.669 3.839-5.67 3.839L115 52.648l-1.907 1.534-9.778 8.342-9.777 8.342-9.396 9.874-9.396 9.873-6.385 7.67-6.384 7.67-5.113 6.623-5.113 6.622.116 11.594.116 11.593 1.036 8.628 1.036 8.629.468 3.116.468 3.115h1.08l6.284-5.033Zm363.576-56.369v-1.003l-8.868-8.851-8.868-8.85-9.108-6.779-9.108-6.779-2.876-1.634-2.876-1.633-5.273-3.192-5.273-3.191-6.711-3.365-6.711-3.366-5.273-2.443-5.273-2.443-6.711-2.548-6.711-2.548-7.67-2.448-7.67-2.449-7.67-1.863-7.67-1.863-4.588-1.378-4.588-1.378-10.752-1.394-10.751-1.394-13.901-1.45-13.902-1.449-6.81-.002-6.81-.002-5.893.616-5.893.616v2.535l2.157 1.136 2.157 1.136.48.578.479.578 5.752 4.303 5.753 4.303 10.135 10.245 10.135 10.245 6.513 7.601 6.513 7.601 22.18.564 22.18.565 11.026 1.047 11.025 1.047 8.149 1.396 8.149 1.396 2.157.599 2.158.599v-2.389l-3.414-3.778-3.413-3.778.298-2.09.299-2.091 2.474.159 2.474.158 4.266 2.718 4.266 2.718 5.997 4.722 5.997 4.723 12.189 4.182 12.189 4.182 3.932 1.313 3.933 1.313 4.217 1.837 4.216 1.836 2.397 1.063 2.396 1.064 1.199.065 1.198.065v-1.003Z" transform="translate(0 -.001)"/></svg>