<svg width="288" height="288" viewBox="-16 0 288 288" preserveAspectRatio="xMidYMid" xmlns="http://www.w3.org/2000/svg"><path d="M255.778 83.022c-.002-4.83-1.035-9.098-3.124-12.761-2.052-3.602-5.125-6.621-9.247-9.008-34.025-19.619-68.083-39.178-102.097-58.817-9.17-5.294-18.061-5.101-27.163.269-13.543 7.987-81.348 46.834-101.553 58.537C4.273 66.059.224 73.431.222 83.013c-.013 39.455 0 78.909-.013 118.365 0 4.724.991 8.909 2.988 12.517 2.053 3.711 5.169 6.813 9.386 9.254 20.206 11.703 88.02 50.547 101.56 58.536 9.106 5.373 17.997 5.565 27.17.269 34.015-19.64 68.075-39.198 102.105-58.817 4.217-2.44 7.333-5.544 9.386-9.252 1.994-3.608 2.987-7.793 2.987-12.518 0 0 0-78.889-.013-118.345" style="fill:#7f8b99"/><path d="M243.418 223.136c-34.03 19.619-68.09 39.177-102.105 58.817-9.173 5.296-18.064 5.104-27.17-.269-13.54-7.989-81.354-46.833-101.56-58.536-4.217-2.441-7.333-5.543-9.386-9.254l125.194-72.084 124.263-71.55c2.089 3.663 3.122 7.931 3.124 12.761.013 39.456.013 118.345.013 118.345-.002 4.725-.993 8.91-2.987 12.518-2.053 3.708-5.169 6.812-9.386 9.252Z" style="fill:#a9b9cb"/><path d="M128.666 47.195c35.143 0 65.827 19.086 82.261 47.456l-.16-.273-41.349 23.808c-8.146-13.793-23.081-23.102-40.213-23.293l-.539-.003c-26.126 0-47.306 21.179-47.306 47.305a47.071 47.071 0 0 0 6.239 23.469c8.154 14.235 23.482 23.837 41.067 23.837 17.692 0 33.109-9.724 41.221-24.111l-.197.345 41.287 23.918c-16.255 28.13-46.518 47.157-81.253 47.536l-1.058.006c-35.255 0-66.026-19.204-82.419-47.723-8.003-13.923-12.582-30.065-12.582-47.277 0-52.467 42.532-95 95.001-95Z" fill="#FFF"/></svg>