<svg viewBox="0 0 500 500" xmlns="http://www.w3.org/2000/svg"><path d="M250 459.348C134.38 459.348 40.652 365.62 40.652 250 40.652 134.38 134.38 40.652 250 40.652c58.327 0 111.082 23.853 149.044 62.336L291.531 210.501c-10.441-10.974-25.187-17.815-41.531-17.815-31.654 0-57.314 25.66-57.314 57.314s25.66 57.314 57.314 57.314c17.525 0 33.213-7.866 43.726-20.259l13.261 13.261c18.059 18.059 36.028 29.821 53.906 35.287 17.879 5.466 35.244 5.427 52.096-.122 12.463-4.101 24.45-10.82 35.966-20.158C421.514 398.954 342.81 459.348 250 459.348Z" style="fill:#a9b9cb"/><path d="m409.017 149.395 23.123 23.123c10.208 10.208 17.428 20.011 21.662 29.41 3.389 8.886 5.606 18.071 4.574 27.768-.527 4.55-1.699 9.044-3.514 13.481-4.474 10.933-12.061 21.75-22.761 32.45-10.844 10.844-21.696 18.466-32.559 22.87-10.863 4.401-22.07 4.892-33.625 1.469-11.553-3.421-23.79-11.592-36.711-24.513l-21.995-21.996c.047-.778.078-1.562.092-2.348l101.714-101.714Z" style="fill:#00a5eb"/></svg>