<svg width="361" height="361" viewBox="-52.5 0 361 361" preserveAspectRatio="xMidYMid" xmlns="http://www.w3.org/2000/svg"><path d="M127.806 360.088-1.858 324.092-30.754 0h317.508l-28.926 324.041-130.022 36.047Z" fill="#264DE4"/><path d="m233.064 303.408 24.72-276.909H128v306.036l105.064-29.127Z" fill="#2965F1"/><path d="m35.488 146.7 3.562 39.749H128V146.7H35.488ZM28.33 66.248l3.613 39.75H128v-39.75H28.33ZM128 249.932l-.174.046-44.268-11.953-2.83-31.701H40.826l5.57 62.41 81.421 22.604.183-.051v-41.355Z" fill="#EBEBEB"/><path d="m220.258 146.7 7.175-80.452h-99.57v39.75h56.01l-3.617 40.702h-52.393v39.749h48.946l-4.614 51.55-44.332 11.966v41.354l81.486-22.585.598-6.715 9.34-104.645.97-10.674Z" fill="#FFF"/></svg>