<svg viewBox="0 0 500 500" xmlns="http://www.w3.org/2000/svg"><path style="fill:#00992b;stroke-width:.264583" d="M62.163 497.399c-27.236-8.939-47.929-29.258-57.29-56.251C.454 428.415.182 422.194.178 333.515l-.007-83.713h499.827l-.007 83.225c-.008 88.158-.284 94.42-4.694 107.142-4.679 13.486-12.771 26.17-22.768 35.683-10.069 9.585-21.377 16.293-35.501 21.067l-6.834 2.309-180.597.208-180.601.208-6.833-2.245Z"/><path style="fill:#000;stroke-width:.264583" d="M.337 162.676c.329-86.472.348-87.19 2.51-95.425 8.326-31.714 32.787-56.187 64.6-64.619L75.746.429 249.813.138C422.431-.153 423.951-.138 432.364 1.85c17.752 4.187 34.866 14.955 47.361 29.794 6.905 8.209 14.4 23.096 17.427 34.632 2.162 8.235 2.181 8.934 2.514 95.913l.332 87.613H.001l.336-87.126Z"/><path style="stroke-width:.264583;fill:#fff" d="M409.123 86.776h-52.958l.54-2.688c.295-1.474.998-3.889 1.561-5.366l1.024-2.688h49.833Zm-88.682 0h-52.868V76.034h49.836l.828 2.2c.454 1.206 1.138 3.625 1.516 5.371Zm-159.602-.654c-.359-.355-.65-2.793-.65-5.409v-4.762l37.825.287c37.72.284 37.845.295 42.191 2.612 5.393 2.876 9.793 6.081 9.793 7.132 0 .945-88.214 1.085-89.159.14Zm-7.484.654H90.876V76.034h62.479Zm255.768 18.55h-59.455l1.409-4.642c.772-2.547 1.41-4.966 1.418-5.367.004-.4 12.748-.733 28.32-.733h28.308Zm-82.733 0h-58.817V94.584h55.691l1.024 2.687c.563 1.474 1.263 3.89 1.561 5.367Zm-116.417 0h-49.784V94.584h96.744l1.418 3.387c.778 1.863 1.409 4.278 1.409 5.367 0 1.973-.385 1.988-49.787 1.988Zm-56.618 0H90.876V94.584h62.479Zm238.197 18.546h-47.966l.669-2.196c.367-1.21 1.259-3.625 1.97-5.371l1.3-3.171h44.027Zm-58.692 0h-47.716v-10.776l22.117.265 22.118.261 1.743 5.125Zm-73.342 0h-28.165l.59-10.25 14.396-.269 14.4-.272v2.344c0 1.288-.276 3.719-.612 5.397Zm-53.344 0h-27.435v-10.791l13.421.269 13.425.272.294 5.125Zm-71.365 0h-27.435l.291-5.125.294-5.125 13.421-.272 13.429-.269Zm176.693 18.546h-26.358V131.65l25.111.257 25.111.265 1.523 4.131 1.527 4.134 1.433-4.134 1.428-4.131 25.138-.265 25.137-.257v10.768h-13.179c-12.998 0-13.179-.027-13.243-2.192l-.057-2.2-.888 2.2-.881 2.192h-49.689l-.975-2.684-.983-2.683-.079 2.683Zm-63.606 0h-69.157v-10.734h38.071c30.882 0 38.071.242 38.071 1.285 0 .711-1.572 3.126-3.492 5.371Zm-113.087 0h-27.435l.291-5.121.294-5.125 13.421-.276 13.429-.269Zm256.743 19.529h-26.358v-10.742h26.358Zm-34.352 0h-37.013l-1.296-3.175c-.714-1.746-1.599-4.161-1.969-5.367l-.673-2.2h22.031c12.117 0 22.031.363 22.031.805 0 .439-.699 2.854-1.554 5.367Zm-45.698 0h-26.358v-10.742h26.358Zm-94.205 0h-38.558v-10.742h69.157l3.973 4.638c2.188 2.551 3.98 4.966 3.983 5.367.004.404-17.348.737-38.555.737Zm-82.488 0h-13.017c-7.162 0-13.307-.295-13.666-.654-.359-.359-.654-2.774-.654-5.371v-4.717h27.337Zm256.743 18.546h-26.358v-10.742h26.358Zm-40.21 0h-25.863l-1.198-4.006c-.662-2.204-1.437-4.619-1.724-5.367-.434-1.134 2.211-1.369 15.689-1.369 8.912 0 16.21.363 16.21.806 0 .438-.699 2.857-1.557 5.37Zm-39.84 0h-26.358v-10.742h26.358Zm-49.837 0h-29.234v-10.742h13.647c15.266 0 13.671-.801 15.062 7.571Zm-55.593 0h-27.333v-10.742h27.333Zm-71.263 0h-27.337v-10.742h27.337Zm274.314 18.55h-43.929v-10.742h43.929Zm-63.76 0h-14.015l-1.493-5.371-1.496-5.371h10.223c8.349 0 10.13.25 9.702 1.365-.287.748-1.062 3.167-1.723 5.367Zm-33.861 0h-43.929v-10.742h43.929Zm-54.569 0h-96.744v-10.742h49.784c49.402 0 49.787.019 49.787 1.985 0 1.092-.631 3.507-1.409 5.367Zm-103.578 0H90.876v-10.742h62.479Zm255.768 18.546h-43.929v-10.738h43.929Zm-70.465 0c-.934 0-2.597-3.901-3.432-8.054-.521-2.589-.393-2.684 3.594-2.684 3.134 0 4.003.329 3.61 1.361-.291.752-1.066 3.167-1.724 5.371-.661 2.203-1.583 4.006-2.048 4.006Zm-27.156 0h-43.929v-10.738h43.929Zm-114.765 0h-36.65l.294-5.125.295-5.125 44.663-.253c28.036-.159 44.659.094 44.659.68 0 1.572-6.433 5.953-11.664 7.941-4.569 1.738-7.778 1.882-41.597 1.882Zm-43.28 0H90.876v-10.768l30.996.261 30.992.257.299 5.125Z"/><path d="M137.217 413.206V306.565h28.199q18.676 0 29.773 11.866 11.096 11.865 11.315 32.519v17.285q0 21.021-11.096 32.996-11.096 11.975-30.578 11.975Zm21.534-88.696v70.825h6.445q10.766 0 15.161-5.676 4.395-5.677 4.614-19.593v-18.53q0-14.941-4.175-20.837-4.174-5.896-14.209-6.189Zm63.195 88.696V306.565h32.959q16.699 0 25.378 7.434 8.679 7.435 8.679 21.79 0 8.13-3.589 13.989-3.588 5.86-9.814 8.57 7.178 2.05 11.06 8.239 3.881 6.189 3.881 15.271 0 15.528-8.532 23.438-8.533 7.91-24.72 7.91Zm21.533-46.362v28.491h13.769q5.787 0 8.79-3.589 3.002-3.589 3.002-10.181 0-14.355-10.4-14.721Zm0-15.674h11.206q12.671 0 12.671-13.11 0-7.251-2.93-10.401-2.929-3.149-9.521-3.149h-11.426Zm123.856 62.036h-62.842v-14.648l28.858-36.695q5.493-7.617 8.093-13.366 2.6-5.75 2.6-11.023 0-7.105-2.454-11.133-2.453-4.029-7.068-4.029-5.053 0-8.02 4.688-2.966 4.687-2.966 13.184h-20.801q0-9.815 4.065-17.945t11.426-12.634q7.361-4.504 16.663-4.504 14.282 0 22.155 7.873 7.874 7.874 7.874 22.376 0 9.008-4.358 18.274-4.358 9.265-15.784 22.814l-13.696 19.556h36.255Z" style="fill:#fff;white-space:pre"/></svg>