<svg viewBox="0 0 280.098 280.098" style="enable-background:new 0 0 280.098 280.098" xmlns="http://www.w3.org/2000/svg"><path style="fill:#a7daf2" d="m.031.07 69.753 26.253L140.097.07l69.963 26.253L280.067.07v253.775l-70.182 26.253-70.051-26.253-69.928 26.253L.039 253.845V.07H.031Z"/><path style="fill:#6dc0e9" d="m70.037 279.984 69.797-26.2.21.078V.026L70.037 26.165zM210.06 26.261v253.705l70.007-26.182V.009z"/><path style="fill:#ffd770" d="M210.06 26.261 140.097.009 113.17 10.055c-45.321 52.19-28.397 96.058 31.678 150.48 50.676 45.898 103.059 72.763 135.209 49.486V0L210.06 26.261Z"/><path style="fill:#94d192" d="M280.067.009 210.06 26.261 140.097.009l-.096.035c-62.367 52.864-31.809 83.107 22.682 133.267 44.008 40.525 79.239 64.056 117.384 41.724-.394-17.467 0-174.93 0-175.026Z"/><path style="fill:#ffc429" d="M210.06 26.261V207.01c27.163 13.293 51.823 16.189 70.007 3.019V.009L210.06 26.261ZM140.044.026 125.308 5.53l-12.137 4.533c-44.061 50.729-29.167 93.625 26.874 145.964-.001.001-.001-156.001-.001-156.001Z"/><path style="fill:#49b276" d="M280.067.009 210.06 26.261v144.485c24.056 14.351 46.485 18.053 70.007 4.279-.394-17.457 0-174.92 0-175.016ZM140.044.026l-.026.009-.018.009c-53.03 44.944-38.863 73.542.044 111.923V.026Z"/></svg>