<svg xmlns="http://www.w3.org/2000/svg" width="512" height="512"><ellipse style="fill:#fff;fill-opacity:1;fill-rule:nonzero;stroke:#4169e1;stroke-width:0;stroke-linecap:round;stroke-linejoin:miter;stroke-miterlimit:4;stroke-dasharray:none;stroke-opacity:1" transform="translate(-67.184 -59.107) scale(1.16129)" cx="278.78" cy="273.356" rx="137.763" ry="134.508"/><path d="M222.262 503.315c-4.3-1.92-8.876-6.832-10.917-11.723-1.052-2.52-2.102-12.21-3-27.695-.761-13.099-1.763-24.861-2.226-26.138-.615-1.694-3.62-3.291-11.111-5.907-5.648-1.972-14.153-5.539-18.9-7.926-4.748-2.387-9.666-4.34-10.93-4.34-1.418 0-9.173 6.307-20.242 16.46-9.869 9.054-19.538 17.279-21.488 18.279-4.014 2.058-13.044 2.393-17.708.657-3.707-1.381-42.932-40.034-45.447-44.786-2.494-4.713-2.227-13.528.571-18.869 1.274-2.431 9.57-12.284 18.437-21.895 9.544-10.346 16.12-18.377 16.12-19.687 0-1.218-1.953-6.098-4.34-10.845-2.386-4.747-5.945-13.23-7.908-18.851-1.963-5.62-4.372-10.636-5.353-11.145-.982-.508-12.503-1.516-25.602-2.238-15.235-.84-25.488-1.911-28.455-2.973-5.653-2.024-12.166-8.956-13.086-13.928-.373-2.016-.526-16.956-.34-33.199l.34-29.532 3.394-4.255c5.999-7.519 8.818-8.274 37.47-10.036 16.218-.998 26.076-2.054 26.895-2.882.71-.718 3.14-6.291 5.4-12.384 2.26-6.093 5.79-14.43 7.847-18.528 2.056-4.097 3.738-8.35 3.738-9.451 0-1.1-6.783-9.442-15.073-18.535-8.29-9.094-16.22-18.051-17.623-19.905-3.942-5.215-5.276-11.672-3.716-17.998 1.178-4.776 3.336-7.366 21.354-25.628 11.024-11.174 21.893-21.269 24.153-22.433 5.246-2.702 13.587-2.74 18.796-.084 2.193 1.118 11.815 9.218 21.382 18.001 9.566 8.783 18.042 16.337 18.834 16.787.835.474 5.989-1.337 12.26-4.307 5.95-2.819 14.852-6.485 19.784-8.147 6.686-2.253 9.28-3.693 10.203-5.663.681-1.453 1.849-13.36 2.595-26.459 1.435-25.192 2.298-29.175 7.492-34.598 5.779-6.033 9.102-6.528 41.4-6.166l29.419.33 4.602 3.048c7.918 5.243 8.877 8.503 10.742 36.534.902 13.568 1.887 25.726 2.189 27.018.424 1.818 2.848 3.152 10.731 5.904 5.601 1.956 14.571 5.76 19.933 8.453 5.362 2.693 10.179 4.896 10.704 4.896.525 0 9.134-7.508 19.131-16.684C374.71 74.686 384.74 66.212 387 65.03c5.343-2.793 13.297-2.768 19.14.061 2.776 1.344 12.202 9.922 24.04 21.879 20.322 20.524 21.924 22.872 21.94 32.167.011 6.574-2.916 10.887-20.387 30.04-9.5 10.415-17.271 19.377-17.271 19.917 0 .54 2.479 6.15 5.51 12.467 3.03 6.316 6.644 15.163 8.03 19.659 1.724 5.585 3.224 8.472 4.738 9.115 1.218.517 13.466 1.643 27.218 2.502 27.29 1.705 31.685 2.827 36.26 9.263 4.326 6.083 4.83 10.643 4.455 40.366l-.359 28.433-3.338 4.748c-5.962 8.477-7.468 8.91-37.743 10.886-14.793.966-27.156 2.015-27.473 2.332-.317.317-2.154 5.046-4.081 10.507-1.928 5.462-5.718 14.338-8.423 19.724-2.705 5.387-4.766 10.459-4.58 11.271.187.812 7.568 9.357 16.402 18.989 8.835 9.631 17.185 19.723 18.555 22.427 2.912 5.743 3.182 11.823.78 17.57-2.118 5.073-38.092 41.638-43.939 44.664-4.889 2.53-13.794 2.8-18.912.577-1.96-.852-11.79-9.075-21.843-18.274-10.053-9.198-19.078-16.726-20.055-16.729-.977-.003-6.64 2.268-12.584 5.046-5.944 2.777-14.752 6.35-19.573 7.938-6.664 2.195-8.895 3.442-9.303 5.197-.296 1.27-1.277 13.41-2.18 26.978-1.985 29.843-3.125 33.078-13.517 38.34-3.014 1.526-8 1.789-33.234 1.752-22.332-.033-30.511-.411-33.011-1.527zm43.757-132.504c26.781-2.807 49.157-13.488 68.206-32.559 14.52-14.535 23.888-30.844 29.529-51.405 3.536-12.89 3.515-41.352-.04-54.4-10.79-39.594-39.133-68.746-78.309-80.541-9.128-2.749-11.607-3.01-29.356-3.087-17-.074-20.545.232-28.802 2.486-41.23 11.256-72.763 44.384-81.38 85.498-7.741 36.938 3.578 74.64 30.546 101.742 14.12 14.19 32.44 24.601 52.29 29.716 5.66 1.458 13.691 2.582 25.13 3.517.915.074 6.398-.36 12.186-.967zm-27.47-46.444c-28.248-7.66-48.016-31.7-49.767-60.518-1.224-20.149 5.26-37.196 19.569-51.448 26.058-25.955 67.666-26.198 93.394-.546 21.19 21.128 26.275 51.178 13.122 77.555-11.202 22.466-31.84 35.724-57.152 36.716-8.618.338-12.88-.053-19.167-1.759zm31.601-27.934c7.802-2.92 17.108-11.569 21.022-19.54 2.762-5.624 3.095-7.496 3.095-17.38 0-10.516-.192-11.434-3.796-18.08-7.274-13.417-18.068-20.216-33.314-20.984-12.248-.618-19.578 1.976-28.42 10.057-11.21 10.245-15.67 24.488-12.07 38.542 3.116 12.165 9.719 20.425 20.824 26.052 10.36 5.25 21.026 5.686 32.66 1.333z" style="fill:#869094"/><circle r="165.005" cy="259.106" cx="256.525" style="fill:#fff;fill-opacity:1;fill-rule:nonzero;stroke:none;stroke-width:1.28815722"/><path d="M233.61 426.423c-35.924-4.71-69.244-21.43-96.076-48.215-23.521-23.478-38.662-51.112-46.495-84.862-1.743-7.51-4.794-19.57-4.747-39.018.055-22.982 2.543-28.618 6.01-39.643 15.44-49.094 43.806-83.334 87.807-105.788 39.358-20.085 87.785-23.555 130.169-9.328 40.636 13.641 77.578 45.888 96.893 84.577 32.212 64.523 19.256 142.404-32.294 194.128a168.436 168.436 0 0 1-141.267 48.15zm-47.423-24.15c-.239-1.041-.772-4.748-1.185-8.236-.683-5.767-.378-6.717 3.351-10.447 5.339-5.338 10.09-5.345 32.632-.044 9.491 2.232 23.464 5.035 31.052 6.23 17.162 2.702 59.009 3.047 74.21.612 12.35-1.979 33.005-7.51 38.334-10.266 5.82-3.01 25.48-26.548 23.677-28.35-.43-.43-7.006.775-14.614 2.677-26.2 6.55-38.542.348-64.18-.425-44.367-1.338-80.824-10.666-140.552-35.963-35.753-15.143-44.597-8.778-53.608.233-6.782 6.783-6.966 9.99-1.173 20.554 13.2 24.074 35.421 46.845 59.446 60.917 8.954 5.244 13.441 6.137 12.61 2.508zm225.343-95.619c.724-1.661 2.194-7.25 3.266-12.419 1.776-8.562 1.753-9.547-.26-11.076-1.214-.923-3.032-1.678-4.04-1.678-3.74 0-25.045-9.68-36.486-16.576-21.976-13.249-49.665-35.712-88.711-71.97-38.408-35.665-49.91-44.854-64.69-51.683-17.502-8.087-40.866-9.497-64.196-3.875-8.621 2.077-10.945 3.297-16.163 8.487-11.905 11.84-23.099 27.499-30.245 42.31-11.528 23.893-11.031 40.95 3.509 28.607 11.051-9.382 22.068-10.472 33.172-12.37 7.247-1.24 18.024.412 26.629 2.33 17.758 3.955 30.421 16.865 76.406 49.504 52.056 36.948 61.304 36.917 96.778 51.043 15.319 6.1 54.81 2.2 60.666 2.323 1.916.04 3.538-1.059 4.365-2.957zm-4.635-84.509c4.323-3.795 4.811-4.856 4.23-9.191-1.037-7.728-9.622-27.448-17.373-39.905-9.145-14.697-31.65-37.76-46.024-47.162-21.218-13.88-41.436-21.999-65.563-26.326-21.492-3.855-65.919-.936-67.714 4.45-.372 1.116 1.936 1.595 7.689 1.595 35.895 0 66.546 9.991 89.779 29.266 13.79 11.439 23.448 22.302 39.246 44.138 26.57 36.726 36.99 47.03 47.869 47.341 1.635.047 5.173-1.846 7.86-4.206z" style="fill:#367bf0;fill-opacity:1;stroke-width:1.39689767"/></svg>