<svg xmlns="http://www.w3.org/2000/svg" width="32" height="32" version="1"><path style="opacity:.2" d="m8.482 9.143-4.748 5.699c-.98 1.174-.978 3.14 0 4.315l9.967 11.961c.98 1.175 2.618 1.176 3.597.002l9.968-11.962c.979-1.175.979-3.142 0-4.316l-4.749-5.7Z"/><path style="fill:#4f4f4f" d="m8.482 8.143-4.748 5.699c-.98 1.174-.978 3.14 0 4.315l9.967 11.961c.98 1.175 2.618 1.176 3.597.002l9.968-11.962c.979-1.175.979-3.142 0-4.316l-4.749-5.7Z"/><path style="opacity:.2" d="M15.5 2a2.74 2.74 0 0 0-1.944.792L2.792 13.557c-1.057 1.058-1.056 2.827.002 3.884l10.764 10.765c1.057 1.058 2.828 1.059 3.885.002l10.764-10.765c1.057-1.058 1.057-2.828 0-3.886L17.443 2.792A2.74 2.74 0 0 0 15.5 2Z"/><path style="fill:#e4e4e4" d="M15.5 1a2.74 2.74 0 0 0-1.944.792L2.792 12.557c-1.057 1.058-1.056 2.827.002 3.884l10.764 10.765c1.057 1.058 2.828 1.059 3.885.002l10.764-10.765c1.057-1.058 1.057-2.828 0-3.886L17.443 1.792A2.74 2.74 0 0 0 15.5 1Z"/><path style="fill:#008f23" d="m15.348 2.99-.143.094-.06.182-.028.195-.094.309-.066-.104.031.377-.02.084v.143l.055.11.05.153.093.123.04.053.028.143-.117.087.049.127-.115.143.021.111.03.114.093.11.082.104.116.098.02.084-.042.123-.094.082-.043.07.014.176.145.092.082.088.05.178-.154.18-.023.126.064.143.092.113v.113l.07.088.065.073.049.084-.03.142.092.131.084.02.031.064-.031.113.08.16.084.065.063.13-.063.227.094.205.088.04.045.093.017.264-.049.113-.045.131.135.666.235.152-.018 2.887-.275 3.121-.164 1.805-.266 2.193-.104.264-.875-1.492-.3-2.002-.389-3.252-.463-3.014.035 2.752.162 2.275.28 2.168-1.954-3.08-2.806-4.185-.645-.889h-.052l.185.533.352.866.511 1.156.895 1.908.541.959.67 1.156 1.383 2.178 1.25 1.979.193 1.771.596 4.049-.002-.002-.688-2.129-1.457-3.568-1.162-2.399-1.54-2.49-.782-1.023-.625-.622-1.02-.941.424.52.684.695.404.451.266.459.318.51.524.89.453.827.46 1.023.567 1.367 1.107 2.848 1.163 3.006.697 2.125.008.029c.314.05.635.053.949-.004l-.281-1.807.035-.484.205-.724.219-.667.234-.523.77 1.281.746 1.358.058.27 1.254-1.255.426-3.181 1.107-5.338.715-3.621 1.447-2.854.215-.592.08-.35.03-.562-.088-.449-.21-.408-.376-.377.02.103.185.192.172.402.021.322-.236.647-.305.693-.656 1.172.365-2.703.1-1.387-.04-.04-.09-.016-.734 4.855-.136.244-1.207 2.258-1.54 3.035-1.294 2.633-.719 1.836-.408-.695.254-.524 1.408-2.687 1.428-2.37.595-1.154.493-.96.132-.327.03-.32-.059-.244h-.06l-.043.215-.247.562-.595 1-1.703 2.604-.97 1.43-.663 1.17.408-4.03.152-1.717.065-3.633h-.012l.031-.12.094-.227.072-.205.09-.153v-.299l-.03-.377.134-.244-.06-.357v-.27l.05-.152.103-.338.073-.18-.137-.226.117-.225-.187-.133-.114-.335.163-.266-.227-.072-.098-.178v-.15l-.101-.172-.106-.094.012-.143v-.156l-.05-.426-.034-.244-.154-.113-.073-.133-.173-.082-.102-.186.018-.21-.018-.215-.115-.186-.195-.04-.184-.063-.092-.133-.064-.143zm5.355 11.79-.197.818-.89 3.543-.434 2.011-.453 2.434-.502 1.586-.176-.41-1.143-2.106.383-.886 1.25-2.604.67-1.4.896-1.881.596-1.106zm1.108 2.638-.165.94-.462 1.56-.461 1.156-.512 1.504-.272 1.477-.127.783.866-.865.074-.594.246-1.174.537-2.1.244-1.556.032-1.131zM8.305 18.426l.039.039-.012-.02-.027-.02zm.039.039.584 1.105.537 1.24.808 1.827.354.806.414 1.246 2.137 2.137-.178-.664-.375-.707-.816-1.55-1.153-2.067-.812-1.326-.752-1.145-.408-.564-.34-.338zm6.842 3.236.373.621-.079 1.45-.06.042-.234-2.113zm.63 1.043.215.358-.166.39-.125.088.076-.836z"/><path style="fill:#fff;opacity:.2" d="M15.5 1c-.707 0-1.415.264-1.943.793L2.793 12.557c-.652.651-.898 1.574-.746 2.433a2.71 2.71 0 0 1 .746-1.433L13.557 2.793A2.741 2.741 0 0 1 15.5 2c.707 0 1.415.264 1.943.793l10.764 10.764c.403.403.65.911.746 1.443a2.763 2.763 0 0 0-.746-2.443L17.443 1.793A2.741 2.741 0 0 0 15.5 1z"/></svg>