<svg width="361" height="361" viewBox="-52.5 0 361 361" preserveAspectRatio="xMidYMid" xmlns="http://www.w3.org/2000/svg"><path d="m286.754 0-28.926 324.041-130.022 36.047-129.664-35.996L-30.754 0h317.508Z" fill="#E44D26"/><path d="m128 332.535 105.064-29.127 24.72-276.909H128v306.036Z" fill="#F16529"/><path d="M71.77 105.997H128V66.248H28.33l.95 10.664 9.77 109.537H128V146.7H75.402l-3.632-40.703Zm8.958 100.327H40.826l5.57 62.41 81.421 22.604.183-.051v-41.355l-.174.046-44.268-11.953-2.83-31.701Z" fill="#EBEBEB"/><path d="M127.863 186.449h48.946l-4.614 51.55-44.332 11.966v41.354l81.486-22.585.598-6.715 9.34-104.645.97-10.674h-92.394v39.749Zm0-80.549v.097h96.011l.798-8.934 1.81-20.15.951-10.665h-99.57V105.9Z" fill="#FFF"/></svg>