<svg xmlns="http://www.w3.org/2000/svg" viewBox="0 0 32 32" style="enable-background:new 0 0 32 32" xml:space="preserve"><path d="M28 31.36H4a.36.36 0 0 1-.36-.36v-6c0-.09.034-.177.095-.243L19.682 7.36H4A.36.36 0 0 1 3.64 7V1A.36.36 0 0 1 4 .64h24a.36.36 0 0 1 .36.36v6c0 .09-.034.177-.095.243L12.318 24.64H28a.36.36 0 0 1 .36.36v6a.36.36 0 0 1-.36.36zm-4.415-.72h4.055v-5.28H13.025l10.56 5.28zm-14.502 0h12.892l-10.313-5.156-2.579 5.156zm-4.723 0h3.917l2.74-5.479-4.578-2.289L4.36 25.14v5.5zm2.585-8.32 4.394 2.197 7.689-15.379L6.945 22.32zM20.661 7.483l-7.689 15.379L25.055 9.68l-4.394-2.197zm.322-.644 4.577 2.289 2.08-2.268v-5.5h-3.917l-2.74 5.479zM4.36 6.64h14.615L8.415 1.36H4.36v5.28zm5.665-5.28 10.314 5.157 2.579-5.157H10.025z"/><path style="fill:none" d="M0 0h32v32H0z"/></svg>