<svg xmlns="http://www.w3.org/2000/svg" width="32" height="32"><path style="opacity:.2" d="M3.021 5.276v22.882s-.207 1.236.677 1.496L12 32l8-2.579 7.77 2.22c1.315.467 1.222-.934 1.222-.934V7.643c.122-1.199-1.184-1.446-1.184-1.446L20 4l-8 2.579-7.848-2.247s-1.131-.32-1.131.944z"/><path style="fill:#ffc107" d="M3.021 4.276v22.882s-.207 1.236.677 1.496L12 31l8-2.579 7.77 2.22c1.315.467 1.222-.934 1.222-.934V6.643c.122-1.199-1.184-1.446-1.184-1.446L20 3l-8 2.579-7.848-2.247s-1.131-.32-1.131.944z"/><path style="fill:#0c7bd4" d="m19.39 3.197-3.425 1.104c-.759.894-1.203 1.963-1.203 3.47 0 2.069.817 2.506 1.084 3.5.505 1.89.7 3.22 1.304 4.774.832 2.138.13 5.511 1.016 7.637.506 1.212.775 1.432 2.168 2.068.31.318.773.953.928 1.271.296.61.279 1.35.427 1.883l6.08 1.737c.494.175.79.087.965-.09.153-.154.203-.366.229-.543.004-.028.02-.063.023-.088v-.002c.012-.124.006-.211.006-.211v-.355c-.64-5.99-4.645-6.92-6.314-8.352-1.88-1.614-.679-3.157-1.416-5.432-.176-.54-.618-2.387-.928-2.705-1.393-.954-2.167-1.909-2.63-3.5-.914-3.13 1.74-5.029 1.687-6.166zM8.985 26.682a1.546 1.546 0 0 0-.412.023c-1.292.244-1.238 1.75-2.476 1.432-.63-.162-1.492.074-2.043.617L12 31l4.44-1.43c-.966-1.496-3.719-3.723-4.44-2.388-.948.417-2.073-.426-3.016-.5z"/><path style="fill:#4caf50" d="M3.896 3.309a1.066 1.066 0 0 0-.244.017c-.032.006-.063.008-.095.018-.02.006-.04.017-.06.025a.694.694 0 0 0-.24.168.765.765 0 0 0-.12.193c-.016.033-.035.062-.047.1-.04.122-.068.264-.069.445v7.168c.297-.14.698-.33.907-.33.672 0 1.084.16 1.77.069.422-.057.711-.468 1.105-.569.371-.095.86-.066 1.217-.25.486-.25 1.17-1 1.546-2.613.11-.467-.132-.978-.132-1.455 0-.29.297-.854.566-1.29l-5.842-1.67-.006-.002H4.15s-.135-.014-.254-.023z"/><path style="fill:#81c784" d="m15.845 13.34-.31-1.272-1.702 1.432.31 1.273z"/><path style="fill:#4d7687" d="M7.333 24.318 12 24l1.679-1.273v-3.022L12 20.977l-4.667.478Z"/><path style="fill:#df5050" d="m13.77 17.16-.465-2.355-1.305.922-2.19.478-.774-3.978-3.25.796 1.238 6.761L12 18.591Z"/><path style="fill:#ff8a65" d="M25.286 7.773v2.863l2.63.796V8.568Z"/><path style="fill:#00bcd4" d="m12 6.818 3.536-1.273v1.273l-.929.318v.423L12 8.569l-.798-.16V6.66Z"/><path style="fill:#b89b00" d="m23.274 17.477 2.63 1.75.93-1.272-2.632-1.75zm3.404-4.773-.928 1.274 2.63 1.75.612-.838v-.647zm-2.166 3.023 2.63 1.75.93-1.272-2.632-1.75z"/><path style="fill:#646464" d="m5.26 13.563-.464.16 1.052 6.204-.145 5.175.527-.082.144-5.124zm.97 11.457-.011.38-.526.032.01-.33-.072.012-2.61 1.877v.166s-.055.354.026.723l2.739-1.97.309-.097L12 25.432l2.453-1.75-.156-.796L12 24.636l-5.75.381z"/><ellipse style="fill:#222;stroke:#fff;stroke-width:.25105834;stroke-linecap:round;stroke-linejoin:round" cx="5.956" cy="25.448" rx=".418" ry=".43"/><ellipse style="fill:#222;stroke:#fff;stroke-width:.25105834;stroke-linecap:round;stroke-linejoin:round" cx="14.452" cy="23.22" rx=".418" ry=".43"/><ellipse style="fill:#222;stroke:#fff;stroke-width:.25105834;stroke-linecap:round;stroke-linejoin:round" cx="5.012" cy="13.675" rx=".418" ry=".43"/><ellipse style="fill:#222;stroke:#fff;stroke-width:.25105834;stroke-linecap:round;stroke-linejoin:round" cx="6.095" cy="19.911" rx=".418" ry=".43"/><path style="fill:#fff;opacity:.3" d="M3.021 4.276v22.882s-.207 1.236.677 1.496L12 31V5.579L4.152 3.332s-1.131-.32-1.131.944zM20 28.421l7.77 2.22c1.315.467 1.222-.934 1.222-.934V6.643c.122-1.199-1.184-1.446-1.184-1.446L20 3Z"/><path style="opacity:.1" d="M25.965 2c-1.188.037-2.243 1.15-2.647 1.875l-8.006 14.654-.228 4.012L15 24l1.143-.838 3.142-2.307.102-.074 8.177-14.773c.922-1.568.246-3.4-.761-3.844A1.91 1.91 0 0 0 25.965 2Z"/><path style="fill:#b1a390" d="m15.313 17.529-.23 4.013 1.06.62 3.142-2.306z"/><path style="fill:#fff;opacity:.2" d="m20 3-8 2.578-7.848-2.246s-1.13-.32-1.13.943v1c0-1.263 1.13-.943 1.13-.943L12 6.578 20 4l7.807 2.197s1.307.247 1.185 1.446v-1c.122-1.2-1.185-1.446-1.185-1.446L20 3zM3.021 27.158s-.03.253 0 .545v-.545z"/><path style="fill:#505050" d="M15.083 21.542 15 23l1.143-.838Z"/><path style="fill:#a15f34" d="M25.965 1.001c-1.188.037-2.243 1.15-2.647 1.875l-8.005 14.653 3.972 2.327.102-.074 8.177-14.775c.922-1.567.246-3.4-.762-3.843a1.909 1.909 0 0 0-.837-.163Z"/></svg>