<svg xmlns="http://www.w3.org/2000/svg" width="128" height="128"><path d="M24.827 12.269v3.125h5.506v37.052h-5.506v3.05H59.5V44.709h-3.572V52H36.211V15.394h5.506v-3.125h-16.89zm56.918 3.274L66.269 55.72h-3.794v3.125h12.202V55.72h-4.762l3.646-9.45h18.154l3.646 9.45h-4.837v3.125h15.774V55.72h-4.241L86.58 15.543h-4.836zm.967 6.993 7.887 20.61H74.75l7.961-20.61zM12.476 59.142v10.193h3.572V62.64H28.77v36.755h-5.505v3.05h16.89v-3.05h-5.507V62.639h12.723v6.696h3.497V59.142H12.476zm61.606 3.05v3.051h4.612l12.649 18.973-12.425 18.154h-4.985v3.05h14.285v-3.05h-5.58l10.565-15.476 10.342 15.476H98.41v3.05h17.113v-3.05h-4.613L97.22 81.91l11.458-16.667h4.91v-3.05H99.38v3.05h5.58l-9.524 13.988-9.3-13.988h5.133v-3.05H74.082zM42.089 73.8v3.05h5.505v37.127H42.09v3.05h35.34v-9.598h-3.57v6.027H53.545v-18.08h14.137v5.432h3.571V86.374h-3.571v5.43H53.546V77.297h19.866v6.101h3.571V73.8H42.09z"/></svg>