<svg width="512" height="512" viewBox="0 -188 512 512" preserveAspectRatio="xMidYMid" xmlns="http://www.w3.org/2000/svg"><defs><linearGradient x1="-6.234%" y1="45.374%" x2="103.068%" y2="58.975%" id="a"><stop stop-color="#8AC443" offset="0"/><stop stop-color="#75B843" offset="1"/></linearGradient><linearGradient x1="-10.801%" y1="43.538%" x2="110.996%" y2="56.986%" id="b"><stop stop-color="#75B843" offset="0"/><stop stop-color="#4B9744" offset="1"/></linearGradient><linearGradient x1="108.51%" y1="41.458%" x2="-3.274%" y2="65.747%" id="c"><stop stop-color="#C1DB74" offset="0"/><stop stop-color="#ACD259" offset="1"/></linearGradient><linearGradient x1="129.073%" y1="38.386%" x2="-25.413%" y2="61.919%" id="d"><stop stop-color="#ACD259" offset="0"/><stop stop-color="#8AC443" offset="1"/></linearGradient></defs><path d="M377.4 54.3c1.3 1.5 26 9.7 34.5 19.7 8.6 10 12.3 18.9 11.1 27.5-1.2 8.6-6.5 8.4-8.7 11.6-2.3 3.1-5.5 7-11.5 6.6-8-.5-16.2-4.5-22.1-18.3-5.9-13.8-5.5-26.8-5-34 .4-7.3 1.7-13.1 1.7-13.1Z" fill="url(#a)" transform="translate(-1345.702 -180.74) scale(3.62903)"/><path d="m378.1 56.6 37 55.2-1.7 1.9-35.3-57.1Z" fill="url(#b)" transform="translate(-1345.702 -180.74) scale(3.62903)"/><path d="M4.9 306.849c-18.758-43.748 20.81 20.838 43.31-36.138.362 3.629-3.992 10.161 2.177 9.435 44.274-19.96 119.758-62.782 133.185-74.032 14.517-12.339 34.113-11.976 52.984-16.33 34.476-7.984 71.13-15.968 100.887-33.388 18.509 12.702 56.976 19.234 77.299 14.516 21.411-4.717 54.798-40.282 72.58-52.983 6.896-5.081 17.42-14.517 24.678-9.073-5.08 3.629.726 13.79-5.444 11.976-3.266-6.17-9.798 1.088-14.516-.363-17.782 14.879-36.653 28.67-54.798 42.822-8.71 5.081 8.347 10.525-1.815 12.34-47.177 9.435-119.395-14.154-149.153 18.507-47.177 16.33-91.814 20.323-138.266 45.363-26.855 14.516-59.516 40.645-87.46 54.436-4.717 2.177-11.613 3.266-17.056 6.532-6.895 3.992-8.347 9.435-14.153 10.524-14.154 2.903-16.933 13.355-24.438-4.144Z" fill="#3D3D3C"/><path d="M472.6 0c-1.7 2.8-40.9 23-52.6 41.9-11.8 19-15.1 33.9-10.8 47.9 4.3 14 12.4 13.4 17 18s10.9 10.2 21 8c13.2-3 25.9-11.8 32.2-36.4 6.3-24.6 2.2-46.2-.5-58.1C476.2 9.4 472.6 0 472.6 0Z" fill="url(#c)" transform="translate(-1345.702 -180.74) scale(3.62903)"/><path d="M471.9 4.2 424.4 106l2.8 2.8L471.9 4.2Z" fill="url(#d)" transform="translate(-1345.702 -180.74) scale(3.62903)"/></svg>