<svg viewBox="0 0 512 512" xmlns="http://www.w3.org/2000/svg"><defs><linearGradient gradientUnits="userSpaceOnUse" x1="276.001" y1="0" x2="276.001" y2="511.992" id="a" gradientTransform="translate(107.577 106.697) scale(.5815)"><stop offset="0" style="stop-color:#f8f9fc"/><stop offset="1" style="stop-color:#e3e3e3"/></linearGradient><linearGradient gradientUnits="userSpaceOnUse" x1="56.004" y1="143.998" x2="56.004" y2="511.992" id="b" gradientTransform="translate(107.577 106.697) scale(.5815)"><stop offset="0" style="stop-color:#e6e6e6"/><stop offset="1" style="stop-color:#c4c4c4"/></linearGradient></defs><path d="M423.216 59.519c0 1.14-.463 2.172-1.209 2.918a4.116 4.116 0 0 1-2.919 1.209c-13.739 0-25.701-7.772-31.719-19.153l.003-.004-.003.004-.003-.004.003.004c-6.015 11.381-17.979 19.153-31.716 19.153-13.741 0-25.703-7.772-31.721-19.153l.003-.004-.003.004-.003-.004.003.004c-6.015 11.381-17.976 19.153-31.716 19.153-13.74 0-25.7-7.772-31.716-19.152v-.001l.002-.004a.008.008 0 0 1-.002.004l-.003-.004.003.004c-6.019 11.381-17.981 19.153-31.72 19.153-13.737 0-25.701-7.772-31.717-19.152v-.001l.002-.004a.008.008 0 0 1-.002.004l-.003-.004.003.004c-6.018 11.381-17.98 19.153-31.719 19.153a4.116 4.116 0 0 1-2.919-1.209 4.115 4.115 0 0 1-1.209-2.918c0-1.141.486-2.151 1.209-2.921.769-.723 1.777-1.21 2.919-1.21 7.607 0 14.505-3.094 19.5-8.089 4.995-4.995 8.089-11.892 8.089-19.499 0-1.141.486-2.15 1.21-2.919.77-.724 1.779-1.209 2.92-1.209 1.14 0 2.172.463 2.918 1.209a4.116 4.116 0 0 1 1.209 2.919c0 7.607 3.095 14.504 8.091 19.499 4.996 4.995 11.894 8.089 19.499 8.089 7.607 0 14.505-3.094 19.5-8.089 4.995-4.995 8.089-11.892 8.089-19.499 0-1.141.486-2.15 1.21-2.919.77-.724 1.78-1.209 2.921-1.209 1.141 0 2.15.486 2.918 1.209.724.769 1.209 1.778 1.209 2.919 0 7.607 3.072 14.527 8.09 19.499 4.973 5.018 11.894 8.089 19.499 8.089 7.605 0 14.526-3.071 19.498-8.089 5.019-4.972 8.091-11.892 8.091-19.499 0-1.141.485-2.15 1.209-2.919.768-.723 1.777-1.209 2.918-1.209 1.141 0 2.151.485 2.921 1.209.724.769 1.21 1.778 1.21 2.919 0 7.607 3.071 14.527 8.089 19.499 4.973 5.018 11.894 8.089 19.501 8.089 7.605 0 14.526-3.071 19.498-8.089 5.019-4.972 8.091-11.892 8.091-19.499 0-1.141.485-2.15 1.209-2.919.768-.723 1.777-1.209 2.918-1.209 1.14 0 2.151.486 2.921 1.209.723.769 1.21 1.777 1.21 2.919 0 7.607 3.094 14.504 8.089 19.499 4.995 4.995 11.893 8.089 19.499 8.089 1.142 0 2.151.487 2.92 1.21.723.771 1.208 1.78 1.208 2.921Zm-65.475 63.974c0 1.14-.463 2.172-1.209 2.918a4.116 4.116 0 0 1-2.919 1.209c-13.739 0-25.701-7.772-31.719-19.153l.003-.004-.003.004-.003-.004.003.004c-6.015 11.381-17.979 19.153-31.716 19.153-13.741 0-25.703-7.772-31.721-19.153l.003-.004-.003.004-.003-.004.003.004c-6.015 11.381-17.976 19.153-31.716 19.153-13.74 0-25.7-7.772-31.716-19.152v-.001l.002-.004a.008.008 0 0 1-.002.004l-.003-.004.003.004c-6.019 11.381-17.981 19.153-31.72 19.153-13.737 0-25.701-7.772-31.717-19.152v-.001l.002-.004a.008.008 0 0 1-.002.004l-.003-.004.003.004c-6.018 11.381-17.98 19.153-31.719 19.153a4.116 4.116 0 0 1-2.919-1.209 4.115 4.115 0 0 1-1.209-2.918c0-1.141.486-2.151 1.209-2.921.769-.723 1.777-1.21 2.919-1.21 7.607 0 14.505-3.094 19.5-8.089 4.995-4.995 8.089-11.892 8.089-19.499 0-1.141.486-2.15 1.21-2.919.77-.724 1.779-1.209 2.92-1.209 1.14 0 2.172.463 2.918 1.209a4.116 4.116 0 0 1 1.209 2.919c0 7.607 3.095 14.504 8.091 19.499 4.996 4.995 11.894 8.089 19.499 8.089 7.607 0 14.505-3.094 19.5-8.089 4.995-4.995 8.089-11.892 8.089-19.499 0-1.141.486-2.15 1.21-2.919.77-.724 1.78-1.209 2.921-1.209 1.141 0 2.15.486 2.918 1.209.724.769 1.209 1.778 1.209 2.919 0 7.607 3.072 14.527 8.09 19.499 4.973 5.018 11.894 8.089 19.499 8.089 7.605 0 14.526-3.071 19.498-8.089 5.019-4.972 8.091-11.892 8.091-19.499 0-1.141.485-2.15 1.209-2.919.768-.723 1.777-1.209 2.918-1.209 1.141 0 2.151.485 2.921 1.209.724.769 1.21 1.778 1.21 2.919 0 7.607 3.071 14.527 8.089 19.499 4.973 5.018 11.894 8.089 19.501 8.089 7.605 0 14.526-3.071 19.498-8.089 5.019-4.972 8.091-11.892 8.091-19.499 0-1.141.485-2.15 1.209-2.919.768-.723 1.777-1.209 2.918-1.209 1.14 0 2.151.486 2.921 1.209.723.769 1.21 1.777 1.21 2.919 0 7.607 3.094 14.504 8.089 19.499 4.995 4.995 11.893 8.089 19.499 8.089 1.142 0 2.151.487 2.92 1.21.723.771 1.208 1.78 1.208 2.921Zm-62.634 63.974c0 1.14-.463 2.172-1.209 2.918a4.116 4.116 0 0 1-2.919 1.209c-13.739 0-25.701-7.772-31.719-19.153l.003-.004-.003.004-.003-.004.003.004c-6.015 11.381-17.979 19.153-31.716 19.153-13.741 0-25.703-7.772-31.721-19.153l.003-.004-.003.004-.003-.004.003.004c-6.015 11.381-17.976 19.153-31.716 19.153-13.74 0-25.7-7.772-31.716-19.152v-.001l.002-.004a.008.008 0 0 1-.002.004l-.003-.004.003.004c-6.019 11.381-17.981 19.153-31.72 19.153-13.737 0-25.701-7.772-31.717-19.152v-.001l.002-.004a.008.008 0 0 1-.002.004l-.003-.004.003.004c-6.018 11.381-17.98 19.153-31.719 19.153a4.116 4.116 0 0 1-2.919-1.209 4.115 4.115 0 0 1-1.209-2.918c0-1.141.486-2.151 1.209-2.921.769-.723 1.777-1.21 2.919-1.21 7.607 0 14.505-3.094 19.5-8.089 4.995-4.995 8.089-11.892 8.089-19.499 0-1.141.486-2.15 1.21-2.919.77-.724 1.779-1.209 2.92-1.209 1.14 0 2.172.463 2.918 1.209a4.116 4.116 0 0 1 1.209 2.919c0 7.607 3.095 14.504 8.091 19.499 4.996 4.995 11.894 8.089 19.499 8.089 7.607 0 14.505-3.094 19.5-8.089 4.995-4.995 8.089-11.892 8.089-19.499 0-1.141.486-2.15 1.21-2.919.77-.724 1.78-1.209 2.921-1.209 1.141 0 2.15.486 2.918 1.209.724.769 1.209 1.778 1.209 2.919 0 7.607 3.072 14.527 8.09 19.499 4.973 5.018 11.894 8.089 19.499 8.089 7.605 0 14.526-3.071 19.498-8.089 5.019-4.972 8.091-11.892 8.091-19.499 0-1.141.485-2.15 1.209-2.919.768-.723 1.777-1.209 2.918-1.209 1.141 0 2.151.485 2.921 1.209.724.769 1.21 1.778 1.21 2.919 0 7.607 3.071 14.527 8.089 19.499 4.973 5.018 11.894 8.089 19.501 8.089 7.605 0 14.526-3.071 19.498-8.089 5.019-4.972 8.091-11.892 8.091-19.499 0-1.141.485-2.15 1.209-2.919.768-.723 1.777-1.209 2.918-1.209 1.14 0 2.151.486 2.921 1.209.723.769 1.21 1.777 1.21 2.919 0 7.607 3.094 14.504 8.089 19.499 4.995 4.995 11.893 8.089 19.499 8.089 1.142 0 2.151.487 2.92 1.21.723.771 1.208 1.78 1.208 2.921Zm-.589 129.294c0 1.14-.463 2.172-1.209 2.918a4.116 4.116 0 0 1-2.919 1.209c-13.739 0-25.701-7.772-31.719-19.153l.003-.004-.003.004-.003-.004.003.004c-6.015 11.381-17.979 19.153-31.716 19.153-13.741 0-25.703-7.772-31.721-19.153l.003-.004-.003.004-.003-.004.003.004c-6.015 11.381-17.976 19.153-31.716 19.153-13.74 0-25.7-7.772-31.716-19.152v-.001l.002-.004a.008.008 0 0 1-.002.004l-.003-.004.003.004c-6.019 11.381-17.981 19.153-31.72 19.153-13.737 0-25.701-7.772-31.717-19.152v-.001l.002-.004a.008.008 0 0 1-.002.004l-.003-.004.003.004c-6.018 11.381-17.98 19.153-31.719 19.153a4.116 4.116 0 0 1-2.919-1.209 4.115 4.115 0 0 1-1.209-2.918c0-1.141.486-2.151 1.209-2.921.769-.723 1.777-1.21 2.919-1.21 7.607 0 14.505-3.094 19.5-8.089 4.995-4.995 8.089-11.892 8.089-19.499 0-1.141.486-2.15 1.21-2.919.77-.724 1.779-1.209 2.92-1.209 1.14 0 2.172.463 2.918 1.209a4.116 4.116 0 0 1 1.209 2.919c0 7.607 3.095 14.504 8.091 19.499 4.996 4.995 11.894 8.089 19.499 8.089 7.607 0 14.505-3.094 19.5-8.089 4.995-4.995 8.089-11.892 8.089-19.499 0-1.141.486-2.15 1.21-2.919.77-.724 1.78-1.209 2.921-1.209 1.141 0 2.15.486 2.918 1.209.724.769 1.209 1.778 1.209 2.919 0 7.607 3.072 14.527 8.09 19.499 4.973 5.018 11.894 8.089 19.499 8.089 7.605 0 14.526-3.071 19.498-8.089 5.019-4.972 8.091-11.892 8.091-19.499 0-1.141.485-2.15 1.209-2.919.768-.723 1.777-1.209 2.918-1.209 1.141 0 2.151.485 2.921 1.209.724.769 1.21 1.778 1.21 2.919 0 7.607 3.071 14.527 8.089 19.499 4.973 5.018 11.894 8.089 19.501 8.089 7.605 0 14.526-3.071 19.498-8.089 5.019-4.972 8.091-11.892 8.091-19.499 0-1.141.485-2.15 1.209-2.919.768-.723 1.777-1.209 2.918-1.209 1.14 0 2.151.486 2.921 1.209.723.769 1.21 1.777 1.21 2.919 0 7.607 3.094 14.504 8.089 19.499 4.995 4.995 11.893 8.089 19.499 8.089 1.142 0 2.151.487 2.92 1.21.723.771 1.208 1.78 1.208 2.921Zm189.643-45.62c0 1.14-.463 2.172-1.209 2.918a4.116 4.116 0 0 1-2.919 1.209c-13.739 0-25.701-7.772-31.719-19.153l.003-.004-.003.004-.003-.004.003.004c-6.015 11.381-17.979 19.153-31.716 19.153-13.741 0-25.703-7.772-31.721-19.153l.003-.004-.003.004-.003-.004.003.004c-6.015 11.381-17.976 19.153-31.716 19.153-13.74 0-25.7-7.772-31.716-19.152v-.001l.002-.004a.008.008 0 0 1-.002.004l-.003-.004.003.004c-6.019 11.381-17.981 19.153-31.72 19.153-13.737 0-25.701-7.772-31.717-19.152v-.001l.002-.004a.008.008 0 0 1-.002.004l-.003-.004.003.004c-6.018 11.381-17.98 19.153-31.719 19.153a4.116 4.116 0 0 1-2.919-1.209 4.115 4.115 0 0 1-1.209-2.918c0-1.141.486-2.151 1.209-2.921.769-.723 1.777-1.21 2.919-1.21 7.607 0 14.505-3.094 19.5-8.089 4.995-4.995 8.089-11.892 8.089-19.499 0-1.141.486-2.15 1.21-2.919.77-.724 1.779-1.209 2.92-1.209 1.14 0 2.172.463 2.918 1.209a4.116 4.116 0 0 1 1.209 2.919c0 7.607 3.095 14.504 8.091 19.499 4.996 4.995 11.894 8.089 19.499 8.089 7.607 0 14.505-3.094 19.5-8.089 4.995-4.995 8.089-11.892 8.089-19.499 0-1.141.486-2.15 1.21-2.919.77-.724 1.78-1.209 2.921-1.209 1.141 0 2.15.486 2.918 1.209.724.769 1.209 1.778 1.209 2.919 0 7.607 3.072 14.527 8.09 19.499 4.973 5.018 11.894 8.089 19.499 8.089 7.605 0 14.526-3.071 19.498-8.089 5.019-4.972 8.091-11.892 8.091-19.499 0-1.141.485-2.15 1.209-2.919.768-.723 1.777-1.209 2.918-1.209 1.141 0 2.151.485 2.921 1.209.724.769 1.21 1.778 1.21 2.919 0 7.607 3.071 14.527 8.089 19.499 4.973 5.018 11.894 8.089 19.501 8.089 7.605 0 14.526-3.071 19.498-8.089 5.019-4.972 8.091-11.892 8.091-19.499 0-1.141.485-2.15 1.209-2.919.768-.723 1.777-1.209 2.918-1.209 1.14 0 2.151.486 2.921 1.209.723.769 1.21 1.777 1.21 2.919 0 7.607 3.094 14.504 8.089 19.499 4.995 4.995 11.893 8.089 19.499 8.089 1.142 0 2.151.487 2.92 1.21.723.771 1.208 1.78 1.208 2.921Zm1.394 124.648c0 1.14-.463 2.172-1.209 2.918a4.116 4.116 0 0 1-2.919 1.209c-13.739 0-25.701-7.772-31.719-19.153l.003-.004-.003.004-.003-.004.003.004c-6.015 11.381-17.979 19.153-31.716 19.153-13.741 0-25.703-7.772-31.721-19.153l.003-.004-.003.004-.003-.004.003.004c-6.015 11.381-17.976 19.153-31.716 19.153-13.74 0-25.7-7.772-31.716-19.152v-.001l.002-.004a.008.008 0 0 1-.002.004l-.003-.004.003.004c-6.019 11.381-17.981 19.153-31.72 19.153-13.737 0-25.701-7.772-31.717-19.152v-.001l.002-.004a.008.008 0 0 1-.002.004l-.003-.004.003.004c-6.018 11.381-17.98 19.153-31.719 19.153a4.116 4.116 0 0 1-2.919-1.209 4.115 4.115 0 0 1-1.209-2.918c0-1.141.486-2.151 1.209-2.921.769-.723 1.777-1.21 2.919-1.21 7.607 0 14.505-3.094 19.5-8.089 4.995-4.995 8.089-11.892 8.089-19.499 0-1.141.486-2.15 1.21-2.919.77-.724 1.779-1.209 2.92-1.209 1.14 0 2.172.463 2.918 1.209a4.116 4.116 0 0 1 1.209 2.919c0 7.607 3.095 14.504 8.091 19.499 4.996 4.995 11.894 8.089 19.499 8.089 7.607 0 14.505-3.094 19.5-8.089 4.995-4.995 8.089-11.892 8.089-19.499 0-1.141.486-2.15 1.21-2.919.77-.724 1.78-1.209 2.921-1.209 1.141 0 2.15.486 2.918 1.209.724.769 1.209 1.778 1.209 2.919 0 7.607 3.072 14.527 8.09 19.499 4.973 5.018 11.894 8.089 19.499 8.089 7.605 0 14.526-3.071 19.498-8.089 5.019-4.972 8.091-11.892 8.091-19.499 0-1.141.485-2.15 1.209-2.919.768-.723 1.777-1.209 2.918-1.209 1.141 0 2.151.485 2.921 1.209.724.769 1.21 1.778 1.21 2.919 0 7.607 3.071 14.527 8.089 19.499 4.973 5.018 11.894 8.089 19.501 8.089 7.605 0 14.526-3.071 19.498-8.089 5.019-4.972 8.091-11.892 8.091-19.499 0-1.141.485-2.15 1.209-2.919.768-.723 1.777-1.209 2.918-1.209 1.14 0 2.151.486 2.921 1.209.723.769 1.21 1.777 1.21 2.919 0 7.607 3.094 14.504 8.089 19.499 4.995 4.995 11.893 8.089 19.499 8.089 1.142 0 2.151.487 2.92 1.21.723.771 1.208 1.78 1.208 2.921Zm-127.52 73.974c0 1.14-.463 2.172-1.209 2.918a4.116 4.116 0 0 1-2.919 1.209c-13.739 0-25.701-7.772-31.719-19.153l.003-.004-.003.004-.003-.004.003.004c-6.015 11.381-17.979 19.153-31.716 19.153-13.741 0-25.703-7.772-31.721-19.153l.003-.004-.003.004-.003-.004.003.004c-6.015 11.381-17.976 19.153-31.716 19.153-13.74 0-25.7-7.772-31.716-19.152v-.001l.002-.004a.008.008 0 0 1-.002.004l-.003-.004.003.004c-6.019 11.381-17.981 19.153-31.72 19.153-13.737 0-25.701-7.772-31.717-19.152v-.001l.002-.004a.008.008 0 0 1-.002.004l-.003-.004.003.004c-6.018 11.381-17.98 19.153-31.719 19.153a4.116 4.116 0 0 1-2.919-1.209 4.115 4.115 0 0 1-1.209-2.918c0-1.141.486-2.151 1.209-2.921.769-.723 1.777-1.21 2.919-1.21 7.607 0 14.505-3.094 19.5-8.089 4.995-4.995 8.089-11.892 8.089-19.499 0-1.141.486-2.15 1.21-2.919.77-.724 1.779-1.209 2.92-1.209 1.14 0 2.172.463 2.918 1.209a4.116 4.116 0 0 1 1.209 2.919c0 7.607 3.095 14.504 8.091 19.499 4.996 4.995 11.894 8.089 19.499 8.089 7.607 0 14.505-3.094 19.5-8.089 4.995-4.995 8.089-11.892 8.089-19.499 0-1.141.486-2.15 1.21-2.919.77-.724 1.78-1.209 2.921-1.209 1.141 0 2.15.486 2.918 1.209.724.769 1.209 1.778 1.209 2.919 0 7.607 3.072 14.527 8.09 19.499 4.973 5.018 11.894 8.089 19.499 8.089 7.605 0 14.526-3.071 19.498-8.089 5.019-4.972 8.091-11.892 8.091-19.499 0-1.141.485-2.15 1.209-2.919.768-.723 1.777-1.209 2.918-1.209 1.141 0 2.151.485 2.921 1.209.724.769 1.21 1.778 1.21 2.919 0 7.607 3.071 14.527 8.089 19.499 4.973 5.018 11.894 8.089 19.501 8.089 7.605 0 14.526-3.071 19.498-8.089 5.019-4.972 8.091-11.892 8.091-19.499 0-1.141.485-2.15 1.209-2.919.768-.723 1.777-1.209 2.918-1.209 1.14 0 2.151.486 2.921 1.209.723.769 1.21 1.777 1.21 2.919 0 7.607 3.094 14.504 8.089 19.499 4.995 4.995 11.893 8.089 19.499 8.089 1.142 0 2.151.487 2.92 1.21.723.771 1.208 1.78 1.208 2.921Z" style="fill:#73c6ea"/><path style="fill:url(#a)" d="M386.696 106.696H172.707a9.302 9.302 0 0 0-9.304 9.304v265.16c0 12.844-10.416 23.26-23.26 23.26h232.598c12.843 0 23.259-10.416 23.259-23.26V116c0-5.14-4.168-9.304-9.304-9.304Z"/><path style="fill:url(#b)" d="M164.285 381.16c-.038 6.603-2.751 12.751-7.072 17.071-4.32 4.321-10.468 7.072-17.07 7.072-6.603 0-12.75-2.751-17.071-7.072-4.321-4.32-7.033-10.468-7.072-17.071V199.735c.039-2.751 1.188-5.41 2.983-7.204 1.795-1.795 4.453-2.944 7.204-2.983h38.098V381.16Z"/><path style="fill:#ffdb7e" d="M186.662 209.038h79.084a4.654 4.654 0 0 1 4.651 4.653v55.823a4.653 4.653 0 0 1-4.651 4.652h-79.084a4.654 4.654 0 0 1-4.651-4.652v-55.823a4.651 4.651 0 0 1 4.651-4.653Z"/><path style="fill:#7bc6eb" d="M136.004 327.995h55.999c4.416 0 8 3.584 8 8v95.999c0 4.416-3.584 8-8 8h-55.999c-4.416 0-8-3.584-8-8v-95.999c0-4.416 3.576-8 8-8zm263.996 0h55.999c4.416 0 8 3.584 8 8v95.999c0 4.416-3.584 8-8 8H400c-4.416 0-8-3.584-8-8v-95.999c0-4.416 3.576-8 8-8z" transform="translate(107.577 106.697) scale(.5815)"/><path style="fill:#7a7a7a" d="M326.221 216.598h-37.259c-.884.089-1.374-.213-2.012-.852-.623-.622-.852-1.128-.852-2.055 0-.927.229-1.433.852-2.056.637-.637 1.17-.937 2.055-.851l37.259-.001c.884-.088 1.374.213 2.012.852.624.623.853 1.129.853 2.056s-.229 1.433-.853 2.055c-.638.637-1.168.937-2.055.852Z"/><path style="fill:#a3a3a3" d="m372.741 235.205-83.779.001c-.884.089-1.374-.213-2.012-.851-.623-.623-.852-1.13-.852-2.056 0-.928.229-1.433.852-2.056.637-.637 1.17-.936 2.055-.852h83.778c.885-.088 1.374.214 2.013.852.623.623.851 1.128.851 2.056 0 .926-.228 1.433-.851 2.056-.638.636-1.17.936-2.055.85Zm0-55.822-186.122.001c-.884.086-1.372-.215-2.012-.853-.623-.623-.852-1.128-.852-2.056 0-.927.229-1.433.852-2.055.638-.637 1.17-.937 2.055-.853h186.121c.885-.087 1.374.214 2.013.853.623.622.851 1.128.851 2.055 0 .928-.228 1.433-.851 2.056-.638.636-1.17.937-2.055.852Z"/><path style="fill:#a3a3a3" d="m455.999 252.996-144.072.001c-1.521.15-2.363-.368-3.461-1.466-1.071-1.071-1.465-1.941-1.465-3.535s.394-2.464 1.465-3.535c1.096-1.095 2.011-1.611 3.535-1.465l144.072-.001c1.521-.15 2.363.368 3.461 1.466 1.071 1.071 1.465 1.941 1.465 3.535s-.394 2.464-1.465 3.535c-1.096 1.095-2.011 1.611-3.535 1.465Zm0 32-144.072.001c-1.521.15-2.363-.368-3.461-1.466-1.071-1.071-1.465-1.941-1.465-3.535s.394-2.464 1.465-3.535c1.096-1.095 2.011-1.611 3.535-1.465l144.072-.001c1.521-.15 2.363.368 3.461 1.466 1.071 1.071 1.465 1.941 1.465 3.535s-.394 2.464-1.465 3.535c-1.096 1.095-2.011 1.611-3.535 1.465Z" transform="translate(107.577 106.697) scale(.5815)"/><path style="fill:#7a7a7a" d="M275.049 304.985h-32.606c-.885.088-1.375-.213-2.013-.851-.622-.624-.852-1.13-.852-2.056 0-.928.23-1.433.852-2.056.637-.637 1.17-.937 2.056-.852l32.606-.001c.885-.087 1.374.215 2.013.853.623.623.852 1.128.852 2.056 0 .926-.229 1.432-.852 2.056-.637.636-1.169.936-2.056.851Z"/><path style="fill:#a3a3a3" d="m360 372.994-128.072.001c-1.521.15-2.363-.368-3.461-1.466-1.071-1.071-1.465-1.941-1.465-3.535s.394-2.464 1.465-3.535c1.096-1.095 2.011-1.611 3.535-1.465l128.072-.001c1.521-.15 2.363.368 3.461 1.466 1.071 1.071 1.465 1.941 1.465 3.535s-.394 2.464-1.465 3.535c-1.096 1.095-2.011 1.611-3.535 1.465Zm0 32-128.072.001c-1.521.15-2.363-.368-3.461-1.466-1.071-1.071-1.465-1.941-1.465-3.535s.394-2.464 1.465-3.535c1.096-1.095 2.011-1.611 3.535-1.465l128.072-.001c1.521-.15 2.363.368 3.461 1.466 1.071 1.071 1.465 1.941 1.465 3.535s-.394 2.464-1.465 3.535c-1.096 1.095-2.011 1.611-3.535 1.465Zm0 31.999-128.072.001c-1.521.15-2.363-.368-3.461-1.466-1.071-1.071-1.465-1.941-1.465-3.535s.394-2.464 1.465-3.535c1.096-1.095 2.011-1.611 3.535-1.465l128.072-.001c1.521-.15 2.363.368 3.461 1.466 1.071 1.071 1.465 1.941 1.465 3.535s-.394 2.464-1.465 3.535c-1.096 1.095-2.011 1.611-3.535 1.465Z" transform="translate(107.577 106.697) scale(.5815)"/><path style="fill:#ffc93e" d="M233.182 255.558c-15.909 3.489-27.54-17.817-37.216-23.259a16.973 16.973 0 0 0-13.956 0v37.215a4.655 4.655 0 0 0 4.652 4.652h79.083a4.654 4.654 0 0 0 4.652-4.652v-33.121c-11.35.558-23.259 16.095-37.215 19.165Z"/><g transform="translate(107.577 106.697) scale(.5815)"><circle style="fill:#afddf3" cx="164.003" cy="371.994" r="20"/><circle style="fill:#afddf3" cx="427.991" cy="371.994" r="20"/><path style="fill:#afddf3" d="M427.999 397.354a65.475 65.475 0 0 0-35.999 10v24.64c0 4.416 3.584 8 8 8h55.999c4.416 0 8-3.584 8-8v-24.64a65.5 65.5 0 0 0-36-10zm-263.996 0a65.475 65.475 0 0 0-35.999 10v24.64c0 4.416 3.584 8 8 8h55.999c4.416 0 8-3.584 8-8v-24.64a65.5 65.5 0 0 0-36-10z"/></g><path style="fill:#a3a3a3" d="M184.003 39.999a4.641 4.641 0 0 1 4.8-5.68 6.553 6.553 0 0 1 5.68 2.8l26.56 33.199v-30.96a5.601 5.601 0 0 1 5.04-5.52 6.075 6.075 0 0 1 5.68 5.52v45.119a5.36 5.36 0 0 1-4.24 5.52 7.998 7.998 0 0 1-6.48-2.8l-26.56-33.679v30.96a4.961 4.961 0 0 1-5.04 5.52 5.281 5.281 0 0 1-5.44-5.112c-.008-.136 0-.272 0-.408V39.999zm66.239 50a4.88 4.88 0 0 1-4.96-4.8v-45.68a4.88 4.88 0 0 1 4.8-4.96h28.96a5.2 5.2 0 1 1 0 10.4h-23.048v12h20.24a5.277 5.277 0 0 1 5.888 4.592 5.277 5.277 0 0 1-5.888 5.888h-20.24v12h24a5.277 5.277 0 0 1 5.888 4.592 5.277 5.277 0 0 1-5.888 5.888h-29.76v.08h.008zM352 70.879l11.92-33.039a5.198 5.198 0 1 1 10.168 2.168 5.064 5.064 0 0 1-.488 1.352l-16 43.039c-1.44 4.56-2.8 5.92-5.52 5.92a6.081 6.081 0 0 1-5.36-4.64l-13.92-32-12.8 31.52a6.395 6.395 0 0 1-5.68 5.28 6.24 6.24 0 0 1-5.52-5.44L293.04 41.36c-.976-2.72.44-5.704 3.16-6.68s5.704.44 6.68 3.16l11.84 33.039 14.16-33.039a4.641 4.641 0 0 1 9.04 0L352 70.879zm29.68-24.32c1.84-15.52 25.36-18.32 36.399-9.84a4.749 4.749 0 1 1-5.12 8c-5.92-3.76-19.36-5.52-21.04 2.8-2.16 13.12 32.719 5.6 32 26.96-.72 21.36-30.08 20.88-41.119 11.68a5.925 5.925 0 0 1-1.12-8 4.725 4.725 0 0 1 6.6-1.008c.184.136.352.288.52.448 6.56 4.48 23.52 8 24.72-3.52-.961-11.84-34.32-4.72-31.84-27.52z" transform="translate(107.577 106.697) scale(.5815)"/></svg>