<svg viewBox="0 0 512 512" xmlns="http://www.w3.org/2000/svg"><defs><radialGradient gradientUnits="userSpaceOnUse" cx="191.865" cy="183.64" r="248" id="a" gradientTransform="matrix(1.82525 0 0 1.99351 -158.337 -182.448)"><stop offset="0" style="stop-color:transparent"/><stop offset="1" style="stop-color:#002845"/></radialGradient></defs><path d="M256.002 8.002c136.966 0 247.999 111.032 248 247.998h-496c.001-136.966 111.034-247.998 248-247.998Z" style="fill:#89cc86"/><path d="M504.002 256.002c0 136.967-111.033 248-248 248-136.967 0-248-111.033-248-248V256h496v.002Z" style="fill:#9ed6f1"/><path style="fill:#5ebae7" d="M272.269 226.49c145.412 43.185 202.456 19.804 230.628 5.956a251.259 251.259 0 0 1 1.105 23.556c0 49.22-14.339 95.09-39.066 133.662-34.586 21.996-95.796 40.094-192.667 13.566-115.111-31.523-192.367-16.427-218.292-3.355-28.946-40.573-45.975-90.234-45.975-143.873 0-2.225.029-4.442.087-6.653 92.078-52.77 222.811-35.145 264.18-22.859Z"/><path d="M256 8c26.503 0 52.036 4.157 75.98 11.856 62.498 20.093 114.18 64.308 144.083 121.681-33.97-17.238-78.26-25.917-156.32-12.678-126.45 21.447-218.72-31.988-242.249-45.017 31.423-32.574 71.679-56.57 116.912-68.131l.002-.002C214.101 10.676 234.738 8 256 8Z" style="fill:#49b276"/><path d="M256.002 8c136.966 0 247.999 111.032 248 247.998V256c0 136.967-111.033 248-248 248-136.967 0-248-111.033-248-248v-.002C8.003 119.032 119.036 8 256.002 8Z" style="fill:url(#a);fill-opacity:.6"/></svg>