<svg viewBox="0 0 256 256" aria-hidden="true" xmlns="http://www.w3.org/2000/svg"><defs><filter id="e" color-interpolation-filters="sRGB" x="-500%" y="-500%" width="1000%" height="1000%"><feGaussianBlur in="SourceAlpha"/><feOffset dy="1"/><feComponentTransfer result="offsetblur"><feFuncA type="linear"/></feComponentTransfer><feFlood flood-color="rgba(0,0,0,0.3)"/><feComposite in2="offsetblur" operator="in"/><feMerge><feMergeNode/><feMergeNode in="SourceGraphic"/></feMerge></filter></defs><path style="fill:#d8d8d8;stroke-linecap:round;stroke-width:4px;stroke:#6dc0e9" d="M37.392 69.859h75m-52.59 9.901h75M150.8 53.722h75m-65.955 74.552h75M23.622 150.749h75m20.657-35.631h75m-62.666 50.158h75M45.275 98.337h75m39.844-27.135h75" transform="translate(-1.37 -8.022)"/><path d="M181.647 53.794H74.358a4.46 4.46 0 0 0-4.456 4.456v73.683c0 2.457 2 4.454 4.456 4.454h107.29a4.456 4.456 0 0 0 4.45-4.454V58.25a4.448 4.448 0 0 0-4.45-4.456Z" fill="#b7d5e5"/><path d="M138.055 101.281H44.031l1.11-60.416h91.804l1.11 60.416Z" fill="url(#a)" transform="translate(27.214 16.41) scale(1.10703)"/><path d="M200.953 180.505H55.727a9.807 9.807 0 0 1-1.537-.114c-3.684-.564-5.385-5.349-3.197-8.622l.498-.755H204.51l.514.767c2.38 3.557.152 8.649-3.893 8.711-.05.013-.114.013-.177.013Z" fill="#2f7889"/><path d="M182.72 137.76H72.375c-1.627 0-3.253.981-4.16 2.542l-17.91 32.601c-.758 1.128-.017 2.714 1.266 2.714h152.851c1.277 0 2.018-1.586 1.268-2.714l-18.824-32.791c-.896-1.384-2.52-2.353-4.146-2.353Z" fill="#eee"/><path fill="#b7d5e5" d="M156.516 169.886H99.501l3.644-10.212h49.99l3.381 10.212Zm29.707-12.42H68.183l7.549-17.577h103.495l6.996 17.577Z"/><g transform="translate(64.435 86.985)"><linearGradient id="d" gradientUnits="userSpaceOnUse" x1="64.065" y1="45.986" x2="64.065" y2=".64" gradientTransform="matrix(1 0 0 -1 0 128)"><stop offset="0" style="stop-color:#a7daf2"/><stop offset=".998" style="stop-color:#6dc0e9"/></linearGradient><path d="M109.63 77.051c1.73-2.013-3.745-9.401-4.23-9.455-1.86-.192-3.74 1.881-4.7 3.152a41.664 41.664 0 0 1-6.07 6.758c-.45.324-2.3 1.846-2.24 5.369.02 1.199 1.48 6.483 2.11 8.688.14.492.52.815.94.815.06 0 .11 0 .17-.012l9.51-1.905c.512-.098.873-.652.83-1.27 0-.06-.34-6.46 3.71-12.116l-.03-.024Z" fill="url(#b)" transform="rotate(108.758 101.178 79.98)"/><path d="M34.405 84.298c1.73 2.013-3.745 9.401-4.23 9.455-1.86.192-3.74-1.881-4.7-3.152a41.664 41.664 0 0 0-6.07-6.758c-.45-.324-2.3-1.846-2.24-5.369.02-1.199 1.48-6.483 2.11-8.688.14-.492.52-.815.94-.815.06 0 .11 0 .17.012l9.51 1.905c.512.098.873.652.83 1.27 0 .06-.34 6.46 3.71 12.116l-.03.024Z" fill="url(#c)" transform="rotate(71.242 25.953 81.368)"/><path d="M115.74 111.06c.14 7.1-5.58 12.94-12.69 12.94-1.4 0-2.72-.29-3.9-.84-.04-.02-.08-.03-.11-.05a7.993 7.993 0 0 1-1.65-.97 9.794 9.794 0 0 1-1.89-1.86 9.444 9.444 0 0 1-1.91-4.59l-.02.01-.01.01c.19.533.572 17.289-3.703 21.958-4.562 4.006-45.419 4.923-51.711-.402-3.494-3.649-4.208-20.508-3.566-21.676l-.04-.02c0 .02 0 .03-.01.04v.01c-.43 3.23-2.5 6-5.39 7.36h-.01c-1.23.58-2.59.9-4.05.9-7.1 0-12.83-5.83-12.69-12.94l2.38-24.961c.02-.8.65-1.45 1.45-1.5l12.81-.75h.11c.78 0 1.45.59 1.54 1.38l.41 3.381c4.18-3.58 9.95-6.21 17.88-6.21 2.62 0 27.59.12 30.2.12 7.93 0 13.7 2.63 17.88 6.2l.268-3.381c.1-.79.77-1.38 1.55-1.38.04 0 .07.01.11.01l12.81.75c.8.05 1.42.7 1.45 1.5l2.502 24.961Z" fill="url(#d)"/><path d="M99.04 123.11a8.03 8.03 0 0 1-1.65-.97 9.795 9.795 0 0 1-1.89-1.86 9.44 9.44 0 0 1-1.91-4.59l-.02.01-.38-10.68s.63 9.15 5.85 18.09zm-64.13-18.09-.38 10.59v.01c-.43 3.23-2.5 6-5.39 7.36 5.14-8.9 5.77-17.96 5.77-17.96z" style="fill:#5699bb"/><path d="M54.92 78.33v7.676c0 3.469 3.62 6.284 9.08 6.284s9.08-2.815 9.08-6.284V78.33H54.92Z" style="fill:#fbddbe"/><path d="M101.42 71.42s-.51 2.14-2.19 3.47c-1.57 1.23-3.6 1.72-5.03 1.93 0 0-2.102 7.793-16.712 9.573-3.989.501-8.967-.381-10.638-1.16-1.603 1.286-6.056 3.42-10.789 4.212-14.61 1.79-18.531-5.695-18.531-5.695-1.43.14-3.53.15-5.34-.67-1.95-.89-2.96-2.85-2.96-2.85s3.24-.69 4.09-2.83c.89-2.21-.82-4.13-3.6-6.43-4.415-3.646-9.838-12.68-7.089-22.866a5.865 5.865 0 0 1-.351-.594c-2.63-5.13-.26-9.63 1.8-11.85-.85-1.7-2.09-5.33-.43-10.05 1.4-3.97 4.75-5.52 7.4-5.95-3.65-7.9 3.74-11.8 3.74-11.8s.42 3.82 3.06 4.92c4.22 1.76 9.48-2.06 10.3-2.64 3.92-2.81 11.23-8.03 23.72-5.69 4.61.86 9.65 3.94 10.89 8.14 4.5-.25 10.02 3.64 12.65 6.73 1.9 2.23 5.53 9.66 4.32 18.03-.024.171-.051.34-.079.505.231.373.448.727.439.755 5.15 9.24 2.05 19.32-1.36 23.93-2.15 2.91-3.33 5.18-1.95 7.11 1.34 1.87 4.64 1.77 4.64 1.77Z" style="filter:url(#e);fill:#4a3631"/><linearGradient id="c" gradientUnits="userSpaceOnUse" x1="111.822" y1="55.186" x2="111.822" y2="84.222" gradientTransform="matrix(1 0 0 1.19838 -82.524 5.17)"><stop offset=".5" stop-color="#f9ddbd"/><stop offset="1" stop-color="#ffd29c"/></linearGradient></g><linearGradient id="b" gradientUnits="userSpaceOnUse" x1="111.822" y1="55.186" x2="111.822" y2="84.222" gradientTransform="matrix(1 0 0 -1.19838 -7.3 156.179)"><stop offset=".5" stop-color="#f9ddbd"/><stop offset="1" stop-color="#ffd29c"/></linearGradient><radialGradient id="a" cx="48.408" cy="13.024" r="75.465" gradientTransform="matrix(1.15581 0 0 1.25324 16.983 -6.66)" gradientUnits="userSpaceOnUse"><stop offset="0" stop-color="#2f7889"/><stop offset="1" stop-color="#424242"/></radialGradient></svg>