<svg viewBox="0 0 500 500" xmlns="http://www.w3.org/2000/svg"><path style="fill:#d8d8d8" transform="matrix(.9572 -.28943 0 1.04471 -343.029 -488.904)" d="M358.368 726.007h522.354v305.82H358.368z"/><path style="fill:#000;paint-order:stroke;stroke-width:.270933px" d="M75.391 112.558c-3.725-.367-6.029-.894-6.929-1.587-.734-.564-.291-.819.762-.438.864.312 1.39.383 5.135.693l1.684.139-.968-1.071c-1.18-1.306-1.491-2.044-1.705-4.041l-.165-1.542-1.1.799c-.605.439-1.79 1.669-2.633 2.732a5687.41 5687.41 0 0 1-2.47 3.116c-.712.897-.958 1.07-1.026.72-.175-.911 2.667-5.144 4.805-7.155l1.366-1.285-1.2.795c-1.488.987-4.443 4.1-5.144 5.42-.576 1.084-1.072 1.329-.788.39 1.311-4.335 5.499-7.731 11.527-9.349a185.647 185.647 0 0 0 7.114-2.098c9.987-3.208 12.322-3.428 16.932-1.6 2.035.808 2.752.974 3.779.875.856-.082 1.237-.027 1.172.171-.201.611-2.644.473-4.556-.258-2.479-.948-6.1-1.159-8.96-.523-2.135.475-2.66.942-1.059.942.527 0 2.556.357 4.509.793 1.952.437 4.259.794 5.127.794.867 0 1.577.106 1.577.235 0 .539-2.006.552-5.194.034-1.846-.3-4.379-.618-5.63-.706l-2.273-.162v3.805c0 4.204-.485 5.72-2.323 7.267-1.091.917-.277.834 1.872-.192 2.419-1.154 5.158-3.934 6.545-6.642 1.526-2.979 1.988-2.709.794.464-2.936 7.799-7.648 9.738-20.577 8.465Zm10.659-9.182c.903-.903 1.142-2.999.376-3.293-.93-.357-5.289 1.345-5.21 2.034.247 2.146 3.183 2.91 4.834 1.259Zm-27.805-2.018c-1.569-1.271-.508-2.135 6.873-5.593 3.032-1.421 7.146-3.505 9.141-4.631 13.982-7.892 20.9-8.445 29.439-2.352 2.101 1.499 1.909 1.959-.309.74-9.092-4.998-15.789-3.785-26.348 4.773-4.175 3.384-5.295 4.145-8.001 5.439-4.104 1.962-9.394 2.757-10.795 1.624Z" transform="translate(-343.034 -478.165) scale(7.17697)"/></svg>