<svg viewBox="0 0 500 500" xmlns="http://www.w3.org/2000/svg"><defs><linearGradient gradientUnits="userSpaceOnUse" x1="322.553" y1="186.418" x2="322.553" y2="501.105" id="a" gradientTransform="matrix(-.0012 -1 1.29647 0 -108.143 508.971)"><stop offset="0" style="stop-color:#3295dc"/><stop offset="1" style="stop-color:transparent"/></linearGradient></defs><path style="fill:#06dc71" d="M0 224.669V500h366.798s3.554-66.087-51.065-85.742c-45.463-16.36-109.416 4.621-136.263-15.317-28.324-21.034-41.059-95.642-85.458-134.977C48.379 223.536 0 224.669 0 224.669Z"/><path style="fill:url(#a)" d="M133.155 499.997V186.418l378.797.001s-10.989 142.958-56.164 174.299c-44.467 30.849-161.068-3.427-189.478 17.293-41.073 29.956-38.994 69.467-78.14 100.48-37.859 29.993-55.015 21.506-55.015 21.506Z" transform="rotate(180 316.578 343.21)"/></svg>