<svg version="1.1" id="Layer_1" xmlns="http://www.w3.org/2000/svg" x="0" y="0" viewBox="0 0 89.1 38.2" style="enable-background:new 0 0 89.1 38.2" xml:space="preserve"><style>.st0{fill:#fff}.st6{enable-background:new}</style><circle class="st0" cx="17.3" cy="19.1" r="17.3"/><path d="M32.5 18.4H20.7v-7.9h9.1c1.6 2.2 2.5 4.9 2.7 7.9z" style="fill:#ef7b22"/><path d="M32.5 19.4c0 2.9-.9 5.6-2.4 7.9-.2.3-.4.7-.7 1-.4.5-.8 1-1.2 1.4-.3.3-.6.6-1 .9-1.8 1.6-4 2.7-6.4 3.3-.3.1-.7.1-1 .2-.8.1-1.6.2-2.5.2-1.9 0-3.7-.3-5.3-.9v-5.1h16.2v-8.9h4.3z" style="fill:#f5eb01"/><path d="M27.2 19.4v7.9H4.4C3 25 2.1 22.3 2 19.4h25.2z" style="fill:#e42b27"/><path d="M29.1 9.5H12V4.8c1.7-.6 3.4-.9 5.3-.9.8 0 1.7.1 2.5.2.3 0 .7.1 1 .2 2.4.6 4.6 1.7 6.4 3.3.4.3.7.6 1 .9.3.3.6.6.9 1z" style="fill:#9dc850"/><path d="M11 5.2v13.2H2c.1-2.9 1.1-5.6 2.7-7.9.2-.4.5-.7.7-1C6.9 7.7 8.8 6.2 11 5.2z" style="fill:#5bc1ee"/><g class="st6"><path class="st0" d="M46.1 18.3v-6L44 16.7h-1.2l-2.2-4.4v6h-2.3v-10h2.5l2.6 5.2L46 8.3h2.5v10h-2.4zm4.1-8.2V8h2.3v2h-2.3zm0 8.2v-7.4h2.3v7.4h-2.3zm6.7.2c-.6 0-1.3-.1-1.9-.3-.6-.2-1.1-.5-1.6-.9l.8-1.4c.5.3.9.6 1.3.7.4.2.8.3 1.2.3.3 0 .5-.1.7-.2.2-.1.2-.3.2-.5s-.1-.4-.3-.5c-.2-.1-.6-.2-1.1-.4-.5-.1-.9-.3-1.3-.4s-.6-.3-.8-.4-.4-.3-.5-.6c-.1-.2-.1-.5-.1-.7 0-.4.1-.7.2-1 .2-.3.4-.6.6-.8.3-.2.6-.4.9-.5s.8-.2 1.2-.2c.6 0 1.1.1 1.6.2.5.2 1 .4 1.4.8l-.9 1.4c-.4-.3-.8-.5-1.1-.6-.3-.1-.6-.2-1-.2-.2 0-.5 0-.6.1-.2.1-.3.3-.3.5s.1.4.3.5c.2.1.5.2 1 .3.5.1 1 .3 1.3.4.4.1.7.3.9.5.2.2.4.4.5.6s.2.5.2.8c0 .7-.3 1.3-.8 1.8-.3.4-1.1.7-2 .7zm7.1 0c-.6 0-1.3-.1-1.9-.3-.6-.2-1.1-.5-1.6-.9l.8-1.4c.5.3.9.6 1.3.7.4.2.8.3 1.2.3.3 0 .5-.1.7-.2.2-.1.2-.3.2-.5s-.1-.4-.3-.5c-.2-.1-.6-.2-1.1-.4-.5-.1-.9-.3-1.3-.4s-.6-.3-.8-.4-.2-.3-.3-.5c-.1-.2-.1-.5-.1-.7 0-.4.1-.7.2-1 .2-.3.4-.6.6-.8.3-.2.6-.4.9-.5s.8-.2 1.2-.2c.6 0 1.1.1 1.6.2.5.2 1 .4 1.4.8l-.9 1.4c-.4-.3-.8-.5-1.1-.6-.3-.1-.6-.2-1-.2-.2 0-.5 0-.6.1-.2.1-.3.3-.3.5s.1.4.3.5c.2.1.5.2 1 .3.5.1 1 .3 1.3.4.4.1.7.3.9.5.2.2.4.4.5.6s.2.5.2.8c0 .7-.3 1.3-.8 1.8-.6.3-1.3.6-2.2.6zm4.1-8.4V8h2.3v2h-2.3zm0 8.2v-7.4h2.3v7.4h-2.3zm10.9 0h-2.3v-4.2c0-.5-.1-.8-.3-1.1-.2-.2-.4-.3-.7-.3-.2 0-.3 0-.5.1s-.3.2-.5.3c-.2.1-.3.3-.4.4s-.2.3-.3.5v4.2h-2.3v-7.4h2V12c.3-.4.7-.8 1.2-1 .5-.2 1.1-.4 1.7-.4.5 0 .9.1 1.2.3.3.2.5.4.7.7.2.3.3.6.3.9.1.3.1.6.1 1v4.8zm4.4 0c-.5 0-.9-.1-1.3-.3s-.8-.5-1-.8-.5-.7-.7-1.2c-.2-.5-.2-.9-.2-1.5 0-.5.1-1.1.3-1.5s.4-.9.7-1.2c.3-.3.7-.6 1.1-.8.4-.2.9-.3 1.4-.3.6 0 1.1.1 1.5.4.4.2.8.6 1 1v-1.2h2v6.9c0 .6-.1 1.1-.3 1.5-.2.5-.5.8-.9 1.2-.4.3-.8.6-1.4.7-.5.2-1.1.3-1.7.3-.8 0-1.5-.1-2-.4-.6-.3-1.1-.6-1.5-1.1l1.2-1.2c.3.3.6.6 1 .7s.8.3 1.3.3c.3 0 .5 0 .8-.1.2-.1.5-.2.6-.3.2-.2.3-.4.4-.6.1-.2.2-.5.2-.9v-.7c-.2.4-.6.7-1 .9-.5.1-1 .2-1.5.2zm.8-1.7c.3 0 .7-.1.9-.3.3-.2.5-.4.6-.7V14c-.2-.4-.4-.7-.7-.9-.3-.2-.6-.3-1-.3-.2 0-.5.1-.7.2-.2.1-.4.3-.5.4-.1.2-.3.4-.3.6-.1.2-.1.5-.1.7 0 .3 0 .5.1.8.1.2.2.4.4.6.2.2.3.3.6.4.2 0 .4.1.7.1z"/></g><g class="st6"><path class="st0" d="M46.1 31v-6L44 29.4h-1.2L40.5 25v6h-2.3V21h2.5l2.6 5.2 2.6-5.2h2.5v10h-2.3zm6.1.2c-.4 0-.7-.1-1-.2-.3-.1-.6-.3-.8-.5-.2-.2-.4-.5-.5-.7-.1-.3-.2-.6-.2-.9 0-.4.1-.7.2-1 .2-.3.4-.6.7-.8.3-.2.6-.4 1-.5.4-.1.8-.2 1.3-.2.3 0 .6 0 .9.1.3.1.5.1.8.2v-.3c0-.9-.5-1.3-1.5-1.3-.4 0-.8.1-1.2.2-.4.1-.8.3-1.2.6l-.7-1.5c.5-.3 1-.6 1.5-.7.5-.2 1.1-.2 1.7-.2 1.1 0 2 .3 2.6.8.6.5.9 1.3.9 2.3v1.9c0 .2 0 .4.1.5.1.1.2.1.4.2V31c-.2 0-.4.1-.5.1h-.4c-.4 0-.7-.1-1-.2s-.4-.4-.4-.7v-.3c-.3.4-.7.7-1.2 1-.5.1-1 .3-1.5.3zm.7-1.7c.2 0 .5 0 .7-.1l.6-.3c.2-.2.3-.3.3-.5v-.7c-.2-.1-.4-.1-.6-.2-.2 0-.4-.1-.6-.1-.4 0-.8.1-1 .3-.3.2-.4.4-.4.7 0 .3.1.5.3.7.1.1.4.2.7.2zm10.2 1.7c-.6 0-1.1-.1-1.5-.4-.4-.2-.7-.6-1-1V34h-2.3V23.6h2v1.2c.3-.4.6-.8 1-1 .4-.2.9-.4 1.5-.4.5 0 1 .1 1.4.3.4.2.8.5 1.1.8.3.3.5.7.7 1.2s.3 1 .3 1.5c0 .6-.1 1.1-.2 1.5-.2.5-.4.9-.7 1.2-.3.3-.6.6-1 .8-.4.4-.9.5-1.3.5zm-.8-1.9c.2 0 .5-.1.7-.2.2-.1.4-.3.5-.4.2-.2.3-.4.3-.6.1-.2.1-.5.1-.8 0-.3 0-.5-.1-.8-.1-.2-.2-.4-.4-.6s-.3-.3-.6-.4c-.2-.1-.5-.1-.7-.1-.3 0-.6.1-.9.3-.3.2-.5.4-.7.7v1.5c.2.4.4.7.7.9.4.3.8.5 1.1.5zm8 1.9c-.6 0-1.3-.1-1.9-.3-.6-.2-1.1-.5-1.6-.9l.8-1.4c.5.3.9.6 1.3.7s.8.3 1.2.3c.3 0 .5-.1.7-.2.2-.1.2-.3.2-.5s-.1-.4-.3-.5c-.2-.1-.6-.2-1.1-.4-.5-.1-.9-.3-1.3-.4s-.6-.3-.8-.4-.4-.3-.5-.6c-.1-.2-.1-.5-.1-.7 0-.4.1-.7.2-1 .2-.3.4-.6.6-.8.3-.2.6-.4.9-.5s.8-.2 1.2-.2c.6 0 1.1.1 1.6.2.5.2 1 .4 1.4.8l-.9 1.4c-.4-.3-.8-.5-1.1-.6-.3-.1-.6-.2-1-.2-.2 0-.5 0-.6.1-.2.1-.3.3-.3.5s.1.4.3.5c.2.1.5.2 1 .3.5.1 1 .3 1.3.4s.7.3.9.5c.2.2.4.4.5.6.1.2.2.5.2.8 0 .7-.3 1.3-.8 1.8-.3.4-1 .7-2 .7z"/></g></svg>