<svg width="32" height="32" xmlns="http://www.w3.org/2000/svg"><radialGradient id="a" cx="-183.69" cy="328.972" r=".76" gradientTransform="matrix(29.33281 0 0 28.3995 5399.138 -9334.511)" gradientUnits="userSpaceOnUse"><stop offset="0" stop-opacity=".98" style="stop-color:#173879"/><stop offset="1" style="stop-color:#0c0824"/></radialGradient><path d="M1.334 1.733h29.332v28.532H1.334V1.733Z" fill="url(#a)"/><path d="M1.334 1.733h29.332v28.532H1.334V1.733ZM0 31.599h31.999V.4H0v31.199Z" style="fill:#31c5f0"/><path d="M21.195 13.631c-1.007 0-1.351.509-1.351.93 0 .459.228.78 1.583 1.479 2.002.971 2.625 1.903 2.625 3.269 0 2.042-1.558 3.138-3.662 3.138a5.55 5.55 0 0 1-2.617-.546c-.092-.038-.103-.102-.103-.204v-1.879c0-.128.064-.167.153-.102a4.736 4.736 0 0 0 2.567.753c1.008 0 1.429-.422 1.429-.996 0-.459-.292-.866-1.583-1.53-1.813-.869-2.566-1.75-2.566-3.217 0-1.644 1.29-3.012 3.522-3.012a5.904 5.904 0 0 1 2.285.358.283.283 0 0 1 .127.255v1.751c0 .102-.063.166-.192.128a4.271 4.271 0 0 0-2.22-.573l.003-.002ZM10.22 15.147c.294.026.523.026 1.034.026 1.493 0 2.898-.523 2.898-2.553 0-1.621-1.011-2.437-2.707-2.437-.512 0-.994.025-1.225.039v4.925ZM7.949 8.366c0-.09.177-.153.28-.153.819-.039 2.03-.063 3.293-.063 3.535 0 4.914 1.938 4.914 4.414 0 3.243-2.347 4.632-5.232 4.632-.485 0-.651-.025-.995-.025v4.901c0 .102-.039.154-.154.154H8.102c-.101 0-.151-.039-.151-.154v-13.7l-.002-.006Z" style="fill:#31c5f0"/></svg>