<svg xmlns="http://www.w3.org/2000/svg" width="32" height="32"><path style="opacity:.2" d="M14 1105.52v4.236l.693.707 2.848 2.848.129.129.33.33 1.41 1.41.256.256.334.334 6.75 6.75H31v-4.25l-6.75-6.75-.334-.334-.281-.281-1.385-1.385-.441-.442-.018-.018-3.541-3.54z" transform="translate(0 -1090.52)"/><path style="opacity:.2" d="M16 1093.52a14 14 0 0 0-14 14 14 14 0 0 0 14 14 14 14 0 0 0 6.176-1.453l-3.237-3.237-.334-.334-.255-.256-.866-.865a8 8 0 0 1-1.484.145 8 8 0 0 1-8-8 8 8 0 0 1 8-8 8 8 0 0 1 8 8 8 8 0 0 1-.145 1.484l.84.84.282.281.334.334 3.242 3.242A14 14 0 0 0 30 1107.52a14 14 0 0 0-14-14z" transform="translate(0 -1090.52)"/><path style="fill:#90ae24" d="M16 2A14 14 0 0 0 2 16a14 14 0 0 0 14 14 14 14 0 0 0 6.176-1.453l-3.237-3.236-.334-.334-.255-.256-.866-.866A8 8 0 0 1 16 24a8 8 0 0 1-8-8 8 8 0 0 1 8-8 8 8 0 0 1 8 8 8 8 0 0 1-.145 1.484l.84.84.282.281.334.334 3.242 3.243A14 14 0 0 0 30 16 14 14 0 0 0 16 2z"/><path style="fill:#ee7913" d="M14 14v4.236l.693.707 2.848 2.848.129.129.33.33V18h4.25l-.441-.441-.018-.018L18.25 14H14z"/><path style="fill:#609a30" d="M19.41 1109.857v4.322l7.34 7.34H31v-4.25l-7.366-7.365-.05-.046z" transform="translate(0 -1090.52)"/><path style="fill:#f0e64a" d="M18 18v4.25l1.41 1.41.256.256.334.334V20h4.25l-.334-.334-.281-.281L22.25 18H18z"/><path style="opacity:.2;fill:#fff" d="m14 1104.52 17 17v-4.25l-7.083-7.084-.283-.282-1.826-1.826-.016-.017-3.542-3.542z" transform="translate(0 -1090.52)"/><path style="opacity:.2;fill:#fff" d="M16 2A14 14 0 0 0 2 16a14 14 0 0 0 .021.414A14 14 0 0 1 16 3a14 14 0 0 1 13.982 13.633A14 14 0 0 0 30 16 14 14 0 0 0 16 2zm7.979 14.412a8 8 0 0 1-.124 1.072l.114.114A8 8 0 0 0 24 17a8 8 0 0 0-.021-.588zm-15.958.164A8 8 0 0 0 8 17a8 8 0 0 0 8 8 8 8 0 0 0 1.484-.145l.866.866.255.256.334.334 2.551 2.55a14 14 0 0 0 .686-.314l-3.237-3.236-.334-.334-.255-.256-.866-.866A8 8 0 0 1 16 24a8 8 0 0 1-7.979-7.424z"/></svg>