<svg width="123" height="50.8" xml:space="preserve" xmlns="http://www.w3.org/2000/svg"><g clip-rule="evenodd" fill-rule="evenodd"><path d="M114 11.3c.252-2.18.422-4.9 1.28-6.77.645 1.94.862 4.45 2.19 5.91 1.72-.405 3.63-.307 5.4.074-1.06 1.4-3.37 2.35-4.75 3.25 1.66 1.4 2.47 3.03 3.38 4.97-2.41-.046-4.61-2.14-6.47-3.27-1.6 1.81-2.73 3.57-5.08 4.22.847-1.81 2.83-3.37 3.08-5.25-1.88-.701-4.21-2.2-5.43-3.72 1.94.116 4.46.364 6.4.591" fill="#af0084"/><path d="M116 25.1c.184-1.58.308-3.56.928-4.92.469 1.41.627 3.23 1.59 4.29 1.24-.294 2.64-.224 3.92.053-.771 1.01-2.44 1.71-3.44 2.36 1.21 1.01 1.8 2.2 2.45 3.61-1.75-.034-3.35-1.56-4.7-2.37-1.16 1.31-1.98 2.59-3.69 3.06.615-1.31 2.06-2.45 2.23-3.81-1.36-.508-3.05-1.6-3.94-2.7 1.4.087 3.24.267 4.64.43" fill="#98c000"/><path d="M110 36c.126-1.1.212-2.46.641-3.4.323.974.433 2.23 1.1 2.96.86-.203 1.82-.154 2.71.038-.534.699-1.69 1.18-2.38 1.63.834.701 1.24 1.52 1.69 2.49-1.21-.021-2.31-1.07-3.25-1.64-.805.907-1.37 1.79-2.55 2.12.425-.906 1.42-1.69 1.54-2.63-.94-.352-2.11-1.1-2.72-1.87.971.06 2.24.184 3.21.298" fill="#f08400"/><path d="M20.3 35.3c-.999 0-12.3 11-13.4 12.3-.918 1.02-1.42 2.9-3 3.11-1.68.226-2.06-.427-2.87-1.69-.765-1.2-1.69-3.33-.353-4.2 1.29-.829 17.3-15.5 17.8-16.1.622-.631-.062-2.2-.359-4.57-.382-3.04-.576-5.83-.342-8.84.239-3.09.979-6.9 1.78-9.9.493-1.83.208-5.45 2.76-5.56.521.123 4.45 2.84 3.39 6.42-1.53 5.13-3 10.9-2.55 16.4.087 1.06.514 1.98 1.19 1.49 7.25-5.18 18.6-10.8 21.5-11.8 1.4-.446 2.83-.794 4.28-.976 1.04.123 1.83 1.1 2.65 1.79 4.11 3.52-3.87 16-4.55 19.8.639 0 1.33-.968 2.55-2.07 1.3-1.18 3.32-3.04 4.81-4.48 2.28-1.71 4.27-3.28 7.16-3.65 6.95-.882 4.87 9.12 3.3 12.7.897 0 3.09-2.52 4.84-4.18.883-.837 1.86-1.72 2.75-2.54 1.06-.974 1.55-1.48 2.35-1.09.536.154 2.86 1.56 2.99 3.71.109 1.74-.605 3.45-.955 5.12-.291 1.4-.219 5.95 1.67 5.96.745-.538 1.72-.769 2.61-.917 1.43-.242 1.36.222 2.54.662 1.85.687.181 3.31-.792 4.28-1.31 1.3-3.18 2.16-5.05 2.13-2.06-.035-3.68-1.3-4.61-3.08-.507-.977-1.16-4.58-1.41-5.65-.252-1.05-.033-2.31-1.15-1.24-3.15 3.03-6.4 5.85-9.6 8.84-3.53 3.29-6.9-1.23-6.26-4.92.631-3.61 3.75-8.02 4.31-11.6-1.49 0-4 2.6-4.95 3.67-1.54 1.74-3.25 3.67-4.99 5.5-1.75 1.84-3.25 3.53-5.01 5.36-1.27 1.32-2.72 3.2-4.86 3.32-1.05-.166-2.73-1.92-3.02-4.15-.236-1.86.235-3.91.948-5.62 2.06-4.95 7.71-15.4 9.03-20.6-2.71.261-14.2 5.57-21.8 11.9-2.2 1.81-.169 5.13.751 7.34.985 2.36 3.89 6.63 4.76 7.36 2.28 1.89.459 3.56-1.8 3.44-.959-.679-2.12-1.41-3.02-2.31-.978-.976-1.82-2.09-2.59-3.23-1.56-2.31-3.05-4.98-3.45-7.78M102 5.68c-.646-2.39-3.64 1.26-5.14 3.19-4.15 5.34-7.93 16.2-8.54 18.2-1.86 6.14-2.58 13.7 1.44 19.1 2.34 3.15 6.46 3.39 10.5 2.23 2.08-.599 4.17-2.09 4.88-3.72.588-1.35.893-3.87-2.08-1.95-1.15.744-3.26 1.56-7.04 1.5-1.27-.021-3.35-1.84-3.91-3.72-.984-3.06-.565-7.15-.565-7.15.86-5.28 3.31-11 5.46-15.8.835-1.85 3.38-6.47 4.33-7.94 0 .001 1.22-1.92.674-3.96z" fill="#005fad"/></g></svg>